<?xml version="1.0" encoding="utf-8"?>
<!-- Generator: Adobe Illustrator 16.0.5, SVG Export Plug-In . SVG Version: 6.00 Build 0)  -->
<!DOCTYPE svg PUBLIC "-//W3C//DTD SVG 1.1//EN" "http://www.w3.org/Graphics/SVG/1.1/DTD/svg11.dtd">
<svg version="1.1" id="Layer_1" xmlns="http://www.w3.org/2000/svg" xmlns:xlink="http://www.w3.org/1999/xlink" x="0px" y="0px"
	 width="150.253px" height="269.809px" viewBox="0 0 150.253 269.809" enable-background="new 0 0 150.253 269.809"
	 xml:space="preserve">
<path d="M68.623,18.863c0-6.332,0-12.477,0-18.862c4.871,0,9.366,0,14.384,0c0,6.331,0,12.614,0,19.365
	c21.402,2,40.209,8.605,53.025,26.604c7.016,9.856,11.207,25.334,10.307,36.736c-12.801,0-25.631,0-39.062,0
	c-1.327-14.824-4.651-28.58-24.104-30.185c0,2.805,0,5.35,0,7.894c0,14.687,0.076,29.373-0.067,44.056
	c-0.022,2.913,0.909,4.157,3.663,5.217c10.47,4.025,21.047,7.899,31.122,12.779c23.626,11.44,33.573,29.927,32.246,56.171
	c-1.833,36.288-24.974,53.835-54.589,60.009c-3.965,0.825-8.002,1.295-12.41,1.997c0,9.772,0,19.337,0,29.165
	c-4.934,0-9.426,0-14.428,0c0-9.549,0-19.098,0-28.504c-9.055-1.929-17.735-3.279-26.124-5.659
	c-24.507-6.941-38.91-24.415-41.597-49.81c-0.482-4.536-0.693-9.096-0.98-13.644c-0.052-0.776,0.12-1.569,0.211-2.635
	c13.332,0,26.472,0,40.258,0c1.482,17.902,4.615,35.009,27.771,37.32c0.092-1.195,0.283-2.56,0.287-3.914
	c0.016-17.95-0.112-35.9,0.111-53.85c0.048-3.722-1.367-4.855-4.623-5.937c-9.558-3.167-19.286-6.114-28.337-10.424
	C10.567,120.787,2.185,97.769,5.421,73.157c3.667-27.938,21.896-47.384,47.097-51.871C57.631,20.375,62.796,19.731,68.623,18.863z
	 M83.361,206.345c15.354-0.303,24.217-8.855,25.324-23.952c1.243-17.059-8.354-29.233-25.324-31.987
	C83.361,168.961,83.361,187.498,83.361,206.345z M68.333,52.791c-16.042,0.474-24.388,8.698-24.922,23.987
	c-0.462,13.324,10.649,25.204,24.922,26.544C68.333,86.56,68.333,69.811,68.333,52.791z"/>
</svg>
