<?xml version="1.0" encoding="utf-8"?>
<!-- Generator: Adobe Illustrator 16.0.5, SVG Export Plug-In . SVG Version: 6.00 Build 0)  -->
<!DOCTYPE svg PUBLIC "-//W3C//DTD SVG 1.1//EN" "http://www.w3.org/Graphics/SVG/1.1/DTD/svg11.dtd">
<svg version="1.1" id="Layer_1" xmlns="http://www.w3.org/2000/svg" xmlns:xlink="http://www.w3.org/1999/xlink" x="0px" y="0px"
	 width="226.932px" height="226.862px" viewBox="0 0 226.932 226.862" enable-background="new 0 0 226.932 226.862"
	 xml:space="preserve">
<g>
	<g>
		<path d="M0,119.901c0-4.271,0-8.543,0-12.814c0.195-1.567,0.414-3.133,0.582-4.704C2.534,84.06,8.205,66.997,18.465,51.656
			C37.287,23.514,63.456,6.654,96.958,1.336C100.32,0.802,103.71,0.441,107.087,0c4.271,0,8.543,0,12.813,0
			c0.655,0.15,1.305,0.332,1.965,0.445c7.343,1.262,14.863,1.879,22.003,3.865c60.279,16.775,95.794,78.856,78.822,139.693
			c-14.83,53.157-64.937,87.442-120.108,82.359c-22.675-2.089-42.999-10.427-60.604-24.91c-22.599-18.594-36.19-42.435-40.641-71.41
			C0.819,126.674,0.442,123.283,0,119.901z M168.182,117.237c-0.496,18.031-4.09,35.43-10.765,51.622
			c8.867,4.854,17.39,9.517,26.222,14.351c17.63-18.094,27.292-40.084,28.612-65.973
			C197.498,117.237,182.975,117.237,168.182,117.237z M43.34,183.207c8.904-4.868,17.48-9.558,26.232-14.343
			c-6.752-16.311-10.274-33.66-10.784-51.609c-14.811,0-29.332,0-44.083,0C16.074,143.14,25.694,165.148,43.34,183.207z
			 M212.254,109.762c-1.194-23.733-9.494-44.225-24.559-61.484c-9.365,5.515-18.388,10.827-27.682,16.301
			c5.097,14.266,7.709,29.562,8.196,45.184C183.061,109.762,197.522,109.762,212.254,109.762z M39.278,48.272
			C24.192,65.685,15.82,86.18,14.771,109.795c14.811,0,29.28,0,44.025,0c0.424-15.743,3.132-31.029,8.156-45.223
			C57.616,59.073,48.653,53.793,39.278,48.272z M109.739,161.327c0-14.871,0-29.459,0-44.038c-14.648,0-29.146,0-43.773,0
			c0.553,17.299,3.891,33.773,10.608,49.673C87.525,163.495,98.525,161.717,109.739,161.327z M150.441,166.955
			c6.675-16.159,10.112-32.598,10.53-49.721c-14.781,0-29.224,0-43.738,0c0,14.72,0,29.302,0,44.104
			C128.563,161.704,139.547,163.546,150.441,166.955z M73.952,66.383c-5.097,14.178-7.567,28.521-7.958,43.335
			c14.762,0,29.26,0,43.719,0c0-12.313,0-24.454,0-36.78C97.464,72.574,85.7,70.35,73.952,66.383z M117.191,109.756
			c14.697,0,29.138,0,43.8,0c-0.422-14.893-2.88-29.24-7.972-43.377c-11.709,4.032-23.62,6.146-35.828,6.611
			C117.191,85.417,117.191,97.506,117.191,109.756z M109.728,65.735c0-17.127,0-33.913,0-51.207
			C94.795,27.078,84.19,42.15,76.674,59.734C87.587,63.441,98.433,65.413,109.728,65.735z M117.158,65.747
			c11.45-0.356,22.347-2.291,33.166-6.047c-7.641-17.607-18.172-32.701-33.166-45.238C117.158,31.907,117.158,48.654,117.158,65.747
			z M182.287,42.528c-14.905-14.124-32.072-22.873-52.048-26.182c11.472,11.996,20.295,25.668,26.821,40.908
			C166.179,53.444,174.4,48.609,182.287,42.528z M69.934,57.25c6.521-15.307,15.384-28.931,26.819-40.913
			c-20.061,3.37-37.276,12.118-52.057,26.226C52.656,48.629,60.843,53.509,69.934,57.25z M79.567,173.676
			c7.389,14.924,17.08,27.865,30.175,38.776c0-14.928,0-29.33,0-43.715C103.978,168.066,85.89,171.005,79.567,173.676z
			 M117.271,168.544c0,14.7,0,29.056,0,43.916c13.061-10.98,22.812-23.885,30.186-38.919
			C137.502,170.401,127.561,168.874,117.271,168.544z M96.689,210.603c-9.839-10.319-17.769-21.85-24.013-34.591
			c-8.413,3.314-16.099,7.328-23.416,12.573C63.24,200.37,78.907,207.721,96.689,210.603z M130.296,210.61
			c17.814-2.927,33.514-10.262,47.451-22.061c-7.527-5.208-15.151-9.344-23.487-12.522
			C148.008,188.872,140.061,200.311,130.296,210.61z"/>
	</g>
</g>
</svg>
