<?xml version="1.0" encoding="utf-8"?>
<!-- Generator: Adobe Illustrator 16.0.5, SVG Export Plug-In . SVG Version: 6.00 Build 0)  -->
<!DOCTYPE svg PUBLIC "-//W3C//DTD SVG 1.1//EN" "http://www.w3.org/Graphics/SVG/1.1/DTD/svg11.dtd">
<svg version="1.1" id="Layer_1" xmlns="http://www.w3.org/2000/svg" xmlns:xlink="http://www.w3.org/1999/xlink" x="0px" y="0px"
	 width="207.908px" height="235.507px" viewBox="0 0 207.908 235.507" enable-background="new 0 0 207.908 235.507"
	 xml:space="preserve">
<g>
	<g>
		<path d="M104.873,235.507c-0.612,0-1.226,0-1.84,0c-0.772-0.293-1.527-0.648-2.32-0.869c-26.53-7.377-53.062-14.754-79.609-22.069
			c-1.555-0.429-2.174-1.009-2.314-2.718c-1.183-14.351-2.492-28.689-3.771-43.032c-1.482-16.631-2.974-33.26-4.456-49.891
			c-1.278-14.342-2.546-28.686-3.824-43.027C5.256,57.27,3.781,40.639,2.275,24.01C1.551,16.004,0.76,8.003,0,0
			c69.302,0,138.605,0,207.908,0c-0.455,4.569-0.948,9.137-1.357,13.711c-1.457,16.248-2.874,32.5-4.325,48.75
			c-1.459,16.324-2.951,32.646-4.408,48.972c-1.458,16.325-2.881,32.654-4.336,48.979c-1.462,16.401-2.979,32.799-4.372,49.206
			c-0.146,1.729-0.643,2.472-2.357,2.942c-22.796,6.245-45.573,12.56-68.344,18.897C113.873,232.72,109.384,234.153,104.873,235.507
			z M19.473,17.493c0.479,5.571,0.918,10.838,1.39,16.1c1.615,18.008,3.255,36.012,4.86,54.02s3.167,36.02,4.773,54.027
			c1.613,18.083,3.295,36.162,4.835,54.251c0.162,1.904,0.707,2.744,2.596,3.26c21.475,5.874,42.92,11.859,64.392,17.744
			c1.166,0.32,2.576,0.285,3.749-0.037c21.323-5.854,42.614-11.816,63.95-17.621c2.208-0.601,2.799-1.601,2.971-3.732
			c1.038-12.904,2.225-25.798,3.374-38.693c1.462-16.404,2.936-32.81,4.404-49.214c1.319-14.726,2.641-29.451,3.956-44.178
			c1.288-14.422,2.574-28.844,3.845-43.266c0.076-0.873,0.01-1.76,0.01-2.66C132.127,17.493,75.899,17.493,19.473,17.493z"/>
		<path fill-rule="evenodd" clip-rule="evenodd" d="M67.168,69.343c0.809,9.022,1.58,17.641,2.38,26.554c31.515,0,62.967,0,94.723,0
			c-0.405,4.719-0.77,9.115-1.163,13.51c-1.312,14.652-2.638,29.304-3.952,43.956c-0.631,7.021-1.2,14.049-1.942,21.057
			c-0.07,0.658-1.096,1.544-1.839,1.754c-15.907,4.492-31.851,8.854-47.748,13.379c-2.62,0.745-4.978,0.72-7.583-0.021
			c-15.826-4.495-31.688-8.865-47.547-13.25c-1.081-0.299-1.928-0.476-2.054-1.938c-1.102-12.901-2.288-25.796-3.443-38.693
			c-0.012-0.144,0.067-0.296,0.142-0.601c8.508,0,17.054,0,25.86,0c0.344,3.629,0.696,7.257,1.03,10.888
			c0.245,2.671,0.501,5.341,0.681,8.017c0.081,1.216,0.493,1.854,1.791,2.193c8.735,2.289,17.439,4.695,26.168,7.007
			c0.772,0.204,1.696,0.167,2.476-0.04c8.726-2.323,17.442-4.683,26.141-7.11c0.637-0.177,1.539-0.909,1.591-1.453
			c1.017-10.602,1.925-21.213,2.85-31.823c0.013-0.147-0.046-0.301-0.112-0.695c-29.813,0-59.667,0-89.835,0
			c-2.346-26.268-4.672-52.321-7.014-78.564c43.402,0,86.654,0,130.19,0c-0.77,8.627-1.528,17.139-2.308,25.876
			C133.437,69.343,100.437,69.343,67.168,69.343z"/>
	</g>
</g>
</svg>
