<?xml version="1.0" encoding="utf-8"?>
<!-- Generator: Adobe Illustrator 16.0.5, SVG Export Plug-In . SVG Version: 6.00 Build 0)  -->
<!DOCTYPE svg PUBLIC "-//W3C//DTD SVG 1.1//EN" "http://www.w3.org/Graphics/SVG/1.1/DTD/svg11.dtd">
<svg version="1.1" id="Layer_1" xmlns="http://www.w3.org/2000/svg" xmlns:xlink="http://www.w3.org/1999/xlink" x="0px" y="0px"
	 width="902.059px" height="1052px" viewBox="0 0 902.059 1052" enable-background="new 0 0 902.059 1052" xml:space="preserve">
<g id="ahkyzl_1_">
	<g>
		<g>
			<path d="M439.063,0c8,0,16,0,24,0c3.92,0.613,7.832,1.288,11.763,1.832c69.629,9.646,125.667,72.822,126.274,143.094
				c0.438,50.652,0.123,101.312,0.145,151.969c0,1.961,0,3.924,0,6.385c2.211-0.286,3.836-0.449,5.444-0.711
				c21.374-3.49,42.565-2.611,63.241,3.865c37.466,11.734,65.945,34.627,84.387,69.562c1.181,2.236,2.125,4.037,5.433,4.024
				c24.308-0.089,46.973,6.302,68.411,17.622c23.03,12.162,42.19,28.373,55.301,51.212c13.928,24.264,18.429,50.76,18.517,78.26
				c0.108,34.159,0.104,68.319,0.002,102.479c-0.098,32.573-2.949,64.936-10.69,96.597
				c-17.535,71.726-35.017,143.475-53.709,214.902c-13.863,52.971-48.906,87.023-100.361,104.223
				c-10.611,3.547-22.082,4.523-33.156,6.685c-138.333,0-276.667,0-415,0c-1.453-0.293-2.895-0.728-4.363-0.855
				c-14.88-1.298-29.439-4.346-42.877-10.824c-58.76-28.332-90.891-74.493-91.33-140.521c-0.506-76.163-0.094-152.331-0.199-228.496
				c-0.004-3.395-0.676-6.978-1.881-10.152C102.54,540.33,56.555,419.55,10.618,298.752c-13.691-36.003-14.331-72.244-0.816-108.364
				C28.831,139.531,85.058,86.229,165.83,94.785c40.427,4.281,73.324,22.512,99.816,52.928
				c13.682,15.709,22.178,34.264,29.272,53.584c1.562,4.25,3.287,8.439,4.938,12.657c1.026-20.165,0.801-40.084,1.121-59.993
				c0.163-10.128,0.226-20.455,2.191-30.322C315.027,64.117,350.822,25.4,407.853,6.148C417.812,2.787,428.638,1.984,439.063,0z
				 M395.042,751.312c2.189,0,4.139,0.002,6.088-0.001c39.494-0.041,78.998,0.406,118.48-0.297
				c26.22-0.467,45.864-13.895,58.021-36.517c22.165-41.246-8.023-94.685-55.718-94.554c-57.159,0.156-114.32,0.191-171.479-0.062
				c-21.151-0.094-38.4,7.43-52.622,23.037c-22.783,25.002-45.961,49.643-68.797,74.598c-1.791,1.956-3.122,5.166-3.131,7.798
				c-0.175,57.992-0.192,115.986-0.052,173.979c0.017,6.617,0.388,13.41,1.892,19.816c8.018,34.16,37.672,57.694,73.367,57.74
				c130.317,0.168,260.635,0.085,390.951,0.005c5.131-0.003,10.384-0.399,15.372-1.53c31.006-7.028,50.718-26.167,58.562-56.849
				c15.202-59.457,29.919-119.039,44.917-178.549c6.43-25.512,13.231-51.013,14.288-77.427c1.105-27.619,1.132-55.281,1.601-82.925
				c0.003-0.18-0.417-0.366-0.888-0.755c-0.664,1.356-1.328,2.635-1.925,3.943c-26.957,59.192-53.659,118.503-80.961,177.536
				c-14.329,30.982-48.404,50.166-81.832,47.357c-36.014-3.025-65.423-26.741-75.167-60.645c-0.875-3.043-1.591-6.132-2.472-9.551
				c-0.854,0.798-1.255,1.094-1.56,1.469c-17.193,21.15-39.344,31.434-66.668,31.256c-38.327-0.249-76.657-0.062-114.986-0.062
				c-1.755,0-3.51,0-5.283,0C395.042,763.542,395.042,757.751,395.042,751.312z M376.006,526.012
				c-11.224,0-21.858-0.22-32.477,0.112c-4.016,0.126-5.741-1.182-7.138-4.876c-25.051-66.266-50.234-132.482-75.413-198.699
				c-13.653-35.907-26.845-72.001-41.16-107.643c-17.019-42.369-70.233-58.963-108.881-34.672
				c-32.02,20.125-43.665,57.495-29.489,94.636c46.431,121.652,92.812,243.323,139.392,364.919
				c3.458,9.025,5.534,17.945,5.003,27.633c-0.441,8.043-0.09,16.129-0.09,24.196c0.408,0.182,0.816,0.362,1.225,0.544
				c1.365-1.593,2.685-3.228,4.102-4.772c16.779-18.298,33.896-36.3,50.281-54.943c19.068-21.693,42.605-31.898,71.45-31.505
				c35.486,0.485,70.985,0.066,106.479,0.193c3.469,0.013,5.238-0.965,6.712-4.229c19.434-43.057,39.056-86.028,58.517-129.073
				c1.05-2.321,1.538-5.099,1.539-7.665c0.075-102.647,0.076-205.295,0.022-307.942c-0.002-4.645-0.305-9.331-0.97-13.926
				c-6.978-48.208-62.551-81.166-111.432-53.07c-25.099,14.428-37.718,37.162-37.701,66.588
				c0.071,122.311,0.029,244.621,0.029,366.933C376.006,520.901,376.006,523.054,376.006,526.012z M827.253,520.674
				c-0.304-0.11-0.608-0.221-0.912-0.331c-0.43-4.136-0.759-8.284-1.328-12.4c-0.341-2.46-0.941-4.901-1.625-7.294
				c-7.528-26.361-30.754-44.395-59.227-45.459c-22.421-0.839-41.784,6.015-55.263,24.931c-5.098,7.155-9.765,14.796-13.423,22.769
				c-29.698,64.714-59.279,129.483-88.53,194.4c-12.578,27.914-3.874,59.614,20.565,78.263
				c33.922,25.884,81.436,13.646,99.756-26.25c31.726-69.09,63.08-138.35,94.305-207.667
				C824.507,535.117,825.407,527.683,827.253,520.674z M598.993,666.226c0.877-1.579,1.306-2.24,1.629-2.95
				c29.787-65.376,59.728-130.683,89.27-196.169c13.127-29.1,2.052-63.733-25.117-81.046c-34.255-21.828-78.215-8.346-95.619,29.61
				c-27.656,60.314-55.085,120.734-82.597,181.116c-0.568,1.248-0.968,2.573-1.598,4.271c10.673,0,20.661-0.01,30.65,0.003
				c10.748,0.013,21.29,1.507,31.253,5.598C573.632,617.65,591.604,636.586,598.993,666.226z"/>
			<path fill-rule="evenodd" clip-rule="evenodd" fill="none" d="M395.042,751.312c0,6.439,0,12.23,0,18.812
				c1.773,0,3.528,0,5.283,0c38.329-0.001,76.659-0.188,114.986,0.062c27.324,0.178,49.475-10.105,66.668-31.256
				c0.305-0.375,0.706-0.671,1.56-1.469c0.881,3.419,1.597,6.508,2.472,9.551c9.744,33.903,39.153,57.619,75.167,60.645
				c33.428,2.809,67.503-16.375,81.832-47.357c27.302-59.033,54.004-118.344,80.961-177.536c0.597-1.309,1.261-2.587,1.925-3.943
				c0.471,0.389,0.891,0.575,0.888,0.755c-0.469,27.644-0.495,55.306-1.601,82.925c-1.057,26.414-7.858,51.915-14.288,77.427
				c-14.998,59.51-29.715,119.092-44.917,178.549c-7.844,30.682-27.556,49.82-58.562,56.849c-4.988,1.131-10.241,1.527-15.372,1.53
				c-130.316,0.08-260.634,0.163-390.951-0.005c-35.695-0.046-65.35-23.58-73.367-57.74c-1.504-6.406-1.875-13.199-1.892-19.816
				c-0.141-57.992-0.123-115.986,0.052-173.979c0.009-2.632,1.34-5.842,3.131-7.798c22.836-24.955,46.014-49.596,68.797-74.598
				c14.222-15.607,31.471-23.131,52.622-23.037c57.158,0.254,114.319,0.219,171.479,0.062c47.694-0.131,77.883,53.308,55.718,94.554
				c-12.157,22.622-31.802,36.05-58.021,36.517c-39.482,0.703-78.986,0.256-118.48,0.297
				C399.181,751.313,397.231,751.312,395.042,751.312z"/>
			<path fill-rule="evenodd" clip-rule="evenodd" fill="none" d="M376.006,526.012c0-2.958,0-5.11,0-7.263
				c0-122.312,0.042-244.622-0.029-366.933c-0.017-29.426,12.603-52.16,37.701-66.588c48.881-28.096,104.454,4.862,111.432,53.07
				c0.665,4.595,0.968,9.281,0.97,13.926c0.054,102.647,0.053,205.295-0.022,307.942c-0.001,2.566-0.489,5.344-1.539,7.665
				c-19.461,43.045-39.083,86.017-58.517,129.073c-1.474,3.265-3.243,4.242-6.712,4.229c-35.493-0.127-70.992,0.292-106.479-0.193
				c-28.845-0.394-52.382,9.812-71.45,31.505c-16.386,18.644-33.502,36.646-50.281,54.943c-1.417,1.545-2.736,3.18-4.102,4.772
				c-0.408-0.182-0.816-0.362-1.225-0.544c0-8.067-0.352-16.153,0.09-24.196c0.531-9.688-1.545-18.607-5.003-27.633
				C174.259,518.193,127.878,396.522,81.448,274.87c-14.175-37.141-2.53-74.511,29.489-94.636
				c38.648-24.291,91.863-7.697,108.881,34.672c14.315,35.642,27.507,71.735,41.16,107.643
				c25.179,66.217,50.362,132.434,75.413,198.699c1.396,3.694,3.122,5.002,7.138,4.876
				C354.147,525.792,364.782,526.012,376.006,526.012z"/>
			<path fill-rule="evenodd" clip-rule="evenodd" fill="none" d="M827.253,520.674c-1.846,7.009-2.746,14.443-5.682,20.961
				c-31.225,69.317-62.579,138.577-94.305,207.667c-18.32,39.896-65.834,52.134-99.756,26.25
				c-24.439-18.648-33.144-50.349-20.565-78.263c29.251-64.917,58.832-129.687,88.53-194.4c3.658-7.973,8.325-15.613,13.423-22.769
				c13.479-18.916,32.842-25.77,55.263-24.931c28.473,1.064,51.698,19.098,59.227,45.459c0.684,2.393,1.284,4.834,1.625,7.294
				c0.569,4.116,0.898,8.265,1.328,12.4C826.645,520.453,826.949,520.563,827.253,520.674z"/>
			<path fill-rule="evenodd" clip-rule="evenodd" fill="none" d="M598.993,666.226c-7.389-29.64-25.361-48.575-52.129-59.566
				c-9.963-4.091-20.505-5.585-31.253-5.598c-9.989-0.013-19.978-0.003-30.65-0.003c0.63-1.698,1.029-3.023,1.598-4.271
				c27.512-60.382,54.94-120.802,82.597-181.116c17.404-37.956,61.364-51.438,95.619-29.61
				c27.169,17.312,38.244,51.946,25.117,81.046c-29.542,65.486-59.482,130.793-89.27,196.169
				C600.299,663.985,599.87,664.646,598.993,666.226z"/>
		</g>
	</g>
</g>
</svg>
