<?xml version="1.0" encoding="utf-8"?>
<!-- Generator: Adobe Illustrator 16.0.5, SVG Export Plug-In . SVG Version: 6.00 Build 0)  -->
<!DOCTYPE svg PUBLIC "-//W3C//DTD SVG 1.1//EN" "http://www.w3.org/Graphics/SVG/1.1/DTD/svg11.dtd">
<svg version="1.1" id="skull" xmlns="http://www.w3.org/2000/svg" xmlns:xlink="http://www.w3.org/1999/xlink" x="0px" y="0px"
	 width="142.079px" height="208.115px" viewBox="0 0 142.079 208.115" enable-background="new 0 0 142.079 208.115"
	 xml:space="preserve">
<g id="l5WMpz_1_">
	<g>
		<g>
			<path fill="none" d="M118.214,8.559c-0.765,0.68-1.141,0.879-1.121,1.021c0.068,0.478,0.277,0.936,0.433,1.401
				c0.171-0.603,0.343-1.205-1.62,2.423c0.765-0.68,1.141-0.879,1.121-1.021c-0.068-0.478-0.277-0.936-0.433-1.401
				C116.423,11.584,116.251,12.187,118.214,8.559z M119.06,2.981c-1.372,0.245-1.218,0.981-0.623,1.885
				c0.234,0.354,0.417,0.742-0.531,3.538c0.765-0.68,1.141-0.879,1.121-1.021c-0.068-0.478-0.277-0.936-0.433-1.401
				c-0.171,0.603-0.343,1.205,0.466,0c1.372-0.245,1.218-0.981,0.623-1.885c-0.234-0.354-0.417-0.742-0.728-1.205
				c0.065,0.065,0.13,0.13,0.194,0.195c0.273-0.232,0.545-0.465,0.818-0.697c-0.105-0.105-0.211-0.21-0.316-0.315
				C119.419,2.346,119.187,2.619,119.06,2.981z M25.174,191.544c3.31-4.078,7.236-7.365,12.134-9.26
				c2.358-0.912,4.449-2.287,7.239-2.5c2.441-0.186,4.816-1.883,7.247-2.859c5.15-2.07,10.743-2.9,15.635-5.717
				c0.865-0.498,2.192-0.193,3.179-0.252c1.1,1.132,2.027,2.086,2.952,3.037c0.684,0,1.472-0.236,1.994,0.037
				c6.444,3.359,13.096,6.412,19.189,10.328c5.127,3.294,10.379,6.398,15.697,9.271c5.025,2.715,9.443,5.596,11.578,11.057
				c0.52,1.329,1.441,1.729,2.511,2.455c2.396,1.629,4.798,0.329,7.286,0.973c1.295-2.773,4.374-3.766,5.404-6.949
				c0.838-2.592,3.085-4.727,4.737-7.105c0-1.845,0-3.818,0-6.207c-1.681-0.922-3.407-2.559-5.249-2.701
				c-2.215-0.17-4.525,0.948-6.803,1.471c-0.77,0.178-1.679,0.543-2.33,0.3c-2.304-0.858-4.73-1.64-6.729-3.009
				c-3.358-2.301-7.053-4.051-10.37-6.282c-3.789-2.55-8.221-3.845-11.761-6.675c-3.517-2.811-7.525-4.688-11.851-6.523
				c0.914-0.593,1.523-1.188,2.248-1.424c3.523-1.146,6.972-2.455,10.345-3.996c1.394-0.637,3.534-0.473,4.294-1.467
				c1.121-1.465,2.557-1.116,3.691-1.321c3.725-0.673,6.988-2.512,10.488-3.712c3.338-1.145,6.47-2.885,10.029-4.519
				c1.592,0.47,3.865-0.981,5.717,0.939c0.311,0.321,1.431,0.264,1.904-0.042c2.645-1.705,6.342-2.439,6.498-7.188
				c-1.047-2.184-2.312-4.826-4.032-8.418c0-0.506,0-2.168,0-3.072c-1.536-4.785-4.696-5.646-7.2-5.336
				c-3.871,1.13-5.799,2.925-6.518,5.422c-1.37,4.765-5.057,6.224-9.17,7.768c-5.623,2.109-11.182,4.383-16.896,6.264
				c-3.062,1.008-5.959,2.512-8.99,3.625c-3.042,1.115-6.17,1.994-9.242,3.033c-3.588,1.212-7.155,2.484-10.678,3.711
				c-2.335-1.301-4.974-2.224-6.845-3.97c-1.826-1.704-4.089-2.378-6.059-3.653c-1.403-0.909-3.005-1.529-4.434-2.553
				c-3.687-2.643-8.069-4.24-11.383-7.473c-3.956-0.686-6.998-3.23-10.454-4.953c-4.11-2.049-6.901-4.932-8.547-9.065
				c-1.163-2.921-3.405-4.389-6.404-5.216c-1.361,0.778-2.708,1.549-3.863,2.21c-0.805,5.21-3.165,9.067-7.293,12.001
				c-2.466,1.752-4.419,4.066-4.019,7.164c1.308,1.426,2.428,2.646,3.524,3.841c2.969-0.317,5.796,0.073,8.741-0.872
				c2.44-0.782,5.455-0.633,8.031,0.809c1.887,1.057,3.832,2.01,5.749,3.012c4.519,2.363,9.368,4.271,13.456,7.229
				c3.59,2.599,7.038,5.241,11.14,6.991c0.703,0.301,1.057,1.418,1.578,2.166c-3.93,1.433-7.565,2.71-11.165,4.082
				c-3.883,1.481-7.731,3.056-11.598,4.58c-3.176,1.253-6.026,3.294-9.779,3.029c-2.756-0.193-5.273-1.245-7.591-2.244
				c-3.7-1.594-6.043-0.333-8.473,2.033c-0.583,0.568-1.332,0.967-1.531,1.108c0,2.381,0,4.026,0,5.575
				c4.136,4.273,5.957,9.348,6.015,14.875c2.778,3.705,6.273,5.828,10.618,4.222C22.294,198.325,24.848,195.601,25.174,191.544z
				 M107.589,32.774c-0.748-1.895-1.139-2.887-1.426-3.616c2.441-3.826,4.795-7.513,7.102-11.128
				c-4.369-4.915-6.965-6.727-13.164-9.524c-4.781-2.158-9.2-4.984-14.627-5.833c-2.531-0.396-4.982-1.674-7.746-1.748
				c-2.701-0.072-5.381-0.767-8.086-0.907C65.422-0.2,61.338,1.676,57.062,0.981c-3.037,1.697-6.894,0.727-9.753,3
				c-2.094-0.291-3.402,1.547-5.18,1.956c-6.166,1.417-10.477,5.689-15.016,9.575c-1.426,1.221-2.4,2.973-3.571,4.49
				c-1.168,1.513-2.416,2.975-3.462,4.569c-1.708,2.603-2.66,5.558-3.603,8.499c-1.426,4.453-2.83,8.966-3.317,13.59
				c-0.469,4.449-0.225,8.991-0.049,13.483c0.085,2.182,0.115,4.769,1.257,6.419c1.971,2.847,3.533,5.943,5.561,8.717
				c2.65,3.624,5.412,7.207,8.486,10.469c4.492,4.768,5.7,10.772,6.539,16.78c0.809,5.793-0.309,11.698,0.936,17.602
				c0.751,3.557,1.621,6.977,3.112,10.238c0.58,1.27,1.376,2.9,2.489,3.359c1.641,0.676,2.579,1.916,3.761,2.973
				c1.557,1.394,2.769,3.563,4.909,3.768c2.375,0.227,3.72,2.139,5.957,2.658c3.055,0.709,6.355,0.793,9.138,2.002
				c3.448,1.499,6.8,0.367,10.146,0.855c1.051-1.521,2.419,0.611,3.098-0.078c1.146-1.166,2.391-0.846,3.656-0.922
				c1.58-0.096,3.299,0.447,4.584-1c7.482-0.608,13.129-4.544,17.821-10.041c3.983-4.667,6.696-9.977,6.454-16.291
				c-0.181-4.697,0.685-9.4-0.822-14.125c-0.771-2.42,0.028-5.301-0.17-7.952c-0.383-5.135,1.585-9.209,4.859-13.025
				c2.342-2.728,4.296-5.83,6.141-8.933c3.357-5.643,4.744-11.903,5.004-18.402c0.119-2.966,0.41-6.073-0.303-8.881
				c-0.657-2.583-1.867-5.007-1.685-7.785c0.03-0.449-0.119-0.942-0.298-1.367c-1.547-3.691-2.949-7.458-4.75-11.022
				c-1.003-1.982-1.654-4.503-4.398-5.372C112.124,24.541,108.86,27.628,107.589,32.774z M115.704,17.125
				c-0.21,0.116-0.428,0.236-0.645,0.356c0.111,0.111,0.246,0.331,0.328,0.312c0.236-0.052,0.449-0.201,0.672-0.312
				C115.948,17.37,115.837,17.259,115.704,17.125z"/>
			<path fill-rule="evenodd" clip-rule="evenodd" d="M107.324,32.378c1.536-4.75,4.8-7.837,7.271-11.591
				c2.744,0.869,3.396,3.389,4.398,5.372c1.801,3.564,3.203,7.331,4.75,11.022c0.179,0.425,0.328,0.918,0.298,1.367
				c-0.183,2.777,1.027,5.201,1.685,7.785c0.713,2.808,0.422,5.915,0.303,8.881c-0.26,6.499-1.646,12.76-5.004,18.402
				c-1.845,3.103-3.799,6.205-6.141,8.933c-3.274,3.816-5.242,7.89-4.859,13.025c0.198,2.651-0.602,5.532,0.17,7.952
				c1.507,4.725,0.642,9.428,0.822,14.125c0.242,6.314-2.471,11.624-6.454,16.291c-4.692,5.497-10.339,9.433-17.821,10.041
				c-1.285,1.447-3.004,0.904-4.584,1c-1.266,0.076-2.51-0.244-3.656,0.922c-0.679,0.689-2.047-1.443-3.098,0.078
				c-3.346-0.488-6.697,0.644-10.146-0.855c-2.783-1.209-6.083-1.293-9.138-2.002c-2.237-0.52-3.582-2.432-5.957-2.658
				c-2.14-0.204-3.352-2.374-4.909-3.768c-1.182-1.057-2.12-2.297-3.761-2.973c-1.113-0.459-1.909-2.09-2.489-3.359
				c-1.491-3.262-2.361-6.682-3.112-10.238c-1.245-5.903-0.127-11.809-0.936-17.602c-0.839-6.008-2.047-12.012-6.539-16.78
				c-3.074-3.262-5.836-6.846-8.486-10.469c-2.028-2.773-3.59-5.87-5.561-8.717c-1.143-1.65-1.172-4.237-1.257-6.419
				c-0.176-4.492-0.42-9.034,0.049-13.483c0.487-4.624,1.891-9.137,3.317-13.59c0.942-2.941,1.894-5.896,3.603-8.499
				c1.046-1.594,2.294-3.056,3.462-4.569c1.17-1.517,2.145-3.269,3.571-4.49c4.539-3.885,8.85-8.158,15.016-9.575
				c1.778-0.408,3.086-2.246,5.18-1.956c2.859-2.273,6.716-1.303,9.753-3c4.275,0.694,8.36-1.182,12.579-0.964
				c2.705,0.14,5.385,0.835,8.086,0.907c2.764,0.074,5.215,1.352,7.746,1.748c5.427,0.85,9.846,3.676,14.627,5.833
				c6.199,2.797,8.795,4.609,13.164,9.524c-2.307,3.615-4.66,7.302-7.102,11.128C106.45,29.887,106.841,30.879,107.324,32.378
				c-1.761-0.311-1.114,0.846-1.212,1.649c-0.014-0.02-0.078-0.085-0.143-0.15c-0.273,0.232-0.545,0.464-0.818,0.697
				c0.105,0.105,0.211,0.21,0.316,0.315c0.232-0.272,0.465-0.545,0.645-0.862C107.556,33.896,106.909,32.739,107.324,32.378z
				 M91.468,108.087c-4.945-0.875-9.811,1.568-14.911,0.935c-0.531-0.066-1.122,0.465-1.706,0.652
				c-0.432,0.14-0.971,0.358-1.336,0.217c-1.579-0.613-3.11-1.347-4.532-1.979c-1.383,0.762-2.603,1.434-3.796,2.091
				c-2.149-0.968-5.221-1.822-8.063-0.837c-1.735,0.602-3.245,0.109-4.149-0.348c-1.924-0.975-3.694-0.796-5.402-0.75
				c-2.775,2.193-3.893,4.881-3.529,8.213c0.108,0.986,0.106,2.006,0,2.994c-0.403,3.756,1.152,6.792,3.405,9.707
				c1.98,0,4.209-0.564,5.876,0.161c1.61,0.7,3.22,0.378,4.615,0.936c1.559,0.623,2.769,0.845,4.241-0.042
				c0.386-0.231,1.179,0.26,1.794,0.352c1.231,0.183,2.937,0.896,3.608,0.354c1.428-1.155,2.837-0.695,4.23-0.727
				c4.163-0.094,8.328-0.015,12.493-0.043c1.585-0.012,3.171,0.241,4.63-0.932c0.715-0.575,2.273-1.053,2.853-0.671
				c1.91,1.262,3.89,0.188,5.698,0.694c0.898-0.902,1.686-1.766,2.55-2.546c2.156-1.948,3.313-4.257,3.049-7.251
				c-0.146-1.652-0.153-3.34,0-4.992c0.325-3.524-0.856-6.287-3.698-8.292C96.581,105.993,93.753,105.589,91.468,108.087z
				 M101.02,45.488c-2.319-0.658-3.792-1.214-5.314-1.48c-3.668-0.642-6.738,0.904-9.888,2.586
				c-1.949,1.041-2.983,2.508-4.223,4.177c-1.619,2.181-0.934,4.678-1.781,6.773c-0.869,2.151-0.833,3.706-0.021,5.856
				c0.785,2.078,1.247,4.177,2.938,5.771c1.451,1.366,2.828,2.81,4.238,4.22c-0.337,1.538,0.195,2.986,0.261,4.391
				c3.819,1.311,3.468-2.759,5.382-3.8c6.481-0.047,9.578-1.744,15.363-8.417c0.352-2.178-0.537-4.542,1.051-6.555
				c0.242-0.308,0.21-1.063,0.005-1.454c-1.433-2.725-1.462-6.004-3.886-8.412C103.72,47.728,101.635,47.06,101.02,45.488z
				 M31.061,57.35c-0.454,4.308,1.596,7.549,4.411,10.615c2.572,2.801,5.598,4.228,9.331,3.999
				c9.623-0.59,15.104-4.563,15.316-14.056c0.152-6.828-5.836-15.031-14.051-15.104C36.817,42.721,30.899,49.635,31.061,57.35z
				 M60.335,91.974c0.549,1.71,2.815,2.728,4.867,4.028c2.055,1.303,4.558,0.933,6.659,1.979c3.204-1.145,6.692-1.701,9.085-4.386
				c0.661-3.196-1.308-5.797-1.769-8.672c-0.499-3.113-1.391-6.11-2.23-9.087c-0.803-2.844-1.639-5.66-1.975-7.73
				c-1.093-1.5-1.77-2.43-2.21-3.034c-1.777,0-3.082,0-4.795,0C64.888,73.412,61.775,81.786,60.335,91.974z M26.851,57.242
				c-1.319-1.282-1.825-1.774-2.84-2.76c0.131,1.302,0.018,1.949,0.253,2.122C24.664,56.896,25.282,56.888,26.851,57.242z
				 M45.522,90.019c-0.113,0.113-0.318,0.223-0.323,0.34c-0.02,0.436-0.134,1.017,0.092,1.272c0.244,0.275,0.831,0.246,1.268,0.35
				c-0.12-0.453-0.185-0.93-0.378-1.349C46.065,90.38,45.75,90.218,45.522,90.019z M55.876,71.811
				c-0.019-0.285-0.037-0.571-0.056-0.856c-0.557,0.121-1.114,0.243-1.67,0.364c0.022,0.164,0.044,0.328,0.066,0.492
				C54.77,71.811,55.323,71.811,55.876,71.811z M102.915,41.337c-0.133-0.134-0.244-0.245-0.355-0.356
				c-0.111,0.222-0.26,0.436-0.312,0.671c-0.019,0.082,0.201,0.217,0.312,0.329C102.68,41.764,102.8,41.547,102.915,41.337z
				 M101.204,43.625c0.133,0.134,0.244,0.245,0.355,0.356c0.111-0.222,0.26-0.436,0.312-0.671c0.019-0.082-0.201-0.217-0.312-0.329
				C101.439,43.199,101.319,43.416,101.204,43.625z M27.204,70.337c0.116,0.209,0.236,0.427,0.356,0.644
				c0.111-0.111,0.331-0.247,0.312-0.329c-0.052-0.235-0.201-0.449-0.312-0.671C27.448,70.093,27.337,70.204,27.204,70.337z"/>
			<path fill-rule="evenodd" clip-rule="evenodd" d="M22.034,194.219c2.813,1.382,0.26,4.105-3.269,5.41
				c-4.344,1.606-7.84-0.517-10.618-4.222c-0.058-5.527-1.878-10.602-6.015-14.875c0-1.549,0-3.194,0-5.575
				c0.199-0.142,0.948-0.54,1.531-1.108c2.43-2.366,4.773-3.627,8.473-2.033c2.318,0.999,4.835,2.051,7.591,2.244
				c3.752,0.265,6.603-1.776,9.779-3.029c3.867-1.524,7.714-3.099,11.598-4.58c3.599-1.372,7.234-2.649,11.165-4.082
				c-0.521-0.748-0.875-1.865-1.578-2.166c-4.102-1.75-7.55-4.393-11.14-6.991c-4.088-2.959-8.937-4.866-13.456-7.229
				c-1.917-1.002-3.862-1.955-5.749-3.012c-2.576-1.441-5.591-1.591-8.031-0.809c-2.945,0.945-5.771,0.555-8.741,0.872
				c-1.096-1.194-2.216-2.415-3.524-3.841c-0.4-3.098,1.552-5.412,4.019-7.164c4.128-2.934,6.488-6.791,7.293-12.001
				c1.155-0.661,2.502-1.432,3.863-2.21c2.999,0.827,5.241,2.295,6.404,5.216c1.646,4.134,4.437,7.017,8.547,9.065
				c3.456,1.723,6.498,4.268,10.454,4.953c3.314,3.232,7.696,4.83,11.383,7.473c1.429,1.023,3.031,1.644,4.434,2.553
				c1.97,1.275,4.233,1.949,6.059,3.653c1.871,1.746,4.51,2.669,6.845,3.97c3.522-1.227,7.09-2.499,10.678-3.711
				c3.072-1.039,6.2-1.918,9.242-3.033c3.031-1.113,5.928-2.617,8.99-3.625c5.715-1.881,11.273-4.154,16.896-6.264
				c4.113-1.544,7.8-3.003,9.17-7.768c0.719-2.497,2.646-4.292,6.518-5.422c2.504-0.311,5.664,0.551,7.2,5.336
				c0,0.904,0,2.566,0,3.072c1.72,3.592,2.985,6.234,4.032,8.418c-0.156,4.748-3.854,5.482-6.498,7.188
				c-0.474,0.306-1.594,0.363-1.904,0.042c-1.852-1.921-4.125-0.47-5.717-0.939c-3.56,1.634-6.691,3.374-10.029,4.519
				c-3.5,1.2-6.764,3.039-10.488,3.712c-1.135,0.205-2.57-0.144-3.691,1.321c-0.76,0.994-2.9,0.83-4.294,1.467
				c-3.373,1.541-6.821,2.85-10.345,3.996c-0.725,0.236-1.334,0.831-2.248,1.424c4.325,1.836,8.334,3.713,11.851,6.523
				c3.54,2.83,7.972,4.125,11.761,6.675c3.317,2.231,7.012,3.981,10.37,6.282c1.999,1.369,4.426,2.15,6.729,3.009
				c0.651,0.243,1.561-0.122,2.33-0.3c2.277-0.522,4.588-1.641,6.803-1.471c1.842,0.143,3.568,1.779,5.249,2.701
				c0,2.389,0,4.362,0,6.207c-1.652,2.379-3.899,4.514-4.737,7.105c-1.03,3.184-4.109,4.176-5.404,6.949
				c-2.488-0.644-4.891,0.656-7.286-0.973c-1.069-0.727-1.991-1.126-2.511-2.455c-2.135-5.461-6.553-8.342-11.578-11.057
				c-5.318-2.873-10.57-5.978-15.697-9.271c-6.094-3.916-12.745-6.969-19.189-10.328c-0.522-0.273-1.311-0.037-1.994-0.037
				c-0.925-0.951-1.853-1.905-2.952-3.037c-0.987,0.059-2.314-0.246-3.179,0.252c-4.892,2.816-10.484,3.646-15.635,5.717
				c-2.431,0.977-4.806,2.674-7.247,2.859c-2.791,0.213-4.881,1.588-7.239,2.5C32.41,184.179,28.484,187.466,22.034,194.219
				c-2.426,1.646-1.692,0.606-0.977-0.446c0.881-1.297,1.687-2.65,2.629-3.9c3.905-5.18,9.619-7.576,15.379-9.879
				c0.631-0.253,1.35-0.283,1.989-0.521c3.173-1.184,6.232-2.602,9.498-3.623c5.123-1.602,10.038-3.877,15.015-5.928
				c0.315-0.131,0.409-0.795,0.636-1.271c-1-0.549-1.892-1.037-2.37-1.3c-11.905,4.985-23.54,9.858-35.247,14.761
				c-0.632-0.798-1.206-1.521-1.901-2.399c0.982-0.495,1.839-0.664,2.271-1.185c3.392-4.084,8.471-5.371,12.947-7.393
				c5.281-2.384,11.011-3.79,16.038-6.649c-0.88-1.42-2.045-1.932-3.697-1.208c-4.649,2.037-9.341,3.977-13.988,6.02
				c-5.641,2.48-11.318,4.822-17.173,6.794c-2.93,0.987-5.414,1.132-8.218-0.063c-2.351-1-4.881-1.518-7.701-0.814
				c-0.613,1.047-1.301,2.221-1.977,3.375c1.08,2.102,1.878,4.361,3.27,6.162c1.401,1.814,2.468,3.582,2.792,5.874
				c0.193,1.362,0.802,2.667,1.352,4.399c0.37,0.37,1.076,1.076,1.87,1.871C15.69,196.894,16.998,196.894,22.034,194.219z
				 M97.902,153.806c-5.379,3.602-11.805,3.246-16.647,7.878c2.822,0.362,4.688,0.503,6.708-0.639
				c2.259-1.278,4.729-2.294,7.225-3.022c8.453-2.467,16.558-5.826,24.622-9.304c3.793-1.636,7.52-3.404,11.855-2.755
				c2.282,0.342,4.452-0.098,6.426-1.536c0.393-1.572,0.809-3.241,1.359-5.45c-1.175-0.869-2.368-1.754-3.496-2.588
				c0-2.186,0-4.157,0-5.34c-1.061-1.441-1.743-2.37-2.376-3.23c-2.577,1.178-4.722,2.086-5.824,4.84
				c-1.546,3.857-5.296,5.975-8.843,7.17c-7.306,2.463-14.296,5.761-21.805,7.713c-7.607,1.978-14.631,5.644-21.83,8.764
				c-0.168,0.073-0.149,0.58-0.271,1.121c0.993,0.521,2.046,1.074,3.172,1.666c2.097-1.003,4.188-1.983,6.263-2.998
				c3.463-1.693,6.904-3.428,10.387-5.078c0.293-0.139,0.824,0.225,2.41,0.713c-1.549,0.762-2.428,1.193-4.223,2.076
				C95.159,153.806,96.108,153.806,97.902,153.806z M4.799,137.89c1.764,2.895,3.985,2.24,6.193,1.66
				c0.751-0.197,1.856-0.79,2.2-0.498c1.439,1.225,3.127,0.591,4.625,0.988c2.52,0.67,5.139,1.373,7.363,2.669
				c5.358,3.122,10.401,6.823,16.225,9.078c6.269,2.427,11.872,6.133,17.41,9.718c6.554,4.241,13.62,7.448,20.269,11.449
				c2.238,1.348,4.771,2.216,6.986,3.597c3.691,2.301,7.266,4.763,11.312,6.464c2.269,0.953,4.559,2.014,6.559,3.424
				c4.853,3.42,10.171,6.039,15.263,9.037c1.609,0.947,3.064,1.82,3.354,3.572c0.468,2.83,2.346,4.406,4.342,6.105
				c1.617-0.486,3.104-0.934,4.832-1.454c3.945-2.786,5.691-7.546,8.408-11.538c-0.529-1.11-0.994-2.083-1.519-3.18
				c-2.915,0-5.905-0.162-8.87,0.045s-6.093-0.178-8.588-1.433c-4.08-2.052-7.211-5.534-11.396-7.446
				c-2.245-1.025-4.464-2.174-6.521-3.529c-5.974-3.934-11.87-7.977-18.562-10.66c-0.997-0.399-1.901-1.061-2.802-1.668
				c-3.737-2.525-7.562-4.896-11.714-6.688c-0.987-0.426-2.153-0.529-3.033-1.098c-5.001-3.231-9.869-6.676-14.934-9.801
				c-2.41-1.488-4.706-3.117-7.069-4.65c-2.961-1.921-6.273-3.301-9.425-4.931c-3.162-1.635-6.187-3.62-9.416-5.001
				c-2.688-1.148-4.411-3.002-5.631-4.09c-0.86-2.275-1.35-3.569-1.871-4.947c-1.47,0-2.92,0-4.323,0
				c-2.51,2.026-2.17,5.523-4.346,7.777C8.068,132.989,6.508,135.588,4.799,137.89z M54.704,168.837
				c0.134-0.134,0.245-0.244,0.356-0.355c-0.222-0.111-0.436-0.261-0.671-0.312c-0.082-0.02-0.217,0.201-0.329,0.312
				C54.277,168.601,54.494,168.722,54.704,168.837z"/>
			<path fill-rule="evenodd" clip-rule="evenodd" d="M119.06,5.981c-0.206-0.373-0.389-0.76-0.623-1.115
				c-0.595-0.904-0.749-1.641,0.623-1.885c0.206,0.373,0.389,0.76,0.623,1.115C120.277,5,120.432,5.737,119.06,5.981z"/>
			<path fill-rule="evenodd" clip-rule="evenodd" d="M118.214,8.559c-0.346,1.218-0.518,1.82-0.688,2.423
				c-0.155-0.465-0.364-0.923-0.433-1.401C117.073,9.438,117.449,9.239,118.214,8.559z"/>
			<path fill-rule="evenodd" clip-rule="evenodd" d="M115.905,13.404c0.346-1.218,0.518-1.82,0.688-2.423
				c0.155,0.465,0.364,0.923,0.433,1.401C117.046,12.525,116.67,12.724,115.905,13.404z"/>
			<path fill-rule="evenodd" clip-rule="evenodd" d="M117.905,8.404c0.346-1.218,0.518-1.82,0.688-2.423
				c0.155,0.465,0.364,0.923,0.433,1.401C119.046,7.525,118.67,7.724,117.905,8.404z"/>
			<path fill-rule="evenodd" clip-rule="evenodd" d="M115.704,17.125c0.133,0.134,0.244,0.245,0.355,0.356
				c-0.223,0.111-0.436,0.26-0.672,0.312c-0.082,0.019-0.217-0.201-0.328-0.312C115.276,17.361,115.494,17.241,115.704,17.125z"/>
			<path fill-rule="evenodd" clip-rule="evenodd" d="M118.955,2.891c0.231-0.272,0.464-0.545,0.696-0.817
				c0.105,0.105,0.211,0.21,0.316,0.315c-0.273,0.232-0.545,0.465-0.818,0.697C119.085,3.021,119.021,2.956,118.955,2.891z"/>
			<path fill-rule="evenodd" clip-rule="evenodd" fill="none" d="M91.468,108.087c2.285-2.498,5.113-2.095,7.92-2.104
				c2.842,2.005,4.023,4.768,3.698,8.292c-0.153,1.652-0.146,3.34,0,4.992c0.265,2.994-0.893,5.303-3.049,7.251
				c-0.864,0.78-1.651,1.644-2.55,2.546c-1.809-0.507-3.788,0.567-5.698-0.694c-0.579-0.382-2.138,0.096-2.853,0.671
				c-1.459,1.173-3.045,0.92-4.63,0.932c-4.165,0.028-8.33-0.051-12.493,0.043c-1.393,0.031-2.803-0.429-4.23,0.727
				c-0.671,0.543-2.376-0.171-3.608-0.354c-0.616-0.092-1.409-0.583-1.794-0.352c-1.473,0.887-2.682,0.665-4.241,0.042
				c-1.395-0.558-3.005-0.235-4.615-0.936c-1.667-0.726-3.896-0.161-5.876-0.161c-2.253-2.915-3.808-5.951-3.405-9.707
				c0.106-0.988,0.107-2.008,0-2.994c-0.364-3.332,0.754-6.02,3.529-8.213c1.708-0.046,3.478-0.225,5.402,0.75
				c0.904,0.457,2.414,0.949,4.149,0.348c2.843-0.985,5.915-0.131,8.063,0.837c1.193-0.657,2.414-1.329,3.796-2.091
				c1.421,0.633,2.953,1.366,4.532,1.979c0.365,0.142,0.904-0.077,1.336-0.217c0.584-0.188,1.175-0.719,1.706-0.652
				C81.657,109.656,86.522,107.212,91.468,108.087z M94.394,125.816c1.855-0.74,3.266-1.301,4.539-1.809
				c0.109-4.107,0.109-4.107-0.939-5.311c-3.438,0.232-7.381,0.166-5.684,5.035C93.112,124.534,93.812,125.233,94.394,125.816z
				 M79.983,121.126c-1.86,0-3.289,0-4.624,0c-1.733,2.803-1.816,3.896-0.474,5.182c1.209,1.156,2.799,0.939,5.098-0.733
				C79.983,124.188,79.983,122.757,79.983,121.126z M84.665,127.207c1.504-0.818,2.994-1.629,4.741-2.58
				c-0.587-1.654-1.097-3.094-1.591-4.484c-1.742-0.299-3.529-0.604-4.465,1.117C82.202,123.374,83.669,125.169,84.665,127.207z
				 M98.007,114.879c-0.075-4.839-0.075-4.839-4.898-4.685c0.324,1.719-2.426,3.057-0.26,5.146
				C94.788,117.21,96.054,114.955,98.007,114.879z M58.438,120.083c-0.48,1.027-0.936,2.002-1.484,3.175
				c0.891,1.276,1.835,2.631,3.335,4.78c0.592-1.395,0.924-2.178,1.257-2.96c0.122,0.151,0.244,0.304,0.366,0.456
				c0-1.787,0-3.574,0-5.451C60.65,120.083,59.531,120.083,58.438,120.083z M70.06,126.89c0-1.775-0.105-3.107,0.027-4.415
				c0.157-1.539-0.731-1.575-1.802-1.491c-0.753,0.059-1.505,0.14-2.05,0.191c0,2.127,0,3.903,0,5.715
				C67.521,126.89,68.631,126.89,70.06,126.89z M69.657,116.878c1.256-0.938,1.979-2.121,1.104-3.659
				c-0.603-1.058-1.723-1.634-2.869-1.199c-2.362,0.896-2.07,2.826-1.53,4.858C67.449,116.878,68.547,116.878,69.657,116.878z
				 M75.149,117.48c1.977-0.732,3.396-1.259,4.948-1.834c-0.079-1.264-0.155-2.477-0.255-4.068c-1.862,0.51-3.323,0.908-4.693,1.283
				C75.149,114.458,75.149,115.56,75.149,117.48z M59.434,111.982c-1.358,0.06-2.374,1.13-2.374,2.5c0,1.371,1.017,2.44,2.376,2.5
				c1.614,0.07,2.781-1.153,2.624-2.751C61.928,112.893,60.794,111.921,59.434,111.982z M52.958,112.369
				c-0.85-0.415-1.679-0.82-2.635-1.287c-0.798,0.979-1.687,2.066-2.748,3.367c1.614,0.634,2.742,1.137,3.913,1.504
				c0.406,0.127,0.918-0.082,1.47-0.147C52.958,114.57,52.958,113.453,52.958,112.369z M86.079,110.726
				c-1.879,1.934-2.549,4.197-1.514,5.267c1.061-0.047,2.279-0.101,3.489-0.155C87.962,112.724,87.962,112.724,86.079,110.726z
				 M52.907,120.055c-1.965-0.337-3.371,0.095-3.792,1.717c-0.396,1.522,0.27,2.782,2.069,3.252
				C53.402,124.083,53.209,122.221,52.907,120.055z"/>
			<path fill-rule="evenodd" clip-rule="evenodd" fill="none" d="M101.02,45.488c0.615,1.572,2.7,2.24,4.126,3.655
				c2.424,2.408,2.453,5.687,3.886,8.412c0.205,0.39,0.237,1.146-0.005,1.454c-1.588,2.014-0.699,4.377-1.05,6.555
				c-5.786,6.674-8.883,8.37-15.364,8.417c-1.914,1.041-1.562,5.111-5.382,3.8c-0.065-1.404-0.598-2.853-0.261-4.391
				c-1.41-1.41-2.787-2.854-4.238-4.22c-1.691-1.594-2.153-3.693-2.938-5.771c-0.812-2.15-0.849-3.705,0.021-5.856
				c0.848-2.095,0.162-4.592,1.781-6.773c1.239-1.668,2.273-3.136,4.223-4.177c3.149-1.683,6.22-3.229,9.888-2.586
				C97.228,44.274,98.7,44.83,101.02,45.488z M92.146,68.96c-0.594-2.271-1.066-4.08-1.539-5.888
				c-0.126,0.021-0.251,0.042-0.376,0.063c0,1.877,0,3.755,0,5.722C90.788,68.887,91.233,68.911,92.146,68.96z M99.889,47.165
				c-0.285,0.019-0.571,0.037-0.856,0.056c0.121,0.557,0.243,1.114,0.364,1.67c0.164-0.022,0.328-0.044,0.492-0.066
				C99.889,48.271,99.889,47.718,99.889,47.165z M96.415,58.837c0.21-0.116,0.428-0.236,0.645-0.356
				c-0.111-0.111-0.246-0.331-0.328-0.312c-0.236,0.052-0.449,0.201-0.672,0.312C96.171,58.593,96.282,58.704,96.415,58.837z
				 M95.915,60.625c-0.115-0.209-0.235-0.427-0.355-0.644c-0.111,0.111-0.331,0.247-0.312,0.329
				c0.053,0.235,0.201,0.449,0.312,0.671C95.671,60.87,95.782,60.759,95.915,60.625z M93.56,66.981
				c-0.111,0.111-0.331,0.247-0.312,0.329c0.053,0.235,0.201,0.449,0.312,0.671c0.111-0.111,0.331-0.247,0.312-0.329
				C93.819,67.417,93.671,67.204,93.56,66.981z M91.704,71.837c0.133-0.134,0.244-0.245,0.355-0.356
				c-0.223-0.111-0.436-0.26-0.672-0.312c-0.082-0.019-0.217,0.201-0.328,0.312C91.276,71.602,91.494,71.722,91.704,71.837z"/>
			<path fill-rule="evenodd" clip-rule="evenodd" fill="none" d="M31.061,57.35c-0.162-7.715,5.757-14.629,15.007-14.546
				c8.215,0.073,14.204,8.276,14.051,15.104c-0.212,9.493-5.693,13.466-15.316,14.056c-3.733,0.229-6.759-1.197-9.331-3.999
				C32.657,64.899,30.606,61.658,31.061,57.35z"/>
			<path fill-rule="evenodd" clip-rule="evenodd" fill="none" d="M60.335,91.974c1.44-10.188,4.553-18.562,7.633-26.902
				c1.714,0,3.018,0,4.795,0c0.44,0.604,1.117,1.533,2.21,3.034c0.336,2.071,1.172,4.886,1.975,7.73
				c0.84,2.977,1.731,5.974,2.23,9.087c0.461,2.875,2.43,5.476,1.769,8.672c-2.394,2.685-5.882,3.242-9.085,4.386
				c-2.102-1.046-4.604-0.676-6.659-1.979C63.15,94.702,60.884,93.685,60.335,91.974z M74.204,90.337
				c0.115,0.209,0.235,0.427,0.355,0.644c0.111-0.111,0.331-0.247,0.312-0.329c-0.053-0.235-0.201-0.449-0.312-0.671
				C74.448,90.093,74.337,90.204,74.204,90.337z"/>
			<path fill-rule="evenodd" clip-rule="evenodd" fill="none" d="M26.851,57.242c-1.569-0.354-2.188-0.347-2.587-0.639
				c-0.235-0.172-0.122-0.82-0.253-2.122C25.026,55.468,25.532,55.96,26.851,57.242z"/>
			<path fill-rule="evenodd" clip-rule="evenodd" fill="none" d="M45.523,90.017c0.227,0.201,0.542,0.363,0.658,0.615
				c0.193,0.419,0.259,0.896,0.378,1.349c-0.437-0.104-1.024-0.075-1.268-0.35c-0.227-0.256-0.112-0.837-0.092-1.272
				C45.204,90.241,45.409,90.132,45.523,90.017z"/>
			<path fill-rule="evenodd" clip-rule="evenodd" fill="none" d="M107.06,31.981c-0.15,0.758,0.496,1.915-1,2
				C106.21,33.224,105.563,32.067,107.06,31.981z"/>
			<path fill-rule="evenodd" clip-rule="evenodd" fill="none" d="M55.876,71.811c-0.553,0-1.107,0-1.66,0
				c-0.022-0.164-0.044-0.328-0.066-0.492c0.557-0.121,1.114-0.243,1.67-0.364C55.839,71.24,55.858,71.525,55.876,71.811z"/>
			<path fill-rule="evenodd" clip-rule="evenodd" fill="none" d="M106.164,34.072c-0.231,0.272-0.464,0.545-0.696,0.817
				c-0.105-0.105-0.211-0.21-0.316-0.315c0.273-0.232,0.545-0.465,0.818-0.697C106.034,33.942,106.099,34.007,106.164,34.072z"/>
			<path fill-rule="evenodd" clip-rule="evenodd" fill="none" d="M102.915,41.337c-0.115,0.209-0.235,0.427-0.355,0.644
				c-0.111-0.111-0.331-0.247-0.312-0.329c0.053-0.235,0.201-0.449,0.312-0.671C102.671,41.093,102.782,41.204,102.915,41.337z"/>
			<path fill-rule="evenodd" clip-rule="evenodd" fill="none" d="M101.204,43.625c0.115-0.209,0.235-0.427,0.355-0.644
				c0.111,0.111,0.331,0.247,0.312,0.329c-0.053,0.235-0.201,0.449-0.312,0.671C101.448,43.87,101.337,43.759,101.204,43.625z"/>
			<path fill-rule="evenodd" clip-rule="evenodd" fill="none" d="M27.204,70.337c0.134-0.134,0.245-0.245,0.356-0.356
				c0.111,0.222,0.26,0.436,0.312,0.671c0.019,0.082-0.201,0.217-0.312,0.329C27.439,70.764,27.319,70.547,27.204,70.337z"/>
			<path fill-rule="evenodd" clip-rule="evenodd" fill="none" d="M4.799,137.89c1.709-2.302,3.269-4.901,5.32-7.027
				c2.176-2.254,1.836-5.751,4.346-7.777c1.403,0,2.853,0,4.323,0c0.521,1.378,1.011,2.672,1.871,4.947
				c1.22,1.088,2.943,2.941,5.631,4.09c3.229,1.381,6.254,3.366,9.416,5.001c3.152,1.63,6.464,3.01,9.425,4.931
				c2.363,1.533,4.659,3.162,7.069,4.65c5.064,3.125,9.932,6.569,14.934,9.801c0.88,0.568,2.045,0.672,3.033,1.098
				c4.152,1.791,7.977,4.162,11.714,6.688c0.9,0.607,1.805,1.269,2.802,1.668c6.692,2.684,12.589,6.727,18.562,10.66
				c2.058,1.355,4.276,2.504,6.521,3.529c4.185,1.912,7.315,5.395,11.396,7.446c2.495,1.255,5.623,1.64,8.588,1.433
				s5.955-0.045,8.87-0.045c0.524,1.097,0.989,2.069,1.519,3.18c-2.717,3.992-4.463,8.752-8.408,11.538
				c-1.728,0.521-3.215,0.968-4.832,1.454c-1.996-1.699-3.874-3.275-4.342-6.105c-0.289-1.752-1.744-2.625-3.354-3.572
				c-5.092-2.998-10.41-5.617-15.263-9.037c-2-1.41-4.29-2.471-6.559-3.424c-4.046-1.701-7.62-4.163-11.312-6.464
				c-2.216-1.381-4.748-2.249-6.986-3.597c-6.648-4.001-13.714-7.208-20.269-11.449c-5.538-3.585-11.141-7.291-17.41-9.718
				c-5.824-2.255-10.866-5.956-16.225-9.078c-2.224-1.296-4.843-1.999-7.363-2.669c-1.497-0.397-3.186,0.236-4.625-0.988
				c-0.344-0.292-1.449,0.301-2.2,0.498C8.784,140.13,6.563,140.785,4.799,137.89z M124.482,192.136
				c-0.681-0.766-0.879-1.142-1.021-1.121c-0.478,0.067-0.936,0.277-1.401,0.432c0.603,0.172,1.205,0.344,0-0.465
				c-0.086-1.496-1.242-0.85-1.326-0.691c-4.075-3.395-8.058-5.236-12.585-5.914c3.739,2.362,7.337,5.027,11.911,5.605
				C120.146,191.478,121.302,190.832,124.482,192.136z M104.482,182.136c-0.681-0.766-0.879-1.142-1.021-1.121
				c-0.478,0.067-0.937,0.277-1.401,0.432c0.603,0.172,1.205,0.344,0-0.465c-0.839-1.052-1.678-2.104-2.395-3
				c-1.408,0-2.506,0-2.83,0.202c-2.374-2.094-3.756-4.219-6.146-5.437c-0.543,2.756,0.868,4.059,5.371,5.234
				C97.782,179.535,99.614,180.871,104.482,182.136z M18.212,137.105c1.154,0.93,1.154,0.93,2.813,0c-1.135,0-2.05,0-2.162-0.499
				c-3.194-0.479-5.493-1.917-8.114-1.522c-0.738,0.111-1.291,1.452-2.52,2.949C12.14,137.508,15.079,137.115,18.212,137.105z
				 M66.969,159.085c0.065-0.064,0.13-0.129,0.195-0.194c-0.232-0.272-0.464-0.545-0.697-0.817c-0.105,0.105-0.21,0.211-0.315,0.315
				c0.272,0.232,0.545,0.465,0.908,0.593c-0.432,2.482,2.206,3.007,3.016,4.705c0.228,0.478,0.554,1.053,0.99,1.264
				c2.75,1.337,5.492,2.721,8.344,3.809c1.676,0.641,3.49,0.573,4.746-1.627c-4.533-2.312-9.055-4.618-13.685-6.979
				c-0.201,0.175-0.543,0.474-0.943,0.821c-0.31-0.672-0.62-1.344-0.92-1.992C68.052,158.982,67.556,158.982,66.969,159.085z
				 M56.755,157.976c0.188-0.463,0.338-0.662,0.291-0.74c-1.547-2.527-3.573-4.75-4.763-7.509c-0.123-0.284-0.413-0.579-0.697-0.696
				c-5.047-2.094-9.25-5.68-14.15-8.004c-1.566-0.742-3.119-1.346-4.455-2.538c-0.884-0.789-2.154-1.146-3.331-1.736
				c-1.034,1.223-1.948,2.304-3.249,3.843c4.358,1.749,8.346,2.87,12.575,3.695C42.771,151.539,50.375,153.861,56.755,157.976z
				 M13.693,130.785c3.524,1.361,6.789,2.621,10.103,3.901c0.317-0.294,0.798-0.741,1.375-1.276
				c-3.436-1.225-6.28-3.051-7.614-6.359c-0.849,0-1.493,0-2.099,0C14.965,128.094,14.506,129.066,13.693,130.785z M128.215,193.214
				c-0.218,1.92-0.422,3.713-0.655,5.771c0.139,0.129,0.588,0.547,1.443,1.344c0-1.657,0-2.897,0-3.843
				c2.27-1.125,4.148-2.059,6.075-3.016c-2.878-1.912-5.85-1.759-10.049-0.981C126.607,192.847,127.057,192.951,128.215,193.214z"/>
			<path fill-rule="evenodd" clip-rule="evenodd" fill="none" d="M97.55,153.742c-1.441,0.064-2.391,0.064-4.535,0.064
				c1.795-0.883,2.674-1.314,4.223-2.076c-1.586-0.488-2.117-0.852-2.41-0.713c-3.482,1.65-6.924,3.385-10.387,5.078
				c-2.074,1.015-4.166,1.995-6.263,2.998c-1.126-0.592-2.179-1.145-3.172-1.666c0.121-0.541,0.103-1.048,0.271-1.121
				c7.199-3.12,14.223-6.786,21.83-8.764c7.509-1.952,14.499-5.25,21.805-7.713c3.547-1.195,7.297-3.312,8.843-7.17
				c1.103-2.754,3.247-3.662,5.824-4.84c0.633,0.86,1.315,1.789,2.376,3.23c0,1.183,0,3.154,0,5.34
				c1.128,0.834,2.321,1.719,3.496,2.588c-0.551,2.209-0.967,3.878-1.359,5.45c-1.974,1.438-4.144,1.878-6.426,1.536
				c-4.336-0.649-8.062,1.119-11.855,2.755c-8.064,3.478-16.169,6.837-24.622,9.304c-2.495,0.729-4.966,1.744-7.225,3.022
				c-2.02,1.142-3.886,1.001-6.708,0.639C86.098,157.052,92.523,157.408,97.55,153.742c-0.361,0.166-0.369,0.396-0.377,0.625
				c3.979-1.18,7.957-2.359,11.675-3.462c-0.868-1.138-1.644-2.155-2.517-3.302C103.104,149.75,100.15,151.714,97.55,153.742z
				 M123.06,139.982c0.758-0.15,1.914,0.496,2.05-0.852c1.153-0.385,2.32-0.732,3.454-1.168c1.126-0.433,2.218-0.955,3.23-1.396
				c0.301-1.432,0.604-2.881,0.916-4.361c-1.197-0.565-2.729-0.457-3.143,0.881c-0.803,2.604-2.934,3.996-4.508,5.896
				c-0.758,0.15-1.914-0.496-1.896,1.09c-0.065-0.064-0.13-0.13-0.194-0.195c-0.273,0.232-0.545,0.465-0.818,0.697
				c0.105,0.105,0.211,0.211,0.316,0.315C122.7,140.617,122.933,140.344,123.06,139.982z M125.294,141.775
				c-3.719,2.31-7.939,3.152-12.057,3.387c0,1.125,0,1.9,0,2.896c4.723-1.563,9.217-3.051,13.844-4.582
				C126.411,142.837,125.94,142.391,125.294,141.775z M133.922,138.81c-2.654,0.863-4.694,1.658-5.603,3.93c2,0,3.871,0,5.603,0
				C133.922,141.4,133.922,140.302,133.922,138.81z"/>
			<path fill-rule="evenodd" clip-rule="evenodd" fill="none" d="M18.895,196.894c-1.896,0-3.204,0-4.423,0
				c-0.794-0.795-1.5-1.501-1.87-1.871c-0.55-1.732-1.159-3.037-1.352-4.399c-0.324-2.292-1.391-4.06-2.792-5.874
				c-1.392-1.801-2.189-4.061-3.27-6.162c0.676-1.154,1.364-2.328,1.977-3.375c2.82-0.703,5.351-0.186,7.701,0.814
				c2.804,1.195,5.288,1.051,8.218,0.063c5.855-1.972,11.533-4.313,17.173-6.794c4.646-2.043,9.338-3.982,13.988-6.02
				c1.652-0.724,2.817-0.212,3.697,1.208c-5.027,2.859-10.757,4.266-16.038,6.649c-4.476,2.021-9.555,3.309-12.947,7.393
				c-0.433,0.521-1.289,0.689-2.271,1.185c0.695,0.878,1.269,1.602,1.901,2.399c11.708-4.902,23.342-9.775,35.247-14.761
				c0.478,0.263,1.37,0.751,2.37,1.3c-0.227,0.477-0.321,1.141-0.636,1.271c-4.977,2.051-9.892,4.326-15.015,5.928
				c-3.265,1.021-6.325,2.439-9.498,3.623c-0.639,0.238-1.358,0.269-1.989,0.521c-5.76,2.303-11.475,4.699-15.379,9.879
				c-0.942,1.25-1.748,2.604-2.629,3.9C20.342,194.826,19.608,195.866,18.895,196.894z M24.111,177.457
				c-3.078,2.059-5.862,1.438-8.56,1.516c-2.059-2.285-4.06-0.407-6.065,0.12c-0.198,0.052-0.288,0.515-0.617,1.155
				c0.989,0.799,2.081,1.682,3.167,2.56c4.448,1.267,8.022-1.384,11.816-3.184C24.063,179.523,23.969,178.781,24.111,177.457z
				 M25.652,182.625c-4.121,1.903-7.274,3.359-10.308,4.761c-0.44,0.852-0.859,1.662-1.378,2.667
				c0.606,0.985,1.273,2.071,2.199,3.577C19.343,189.945,22.159,186.677,25.652,182.625z"/>
			<path fill-rule="evenodd" clip-rule="evenodd" fill="none" d="M54.704,168.837c-0.209-0.115-0.427-0.236-0.644-0.355
				c0.111-0.111,0.247-0.332,0.329-0.312c0.235,0.052,0.449,0.201,0.671,0.312C54.948,168.593,54.837,168.704,54.704,168.837z"/>
			<path fill-rule="evenodd" clip-rule="evenodd" d="M94.394,125.816c-0.582-0.583-1.281-1.282-2.084-2.084
				c-1.697-4.869,2.246-4.803,5.684-5.035c1.049,1.203,1.049,1.203,0.939,5.311C97.659,124.515,96.249,125.076,94.394,125.816z"/>
			<path fill-rule="evenodd" clip-rule="evenodd" d="M79.983,121.126c0,1.631,0,3.062,0,4.448c-2.299,1.673-3.889,1.89-5.098,0.733
				c-1.343-1.285-1.26-2.379,0.474-5.182C76.694,121.126,78.123,121.126,79.983,121.126z"/>
			<path fill-rule="evenodd" clip-rule="evenodd" d="M84.665,127.207c-0.996-2.037-2.463-3.833-1.314-5.947
				c0.936-1.721,2.723-1.416,4.465-1.117c0.494,1.391,1.004,2.83,1.591,4.484C87.659,125.578,86.169,126.388,84.665,127.207z"/>
			<path fill-rule="evenodd" clip-rule="evenodd" d="M98.007,114.879c-1.953,0.075-3.219,2.331-5.158,0.461
				c-2.166-2.089,0.584-3.427,0.26-5.146C97.932,110.041,97.932,110.041,98.007,114.879z"/>
			<path fill-rule="evenodd" clip-rule="evenodd" d="M58.438,120.083c1.093,0,2.212,0,3.474,0c0,1.877,0,3.664,0,5.451
				c-0.122-0.152-0.244-0.305-0.366-0.456c-0.333,0.782-0.665,1.565-1.257,2.96c-1.5-2.149-2.445-3.504-3.335-4.78
				C57.502,122.085,57.958,121.111,58.438,120.083z"/>
			<path fill-rule="evenodd" clip-rule="evenodd" d="M70.06,126.89c-1.429,0-2.539,0-3.825,0c0-1.812,0-3.588,0-5.715
				c0.545-0.052,1.297-0.133,2.05-0.191c1.07-0.084,1.958-0.048,1.802,1.491C69.954,123.783,70.06,125.115,70.06,126.89z"/>
			<path fill-rule="evenodd" clip-rule="evenodd" d="M69.657,116.878c-1.11,0-2.208,0-3.295,0c-0.541-2.032-0.832-3.963,1.53-4.858
				c1.146-0.435,2.266,0.142,2.869,1.199C71.637,114.757,70.914,115.94,69.657,116.878z"/>
			<path fill-rule="evenodd" clip-rule="evenodd" d="M75.149,117.48c0-1.92,0-3.022,0-4.619c1.37-0.375,2.831-0.773,4.693-1.283
				c0.1,1.592,0.176,2.805,0.255,4.068C78.546,116.221,77.126,116.748,75.149,117.48z"/>
			<path fill-rule="evenodd" clip-rule="evenodd" d="M59.434,111.982c1.36-0.061,2.495,0.911,2.626,2.249
				c0.157,1.598-1.01,2.821-2.624,2.751c-1.359-0.06-2.376-1.129-2.376-2.5C57.06,113.112,58.076,112.042,59.434,111.982z"/>
			<path fill-rule="evenodd" clip-rule="evenodd" d="M52.958,112.369c0,1.084,0,2.201,0,3.437c-0.551,0.065-1.063,0.274-1.47,0.147
				c-1.171-0.367-2.299-0.87-3.913-1.504c1.061-1.301,1.949-2.389,2.748-3.367C51.279,111.548,52.107,111.954,52.958,112.369z"/>
			<path fill-rule="evenodd" clip-rule="evenodd" d="M86.079,110.726c1.883,1.998,1.883,1.998,1.976,5.111
				c-1.21,0.055-2.429,0.108-3.489,0.155C83.53,114.923,84.2,112.66,86.079,110.726z"/>
			<path fill-rule="evenodd" clip-rule="evenodd" d="M52.907,120.055c0.303,2.166,0.496,4.028-1.724,4.969
				c-1.799-0.47-2.464-1.729-2.069-3.252C49.536,120.15,50.941,119.718,52.907,120.055z"/>
			<path fill-rule="evenodd" clip-rule="evenodd" d="M92.146,68.96c-0.913-0.049-1.358-0.073-1.915-0.103c0-1.967,0-3.845,0-5.722
				c0.125-0.021,0.25-0.042,0.376-0.063C91.08,64.88,91.553,66.688,92.146,68.96z"/>
			<path fill-rule="evenodd" clip-rule="evenodd" d="M99.889,47.165c0,0.553,0,1.107,0,1.66c-0.164,0.022-0.328,0.044-0.492,0.066
				c-0.121-0.557-0.243-1.114-0.364-1.67C99.317,47.202,99.604,47.183,99.889,47.165z"/>
			<path fill-rule="evenodd" clip-rule="evenodd" d="M96.415,58.837c-0.133-0.134-0.244-0.245-0.355-0.356
				c0.223-0.111,0.436-0.26,0.672-0.312c0.082-0.019,0.217,0.201,0.328,0.312C96.843,58.602,96.625,58.722,96.415,58.837z"/>
			<path fill-rule="evenodd" clip-rule="evenodd" d="M95.915,60.625c-0.133,0.134-0.244,0.245-0.355,0.356
				c-0.111-0.222-0.26-0.436-0.312-0.671c-0.019-0.082,0.201-0.217,0.312-0.329C95.68,60.199,95.8,60.416,95.915,60.625z"/>
			<path fill-rule="evenodd" clip-rule="evenodd" d="M93.56,66.981c0.111,0.222,0.26,0.436,0.312,0.671
				c0.019,0.082-0.201,0.217-0.312,0.329c-0.111-0.222-0.26-0.436-0.312-0.671C93.229,67.228,93.448,67.093,93.56,66.981z"/>
			<path fill-rule="evenodd" clip-rule="evenodd" d="M91.704,71.837c-0.21-0.116-0.428-0.236-0.645-0.356
				c0.111-0.111,0.246-0.331,0.328-0.312c0.236,0.052,0.449,0.201,0.672,0.312C91.948,71.593,91.837,71.704,91.704,71.837z"/>
			<path fill-rule="evenodd" clip-rule="evenodd" d="M74.204,90.337c0.133-0.134,0.244-0.245,0.355-0.356
				c0.111,0.222,0.26,0.436,0.312,0.671c0.019,0.082-0.201,0.217-0.312,0.329C74.439,90.764,74.319,90.547,74.204,90.337z"/>
			<path fill-rule="evenodd" clip-rule="evenodd" d="M56.755,157.976c-6.381-4.115-13.984-6.438-17.778-13.686
				c-4.229-0.825-8.217-1.946-12.575-3.695c1.301-1.539,2.214-2.62,3.249-3.843c1.177,0.591,2.446,0.947,3.331,1.736
				c1.336,1.192,2.889,1.796,4.455,2.538c4.901,2.324,9.103,5.91,14.15,8.004c0.284,0.117,0.574,0.412,0.697,0.696
				c1.19,2.759,3.215,4.981,4.763,7.509C57.094,157.314,56.944,157.513,56.755,157.976z"/>
			<path fill-rule="evenodd" clip-rule="evenodd" d="M67.06,158.982c0.496,0,0.993,0,1.548,0c0.3,0.648,0.61,1.32,0.92,1.992
				c0.399-0.348,0.742-0.646,0.943-0.821c4.63,2.361,9.151,4.667,13.685,6.979c-1.256,2.2-3.07,2.268-4.746,1.627
				c-2.852-1.088-5.594-2.472-8.344-3.809c-0.436-0.211-0.762-0.786-0.99-1.264C69.265,161.989,66.628,161.464,67.06,158.982z"/>
			<path fill-rule="evenodd" clip-rule="evenodd" d="M13.693,130.785c0.813-1.719,1.272-2.69,1.765-3.734c0.606,0,1.25,0,2.099,0
				c1.334,3.309,4.179,5.135,7.614,6.359c-0.577,0.535-1.059,0.982-1.375,1.276C20.482,133.406,17.218,132.146,13.693,130.785z"/>
			<path fill-rule="evenodd" clip-rule="evenodd" d="M128.215,193.214c-1.158-0.264-1.607-0.367-3.186-0.726
				c4.199-0.777,7.171-0.931,10.049,0.981c-1.927,0.957-3.806,1.891-6.075,3.016c0,0.945,0,2.186,0,3.843
				c-0.855-0.797-1.305-1.215-1.443-1.344C127.793,196.927,127.997,195.134,128.215,193.214z"/>
			<path fill-rule="evenodd" clip-rule="evenodd" d="M120.733,190.291c-5.248-0.887-8.846-3.552-12.585-5.914
				C112.676,185.054,116.658,186.896,120.733,190.291z"/>
			<path fill-rule="evenodd" clip-rule="evenodd" d="M18.864,136.606c-3.785,0.509-6.724,0.902-10.634,1.427
				c1.229-1.497,1.782-2.838,2.52-2.949C13.371,134.689,15.669,136.126,18.864,136.606z"/>
			<path fill-rule="evenodd" clip-rule="evenodd" d="M96.835,178.184c-5.278-1.378-6.689-2.681-6.146-5.437
				C93.079,173.965,94.461,176.09,96.835,178.184z"/>
			<path fill-rule="evenodd" clip-rule="evenodd" d="M96.06,177.982c1.1,0,2.197,0,3.605,0c0.717,0.896,1.556,1.948,2.395,3
				C99.614,180.871,97.782,179.535,96.06,177.982z"/>
			<path fill-rule="evenodd" clip-rule="evenodd" d="M18.212,137.105c0.763,0,1.679,0,2.813,0
				C19.367,138.035,19.367,138.035,18.212,137.105z"/>
			<path fill-rule="evenodd" clip-rule="evenodd" d="M104.482,182.136c-1.218-0.346-1.82-0.518-2.423-0.689
				c0.465-0.154,0.924-0.364,1.401-0.432C103.604,180.995,103.802,181.371,104.482,182.136z"/>
			<path fill-rule="evenodd" clip-rule="evenodd" d="M120.06,189.982c0.758,0.15,1.914-0.496,2,1
				C121.302,190.832,120.146,191.478,120.06,189.982z"/>
			<path fill-rule="evenodd" clip-rule="evenodd" d="M124.482,192.136c-1.218-0.346-1.82-0.518-2.423-0.689
				c0.466-0.154,0.924-0.364,1.401-0.432C123.604,190.995,123.802,191.371,124.482,192.136z"/>
			<path fill-rule="evenodd" clip-rule="evenodd" d="M66.969,159.085c-0.272-0.231-0.545-0.464-0.817-0.696
				c0.105-0.104,0.21-0.21,0.315-0.315c0.232,0.272,0.465,0.545,0.697,0.817C67.099,158.957,67.034,159.021,66.969,159.085z"/>
			<path fill-rule="evenodd" clip-rule="evenodd" d="M125.294,141.775c0.646,0.616,1.117,1.062,1.787,1.701
				c-4.627,1.531-9.121,3.019-13.844,4.582c0-0.996,0-1.771,0-2.896C117.354,144.927,121.575,144.084,125.294,141.775z"/>
			<path fill-rule="evenodd" clip-rule="evenodd" d="M97.196,153.678c2.954-1.964,5.908-3.929,9.135-6.075
				c0.873,1.146,1.648,2.164,2.517,3.302c-3.718,1.103-7.696,2.282-11.675,3.462C97.181,154.137,97.188,153.908,97.196,153.678z"/>
			<path fill-rule="evenodd" clip-rule="evenodd" d="M125.109,139.13c1.524-2.049,3.655-3.441,4.458-6.045
				c0.414-1.338,1.945-1.446,3.143-0.881c-0.312,1.48-0.615,2.93-0.916,4.361c-1.013,0.441-2.104,0.964-3.23,1.396
				C127.43,138.398,126.263,138.746,125.109,139.13z"/>
			<path fill-rule="evenodd" clip-rule="evenodd" d="M133.922,138.81c0,1.492,0,2.59,0,3.93c-1.731,0-3.603,0-5.603,0
				C129.228,140.468,131.268,139.673,133.922,138.81z M132.915,141.337c-0.133-0.134-0.244-0.244-0.355-0.355
				c-0.111,0.222-0.26,0.436-0.312,0.671c-0.019,0.082,0.201,0.218,0.312,0.329C132.68,141.764,132.8,141.546,132.915,141.337z"/>
			<path fill-rule="evenodd" clip-rule="evenodd" d="M123.06,139.982c0.086-1.496,1.242-0.85,2-1
				C124.974,140.478,123.817,139.832,123.06,139.982z"/>
			<path fill-rule="evenodd" clip-rule="evenodd" d="M123.164,140.072c-0.231,0.272-0.464,0.545-0.696,0.817
				c-0.105-0.104-0.211-0.21-0.316-0.315c0.273-0.232,0.545-0.465,0.818-0.697C123.034,139.942,123.099,140.007,123.164,140.072z"/>
			<path fill-rule="evenodd" clip-rule="evenodd" d="M24.111,177.457c-0.142,1.324-0.048,2.066-0.259,2.167
				c-3.794,1.8-7.369,4.45-11.816,3.184c-1.086-0.878-2.178-1.761-3.167-2.56c0.33-0.641,0.419-1.104,0.617-1.155
				c2.005-0.527,4.006-2.405,6.065-0.12C18.249,178.894,21.033,179.515,24.111,177.457z"/>
			<path fill-rule="evenodd" clip-rule="evenodd" d="M25.652,182.625c-3.493,4.052-6.31,7.319-9.487,11.005
				c-0.925-1.506-1.593-2.592-2.199-3.577c0.519-1.005,0.938-1.815,1.378-2.667C18.378,185.985,21.531,184.529,25.652,182.625z"/>
			<path fill-rule="evenodd" clip-rule="evenodd" fill="none" d="M132.915,141.337c-0.115,0.209-0.235,0.427-0.355,0.645
				c-0.111-0.111-0.331-0.247-0.312-0.329c0.053-0.235,0.201-0.449,0.312-0.671C132.671,141.093,132.782,141.204,132.915,141.337z"
				/>
		</g>
	</g>
</g>
</svg>
