<?xml version="1.0" encoding="utf-8"?>
<!-- Generator: Adobe Illustrator 16.0.5, SVG Export Plug-In . SVG Version: 6.00 Build 0)  -->
<!DOCTYPE svg PUBLIC "-//W3C//DTD SVG 1.1//EN" "http://www.w3.org/Graphics/SVG/1.1/DTD/svg11.dtd">
<svg version="1.1" xmlns="http://www.w3.org/2000/svg" xmlns:xlink="http://www.w3.org/1999/xlink" x="0px" y="0px" width="1000px"
	 height="1000px" viewBox="-147.5 570.5 1000 1000" enable-background="new -147.5 570.5 1000 1000" xml:space="preserve">
<g id="Layer_1" display="none">
	<rect x="-147.5" y="570.5" display="inline" fill="#007807" width="1000" height="1000"/>
</g>
<g id="Layer_2" display="none">
	<g id="l5WMpz_1_" display="inline">
		<g>
			<g>
				<path fill="none" d="M553.438,663.748c-3.248,2.897-4.854,3.746-4.77,4.35c0.289,2.036,1.182,3.986,1.848,5.967
					c0.727-2.571,1.461-5.134-6.902,10.318c3.256-2.895,4.859-3.743,4.775-4.35c-0.285-2.036-1.182-3.982-1.846-5.966
					C545.811,676.632,545.08,679.203,553.438,663.748z M557.047,639.988c-5.842,1.045-5.188,4.176-2.65,8.031
					c0.994,1.505,1.773,3.158-2.264,15.066c3.258-2.892,4.861-3.743,4.775-4.347c-0.287-2.036-1.18-3.989-1.844-5.97
					c-0.73,2.568-1.465,5.131,1.982,0c5.846-1.044,5.189-4.178,2.656-8.027c-0.992-1.511-1.775-3.162-3.1-5.133
					c0.273,0.273,0.547,0.55,0.82,0.83c1.17-0.989,2.322-1.983,3.488-2.97c-0.447-0.45-0.898-0.896-1.346-1.34
					C558.574,637.287,557.588,638.449,557.047,639.988z M157.16,1443.137c14.098-17.373,30.824-31.374,51.682-39.441
					c10.047-3.887,18.951-9.744,30.834-10.649c10.396-0.789,20.51-8.024,30.867-12.178c21.932-8.824,45.76-12.355,66.594-24.351
					c3.684-2.12,9.336-0.824,13.535-1.069c4.686,4.819,8.635,8.88,12.576,12.931c2.918,0,6.27-1.004,8.494,0.158
					c27.447,14.309,55.777,27.311,81.729,43.987c21.836,14.028,44.209,27.251,66.859,39.485
					c21.404,11.566,40.221,23.841,49.316,47.103c2.209,5.652,6.137,7.359,10.691,10.453c10.203,6.939,20.434,1.399,31.035,4.147
					c5.512-11.814,18.629-16.043,23.016-29.604c3.566-11.037,13.139-20.128,20.172-30.264c0-7.857,0-16.255,0-26.437
					c-7.156-3.927-14.51-10.897-22.352-11.504c-9.432-0.725-19.275,4.045-28.979,6.271c-3.273,0.752-7.152,2.31-9.922,1.271
					c-9.814-3.647-20.146-6.98-28.662-12.812c-14.305-9.801-30.043-17.256-44.172-26.757c-16.135-10.86-35.014-16.379-50.092-28.43
					c-14.975-11.979-32.049-19.97-50.477-27.783c3.895-2.53,6.488-5.064,9.572-6.068c15.012-4.882,29.695-10.453,44.062-17.017
					c5.941-2.721,15.057-2.018,18.293-6.252c4.775-6.24,10.895-4.754,15.721-5.628c15.867-2.863,29.766-10.701,44.67-15.81
					c14.223-4.878,27.557-12.29,42.713-19.251c6.785,2.002,16.467-4.176,24.352,4.001c1.326,1.368,6.096,1.129,8.111-0.18
					c11.268-7.264,27.012-10.391,27.676-30.615c-4.457-9.3-9.846-20.558-17.17-35.854c0-2.154,0-9.233,0-13.086
					c-6.545-20.377-20.004-24.049-30.672-22.728c-16.488,4.812-24.701,12.461-27.764,23.094
					c-5.83,20.297-21.537,26.512-39.061,33.088c-23.945,8.981-47.625,18.666-71.963,26.682
					c-13.039,4.294-25.383,10.695-38.291,15.439c-12.953,4.751-26.281,8.494-39.361,12.922
					c-15.283,5.161-30.479,10.577-45.486,15.807c-9.941-5.547-21.182-9.474-29.15-16.91c-7.779-7.264-17.416-10.133-25.805-15.562
					c-5.977-3.874-12.801-6.517-18.889-10.876c-15.703-11.254-34.367-18.057-48.484-31.827
					c-16.846-2.926-29.805-13.758-44.525-21.102c-17.508-8.724-29.397-21.005-36.405-38.608
					c-4.953-12.437-14.504-18.688-27.276-22.218c-5.795,3.32-11.535,6.604-16.453,9.418c-3.43,22.195-13.478,38.617-31.063,51.116
					c-10.502,7.465-18.822,17.317-17.119,30.513c5.571,6.075,10.341,11.273,15.011,16.363c12.647-1.353,24.689,0.308,37.228-3.716
					c10.397-3.333,23.237-2.692,34.209,3.451c8.037,4.499,16.319,8.557,24.487,12.822c19.248,10.066,39.898,18.194,57.312,30.792
					c15.291,11.071,29.979,22.323,47.449,29.778c2.994,1.281,4.502,6.038,6.719,9.222c-16.736,6.106-32.221,11.548-47.555,17.387
					c-16.537,6.312-32.924,13.018-49.396,19.513c-13.531,5.335-25.669,14.027-41.656,12.896
					c-11.737-0.818-22.457-5.299-32.328-9.558c-15.76-6.787-25.737-1.411-36.09,8.659c-2.481,2.422-5.671,4.119-6.517,4.723
					c0,10.139,0,17.149,0,23.747c17.613,18.2,25.37,39.812,25.613,63.356c11.833,15.775,26.723,24.823,45.231,17.977
					C144.895,1472.017,155.773,1460.411,157.16,1443.137z M508.188,766.886c-3.189-8.071-4.85-12.293-6.074-15.396
					c10.4-16.298,20.42-32.005,30.254-47.4c-18.613-20.931-29.67-28.653-56.068-40.567c-20.367-9.19-39.189-21.229-62.303-24.845
					c-10.779-1.688-21.217-7.13-32.988-7.446c-11.506-0.305-22.92-3.265-34.441-3.861c-17.977-0.93-35.369,7.061-53.586,4.101
					c-12.938,7.226-29.359,3.097-41.541,12.778c-8.916-1.237-14.484,6.588-22.061,8.332c-26.266,6.035-44.629,24.229-63.961,40.782
					c-6.072,5.198-10.217,12.663-15.207,19.127c-4.972,6.442-10.288,12.669-14.743,19.456
					c-7.279,11.091-11.333,23.673-15.354,36.199c-6.071,18.969-12.053,38.192-14.124,57.889
					c-2.002,18.943-0.964,38.291-0.211,57.425c0.361,9.296,0.491,20.314,5.36,27.341c8.395,12.126,15.045,25.312,23.683,37.129
					c11.289,15.434,23.054,30.696,36.149,44.591c19.133,20.309,24.275,45.878,27.852,71.468c3.445,24.674-1.318,49.827,3.986,74.97
					c3.195,15.153,6.902,29.717,13.256,43.608c2.469,5.41,5.857,12.355,10.602,14.311c6.986,2.876,10.979,8.155,16.016,12.664
					c6.631,5.932,11.793,15.172,20.908,16.043c10.117,0.97,15.848,9.109,25.377,11.326c13.008,3.019,27.064,3.376,38.92,8.525
					c14.688,6.386,28.963,1.566,43.213,3.646c4.48-6.479,10.301,2.6,13.197-0.333c4.883-4.965,10.186-3.6,15.57-3.927
					c6.729-0.404,14.057,1.909,19.531-4.253c31.869-2.593,55.914-19.363,75.9-42.771c16.963-19.883,28.521-42.498,27.49-69.389
					c-0.766-20.007,2.916-40.039-3.502-60.164c-3.283-10.31,0.121-22.578-0.727-33.867c-1.629-21.872,6.752-39.222,20.693-55.479
					c9.98-11.622,18.301-24.832,26.16-38.049c14.295-24.033,20.209-50.7,21.311-78.38c0.51-12.633,1.746-25.868-1.285-37.825
					c-2.801-11.003-7.953-21.325-7.176-33.159c0.121-1.915-0.506-4.01-1.271-5.823c-6.584-15.723-12.561-31.765-20.234-46.946
					c-4.271-8.441-7.045-19.181-18.729-22.88C527.502,731.818,513.604,744.967,508.188,766.886z M542.748,700.233
					c-0.889,0.497-1.82,1.001-2.742,1.517c0.473,0.473,1.045,1.409,1.396,1.331c1.004-0.221,1.912-0.858,2.857-1.331
					C543.793,701.277,543.314,700.806,542.748,700.233z"/>
				<path d="M507.062,765.201c6.541-20.234,20.439-33.383,30.967-49.37c11.684,3.703,14.463,14.436,18.729,22.88
					c7.674,15.179,13.643,31.228,20.232,46.947c0.764,1.81,1.395,3.911,1.271,5.823c-0.781,11.827,4.371,22.152,7.176,33.159
					c3.033,11.96,1.797,25.195,1.287,37.824c-1.107,27.681-7.008,54.351-21.311,78.381c-7.859,13.213-16.18,26.427-26.16,38.049
					c-13.941,16.254-22.322,33.605-20.693,55.479c0.846,11.289-2.568,23.561,0.725,33.87c6.42,20.122,2.732,40.153,3.504,60.161
					c1.025,26.887-10.527,49.506-27.49,69.389c-19.98,23.411-44.037,40.175-75.902,42.769c-5.473,6.165-12.801,3.849-19.525,4.259
					c-5.395,0.327-10.691-1.038-15.574,3.924c-2.896,2.936-8.717-6.149-13.197,0.33c-14.256-2.074-28.523,2.742-43.213-3.645
					c-11.855-5.148-25.912-5.503-38.924-8.524c-9.529-2.214-15.256-10.356-25.373-11.323c-9.119-0.865-14.279-10.114-20.908-16.05
					c-5.037-4.502-9.029-9.781-16.016-12.66c-4.744-1.955-8.133-8.907-10.607-14.311c-6.348-13.889-10.055-28.458-13.258-43.605
					c-5.303-25.14-0.541-50.299-3.979-74.973c-3.576-25.587-8.719-51.163-27.857-71.472c-13.096-13.891-24.854-29.156-36.144-44.59
					c-8.641-11.809-15.294-25-23.683-37.129c-4.875-7.026-4.999-18.045-5.36-27.335c-0.746-19.137-1.791-38.479,0.211-57.432
					c2.071-19.695,8.053-38.919,14.128-57.885c4.023-12.523,8.077-25.105,15.355-36.196c4.455-6.787,9.771-13.014,14.746-19.456
					c4.981-6.464,9.136-13.929,15.21-19.127c19.334-16.547,37.695-34.747,63.957-40.782c7.574-1.738,13.143-9.566,22.062-8.332
					c12.178-9.682,28.602-5.553,41.541-12.778c18.213,2.953,35.611-5.037,53.578-4.107c11.523,0.597,22.936,3.557,34.443,3.861
					c11.768,0.317,22.211,5.759,32.99,7.443c23.113,3.619,41.936,15.657,62.299,24.848c26.402,11.911,37.459,19.631,56.07,40.562
					c-9.824,15.399-19.85,31.104-30.248,47.401C503.338,754.593,504.998,758.814,507.062,765.201
					c-7.506-1.328-4.75,3.603-5.166,7.022c-0.062-0.087-0.33-0.363-0.604-0.64c-1.17,0.985-2.322,1.977-3.488,2.969
					c0.447,0.451,0.895,0.896,1.348,1.343c0.99-1.159,1.979-2.322,2.744-3.672C508.051,771.668,505.291,766.743,507.062,765.201z
					 M439.523,1087.666c-21.061-3.729-41.785,6.681-63.506,3.985c-2.264-0.283-4.781,1.98-7.266,2.771
					c-1.84,0.6-4.141,1.526-5.689,0.933c-6.725-2.615-13.252-5.746-19.305-8.432c-5.891,3.245-11.084,6.109-16.166,8.904
					c-9.15-4.123-22.234-7.761-34.34-3.563c-7.395,2.568-13.824,0.464-17.674-1.486c-8.195-4.15-15.73-3.382-23.006-3.195
					c-11.82,9.346-16.584,20.793-15.029,34.986c0.453,4.194,0.447,8.544,0,12.747c-1.723,16.003,4.898,28.937,14.5,41.348
					c8.432,0,17.928-2.4,25.029,0.69c6.855,2.979,13.717,1.604,19.654,3.982c6.641,2.655,11.797,3.601,18.064-0.177
					c1.641-0.989,5.018,1.106,7.639,1.501c5.246,0.777,12.514,3.815,15.369,1.505c6.08-4.921,12.082-2.96,18.014-3.093
					c17.734-0.404,35.471-0.068,53.211-0.187c6.754-0.057,13.506,1.022,19.721-3.974c3.041-2.45,9.682-4.483,12.15-2.854
					c8.141,5.373,16.568,0.799,24.268,2.954c3.826-3.837,7.178-7.518,10.865-10.839c9.178-8.301,14.109-18.132,12.984-30.886
					c-0.621-7.032-0.652-14.227,0-21.266c1.381-15.005-3.65-26.775-15.75-35.316
					C461.301,1078.746,449.252,1077.023,439.523,1087.666z M480.207,821.04c-9.875-2.805-16.146-5.171-22.631-6.306
					c-15.623-2.729-28.701,3.855-42.119,11.019c-8.295,4.434-12.703,10.68-17.982,17.79c-6.896,9.29-3.98,19.924-7.588,28.847
					c-3.699,9.159-3.547,15.784-0.086,24.94c3.346,8.849,5.307,17.791,12.512,24.578c6.18,5.82,12.047,11.973,18.057,17.977
					c-1.443,6.551,0.826,12.713,1.109,18.704c16.264,5.581,14.77-11.752,22.924-16.188c27.602-0.196,40.791-7.425,65.438-35.849
					c1.494-9.277-2.293-19.345,4.473-27.919c1.033-1.312,0.896-4.527,0.023-6.193c-6.104-11.606-6.229-25.575-16.555-35.829
					C491.711,830.582,482.83,827.736,480.207,821.04z M182.232,871.562c-1.932,18.35,6.803,32.154,18.787,45.212
					c10.953,11.933,23.844,18.008,39.744,17.035c40.99-2.513,64.332-19.435,65.24-59.865c0.645-29.083-24.859-64.022-59.852-64.333
					C206.75,809.256,181.541,838.702,182.232,871.562z M306.924,1019.039c2.336,7.281,11.99,11.618,20.732,17.155
					c8.748,5.554,19.41,3.977,28.361,8.426c13.643-4.875,28.5-7.244,38.691-18.679c2.82-13.612-5.57-24.692-7.533-36.939
					c-2.125-13.26-5.926-26.023-9.5-38.705c-3.414-12.113-6.977-24.107-8.408-32.922c-4.656-6.39-7.543-10.351-9.414-12.925
					c-7.57,0-13.127,0-20.42,0C326.312,939.975,313.057,975.643,306.924,1019.039z M164.303,871.103
					c-5.615-5.46-7.777-7.559-12.096-11.759c0.556,5.547,0.071,8.305,1.075,9.041C154.989,869.629,157.623,869.598,164.303,871.103z
					 M243.828,1010.706c-0.479,0.482-1.355,0.955-1.373,1.449c-0.088,1.859-0.572,4.331,0.391,5.416
					c1.043,1.175,3.543,1.051,5.4,1.492c-0.512-1.928-0.785-3.961-1.609-5.745C246.139,1012.245,244.803,1011.555,243.828,1010.706z
					 M287.928,933.156c-0.08-1.212-0.158-2.434-0.242-3.646c-2.369,0.516-4.738,1.038-7.113,1.551c0.1,0.7,0.189,1.399,0.285,2.096
					C283.215,933.156,285.578,933.156,287.928,933.156z M488.277,803.355c-0.566-0.569-1.037-1.045-1.51-1.515
					c-0.467,0.945-1.113,1.856-1.328,2.857c-0.078,0.349,0.861,0.927,1.328,1.399C487.283,805.178,487.787,804.257,488.277,803.355z
					 M480.99,813.103c0.566,0.568,1.039,1.044,1.518,1.521c0.473-0.945,1.105-1.859,1.33-2.86c0.074-0.349-0.857-0.927-1.33-1.399
					C481.99,811.29,481.48,812.216,480.99,813.103z M165.811,926.879c0.488,0.89,1,1.822,1.514,2.742
					c0.475-0.469,1.408-1.051,1.33-1.398c-0.221-1.001-0.855-1.909-1.33-2.857C166.848,925.838,166.375,926.313,165.811,926.879z"/>
				<path d="M143.784,1454.528c11.983,5.883,1.11,17.485-13.922,23.042c-18.503,6.843-33.392-2.198-45.231-17.98
					c-0.243-23.545-7.997-45.156-25.613-63.354c0-6.598,0-13.608,0-23.747c0.849-0.601,4.039-2.304,6.517-4.723
					c10.347-10.073,20.331-15.446,36.09-8.659c9.875,4.26,20.595,8.739,32.328,9.558c15.983,1.128,28.125-7.562,41.656-12.896
					c16.467-6.495,32.854-13.198,49.396-19.51c15.334-5.845,30.814-11.286,47.557-17.386c-2.219-3.19-3.727-7.944-6.721-9.225
					c-17.471-7.456-32.158-18.714-47.447-29.782c-17.414-12.598-38.068-20.719-57.314-30.786
					c-8.167-4.266-16.45-8.326-24.483-12.825c-10.976-6.141-23.813-6.78-34.213-3.451c-12.539,4.023-24.577,2.36-37.225,3.716
					c-4.673-5.087-9.442-10.285-15.014-16.366c-1.704-13.192,6.61-23.045,17.119-30.513c17.579-12.492,27.633-28.927,31.062-51.113
					c4.919-2.813,10.655-6.101,16.454-9.418c12.771,3.529,22.322,9.775,27.275,22.221c7.008,17.604,18.897,29.888,36.405,38.609
					c14.721,7.34,27.674,18.182,44.525,21.098c14.115,13.768,32.781,20.573,48.486,31.824c6.086,4.359,12.912,7.009,18.887,10.876
					c8.389,5.429,18.033,8.298,25.805,15.564c7.969,7.437,19.213,11.36,29.152,16.907c15.004-5.227,30.201-10.643,45.484-15.801
					c13.08-4.431,26.41-8.171,39.361-12.924c12.91-4.742,25.252-11.146,38.293-15.443c24.344-8.012,48.014-17.693,71.963-26.682
					c17.521-6.57,33.229-12.788,39.059-33.084c3.062-10.637,11.273-18.281,27.764-23.095c10.668-1.321,24.123,2.348,30.672,22.728
					c0,3.853,0,10.935,0,13.086c7.324,15.297,12.709,26.555,17.172,35.854c-0.666,20.228-16.414,23.353-27.678,30.615
					c-2.018,1.306-6.787,1.545-8.111,0.18c-7.885-8.18-17.572-2.002-24.352-4.001c-15.158,6.964-28.49,14.376-42.711,19.251
					c-14.908,5.108-28.811,12.94-44.67,15.807c-4.834,0.874-10.945-0.609-15.723,5.631c-3.238,4.234-12.352,3.535-18.293,6.252
					c-14.367,6.566-29.045,12.139-44.062,17.017c-3.084,1.004-5.676,3.538-9.572,6.068c18.422,7.819,35.496,15.813,50.477,27.78
					c15.078,12.054,33.957,17.572,50.094,28.433c14.127,9.504,29.865,16.96,44.17,26.76c8.516,5.826,18.85,9.153,28.662,12.81
					c2.771,1.035,6.648-0.52,9.922-1.274c9.699-2.227,19.547-6.99,28.98-6.269c7.846,0.609,15.193,7.58,22.35,11.504
					c0,10.179,0,18.58,0,26.437c-7.031,10.133-16.605,19.229-20.172,30.267c-4.389,13.562-17.504,17.784-23.016,29.599
					c-10.602-2.742-20.83,2.798-31.035-4.145c-4.559-3.1-8.48-4.801-10.691-10.456c-9.094-23.259-27.91-35.53-49.316-47.096
					c-22.65-12.241-45.023-25.464-66.857-39.485c-25.953-16.681-54.283-29.683-81.729-43.991c-2.227-1.159-5.588-0.158-8.494-0.158
					c-3.938-4.048-7.891-8.114-12.576-12.934c-4.201,0.249-9.854-1.045-13.537,1.075c-20.834,11.995-44.656,15.527-66.594,24.348
					c-10.357,4.157-20.477,11.389-30.867,12.178c-11.887,0.902-20.787,6.763-30.832,10.649
					C187.984,1411.763,171.258,1425.764,143.784,1454.528c-10.334,7.011-7.207,2.584-4.163-1.902
					c3.753-5.522,7.186-11.286,11.196-16.609c16.638-22.068,40.972-32.272,65.503-42.078c2.686-1.075,5.752-1.206,8.475-2.217
					c13.516-5.043,26.545-11.084,40.455-15.431c21.82-6.827,42.756-16.516,63.951-25.255c1.346-0.557,1.744-3.386,2.715-5.413
					c-4.26-2.332-8.062-4.414-10.1-5.54c-50.709,21.235-100.262,41.991-150.125,62.878c-2.691-3.401-5.135-6.479-8.096-10.223
					c4.186-2.107,7.832-2.829,9.676-5.043c14.445-17.398,36.08-22.88,55.143-31.492c22.492-10.15,46.9-16.145,68.312-28.32
					c-3.75-6.047-8.711-8.227-15.744-5.14c-19.805,8.675-39.789,16.936-59.582,25.638c-24.021,10.564-48.207,20.539-73.146,28.937
					c-12.482,4.206-23.057,4.825-35.002-0.265c-10.014-4.259-20.793-6.47-32.801-3.47c-2.611,4.465-5.546,9.468-8.426,14.38
					c4.602,8.951,8.003,18.573,13.929,26.24c5.97,7.729,10.515,15.26,11.893,25.02c0.817,5.805,3.417,11.357,5.755,18.735
					c1.579,1.579,4.586,4.579,7.965,7.968C116.763,1465.92,122.338,1465.92,143.784,1454.528z M466.932,1282.396
					c-22.912,15.341-50.281,13.826-70.906,33.554c12.02,1.539,19.967,2.143,28.578-2.721c9.617-5.443,20.135-9.771,30.768-12.874
					c36.006-10.506,70.527-24.811,104.873-39.623c16.15-6.967,32.033-14.5,50.488-11.736c9.723,1.455,18.965-0.417,27.373-6.545
					c1.672-6.693,3.447-13.804,5.789-23.212c-5.004-3.706-10.086-7.475-14.893-11.025c0-9.309,0-17.703,0-22.746
					c-4.518-6.137-7.42-10.089-10.117-13.754c-10.982,5.015-20.117,8.886-24.809,20.616c-6.588,16.425-22.559,25.447-37.666,30.54
					c-31.115,10.49-60.891,24.537-92.875,32.851c-32.402,8.423-62.314,24.037-92.98,37.331c-0.715,0.308-0.631,2.472-1.156,4.772
					c4.234,2.22,8.719,4.576,13.512,7.095c8.936-4.271,17.84-8.444,26.68-12.766c14.752-7.213,29.406-14.604,44.238-21.63
					c1.25-0.594,3.514,0.961,10.27,3.037c-6.594,3.246-10.34,5.081-17.984,8.843
					C455.246,1282.396,459.289,1282.396,466.932,1282.396z M70.376,1214.601c7.508,12.337,16.976,9.545,26.38,7.076
					c3.199-0.846,7.903-3.37,9.365-2.124c6.134,5.221,13.319,2.521,19.702,4.207c10.735,2.854,21.891,5.852,31.362,11.373
					c22.82,13.294,44.305,29.058,69.107,38.664c26.705,10.338,50.566,26.123,74.152,41.392c27.92,18.063,58.012,31.726,86.34,48.766
					c9.525,5.739,20.314,9.434,29.748,15.319c15.723,9.803,30.953,20.286,48.184,27.53c9.664,4.058,19.42,8.578,27.939,14.582
					c20.666,14.565,43.318,25.725,65.004,38.49c6.855,4.039,13.055,7.757,14.287,15.216c1.992,12.054,9.994,18.77,18.494,26.005
					c6.891-2.068,13.227-3.979,20.584-6.193c16.801-11.868,24.238-32.136,35.809-49.143c-2.25-4.732-4.23-8.873-6.463-13.543
					c-12.42,0-25.156-0.693-37.785,0.192c-12.629,0.88-25.947-0.755-36.574-6.106c-17.381-8.742-30.715-23.566-48.539-31.712
					c-9.564-4.365-19.016-9.259-27.773-15.036c-25.449-16.751-50.564-33.973-79.064-45.401c-4.248-1.698-8.094-4.518-11.939-7.104
					c-15.912-10.758-32.201-20.855-49.885-28.485c-4.203-1.816-9.172-2.251-12.922-4.676
					c-21.297-13.768-42.031-28.437-63.605-41.749c-10.266-6.333-20.045-13.276-30.111-19.799
					c-12.611-8.189-26.723-14.065-40.141-21.008c-13.469-6.968-26.355-15.418-40.107-21.301
					c-11.452-4.888-18.786-12.788-23.984-17.42c-3.663-9.691-5.752-15.2-7.966-21.073c-6.268,0-12.437,0-18.418,0
					c-10.689,8.634-9.24,23.526-18.509,33.124C84.298,1193.732,77.657,1204.801,70.376,1214.601z M282.941,1346.419
					c0.568-0.571,1.045-1.038,1.514-1.514c-0.941-0.47-1.855-1.11-2.857-1.328c-0.348-0.087-0.92,0.858-1.398,1.328
					C281.113,1345.412,282.045,1345.928,282.941,1346.419z"/>
				<path d="M557.047,652.77c-0.877-1.592-1.656-3.239-2.65-4.75c-2.537-3.85-3.191-6.989,2.65-8.031
					c0.881,1.589,1.658,3.236,2.656,4.751C562.23,648.592,562.893,651.731,557.047,652.77z"/>
				<path d="M553.438,663.748c-1.467,5.186-2.201,7.751-2.922,10.322c-0.66-1.98-1.549-3.934-1.848-5.97
					C548.582,667.494,550.186,666.646,553.438,663.748z"/>
				<path d="M543.607,684.383c1.473-5.186,2.203-7.754,2.928-10.318c0.666,1.98,1.555,3.933,1.848,5.966
					C548.463,680.64,546.869,681.488,543.607,684.383z"/>
				<path d="M552.125,663.086c1.475-5.186,2.209-7.754,2.934-10.316c0.664,1.978,1.551,3.927,1.844,5.964
					C556.982,659.346,555.391,660.194,552.125,663.086z"/>
				<path d="M542.748,700.233c0.566,0.572,1.043,1.044,1.518,1.517c-0.951,0.473-1.859,1.11-2.859,1.331
					c-0.35,0.078-0.924-0.858-1.4-1.331C540.928,701.234,541.859,700.73,542.748,700.233z"/>
				<path d="M556.604,639.606c0.982-1.157,1.971-2.319,2.963-3.479c0.447,0.444,0.898,0.893,1.346,1.34
					c-1.162,0.989-2.318,1.98-3.488,2.966C557.15,640.159,556.883,639.883,556.604,639.606z"/>
				<path fill="none" d="M439.523,1087.666c9.734-10.643,21.779-8.92,33.738-8.961c12.105,8.541,17.131,20.312,15.75,35.316
					c-0.652,7.039-0.621,14.233,0,21.266c1.125,12.754-3.807,22.585-12.984,30.886c-3.688,3.321-7.035,7.002-10.865,10.839
					c-7.705-2.155-16.127,2.419-24.268-2.954c-2.469-1.629-9.109,0.407-12.15,2.854c-6.215,4.996-12.967,3.917-19.721,3.974
					c-17.74,0.118-35.477-0.218-53.211,0.187c-5.932,0.127-11.939-1.832-18.014,3.093c-2.855,2.316-10.123-0.728-15.369-1.505
					c-2.627-0.395-6-2.486-7.639-1.501c-6.273,3.777-11.424,2.832-18.064,0.177c-5.943-2.378-12.799-0.998-19.654-3.982
					c-7.102-3.097-16.598-0.69-25.029-0.69c-9.602-12.411-16.217-25.345-14.504-41.348c0.451-4.2,0.451-8.553,0-12.747
					c-1.551-14.193,3.213-25.646,15.027-34.986c7.273-0.193,14.816-0.955,23.012,3.195c3.85,1.947,10.279,4.042,17.674,1.486
					c12.105-4.193,25.191-0.56,34.34,3.563c5.082-2.795,10.281-5.659,16.166-8.904c6.053,2.698,12.58,5.816,19.305,8.432
					c1.549,0.6,3.85-0.333,5.689-0.93c2.484-0.806,5.002-3.062,7.266-2.773C397.738,1094.351,418.457,1083.938,439.523,1087.666z
					 M451.988,1163.176c7.896-3.146,13.91-5.54,19.332-7.701c0.463-17.494,0.463-17.494-3.998-22.618
					c-14.646,0.988-31.439,0.709-24.211,21.443C446.529,1157.72,449.508,1160.701,451.988,1163.176z M390.605,1143.203
					c-7.918,0-14.006,0-19.695,0c-7.385,11.939-7.736,16.597-2.021,22.074c5.148,4.925,11.92,4.002,21.715-3.121
					C390.605,1156.246,390.605,1150.148,390.605,1143.203z M410.545,1169.102c6.41-3.481,12.754-6.939,20.195-10.987
					c-2.498-7.042-4.67-13.176-6.777-19.096c-7.418-1.278-15.029-2.574-19.016,4.751
					C400.055,1152.779,406.303,1160.425,410.545,1169.102z M467.375,1116.596c-0.32-20.613-0.32-20.613-20.859-19.954
					c1.381,7.318-10.334,13.021-1.109,21.913C453.662,1126.52,459.059,1116.919,467.375,1116.596z M298.842,1138.761
					c-2.043,4.377-3.986,8.528-6.318,13.524c3.793,5.435,7.816,11.208,14.205,20.361c2.521-5.938,3.934-9.277,5.352-12.61
					c0.521,0.646,1.041,1.293,1.561,1.942c0-7.613,0-15.222,0-23.218C308.262,1138.761,303.498,1138.761,298.842,1138.761z
					 M348.344,1167.753c0-7.556-0.447-13.229,0.119-18.798c0.664-6.554-3.119-6.713-7.68-6.355
					c-3.203,0.252-6.414,0.598-8.736,0.815c0,9.06,0,16.627,0,24.344C337.527,1167.753,342.256,1167.753,348.344,1167.753z
					 M346.627,1125.108c5.348-3.992,8.426-9.032,4.701-15.583c-2.568-4.508-7.336-6.964-12.219-5.108
					c-10.062,3.815-8.816,12.039-6.516,20.688C337.227,1125.108,341.898,1125.108,346.627,1125.108z M370.018,1127.677
					c8.422-3.118,14.467-5.363,21.076-7.816c-0.336-5.379-0.662-10.546-1.088-17.321c-7.928,2.171-14.152,3.865-19.988,5.463
					C370.018,1114.805,370.018,1119.493,370.018,1127.677z M303.082,1104.256c-5.783,0.255-10.111,4.815-10.111,10.646
					c0,5.842,4.334,10.399,10.123,10.648c6.879,0.305,11.846-4.906,11.174-11.712
					C313.709,1108.139,308.877,1103.998,303.082,1104.256z M275.504,1105.906c-3.625-1.769-7.156-3.494-11.223-5.484
					c-3.402,4.173-7.189,8.799-11.703,14.343c6.871,2.701,11.672,4.841,16.662,6.407c1.73,0.541,3.908-0.348,6.264-0.628
					C275.504,1115.277,275.504,1110.523,275.504,1105.906z M416.57,1098.905c-8.004,8.239-10.854,17.877-6.443,22.435
					c4.516-0.195,9.707-0.429,14.861-0.659C424.592,1107.411,424.592,1107.411,416.57,1098.905z M275.287,1138.646
					c-8.377-1.439-14.357,0.397-16.152,7.312c-1.688,6.479,1.148,11.846,8.814,13.854
					C277.389,1155.801,276.574,1147.867,275.287,1138.646z"/>
				<path fill="none" d="M480.207,821.04c2.623,6.696,11.504,9.542,17.578,15.567c10.322,10.257,10.447,24.223,16.551,35.829
					c0.873,1.66,1.01,4.881-0.023,6.189c-6.766,8.581-2.975,18.643-4.471,27.92c-24.645,28.43-37.838,35.651-65.439,35.854
					c-8.152,4.433-6.654,21.766-22.924,16.186c-0.273-5.982-2.545-12.153-1.109-18.704c-6.01-6.007-11.873-12.157-18.051-17.978
					c-7.205-6.787-9.172-15.726-12.521-24.58c-3.457-9.156-3.611-15.781,0.09-24.941c3.613-8.923,0.693-19.556,7.59-28.846
					c5.27-7.104,9.682-13.363,17.986-17.79c13.406-7.17,26.492-13.755,42.115-11.016
					C464.061,815.869,470.326,818.235,480.207,821.04z M442.412,921.016c-2.531-9.676-4.539-17.38-6.557-25.078
					c-0.537,0.084-1.07,0.178-1.602,0.262c0,7.996,0,15.996,0,24.372C436.627,920.701,438.525,920.808,442.412,921.016z
					 M475.395,828.185c-1.217,0.077-2.436,0.155-3.648,0.236c0.514,2.375,1.029,4.744,1.545,7.113
					c0.703-0.093,1.396-0.187,2.096-0.279C475.395,832.892,475.395,830.535,475.395,828.185z M460.594,877.898
					c0.896-0.494,1.822-1.004,2.75-1.517c-0.471-0.473-1.051-1.412-1.396-1.328c-0.998,0.221-1.912,0.861-2.857,1.328
					C459.557,876.854,460.029,877.33,460.594,877.898z M458.461,885.513c-0.488-0.892-0.994-1.818-1.504-2.745
					c-0.473,0.473-1.412,1.054-1.33,1.402c0.223,0.998,0.857,1.909,1.33,2.854C457.426,886.558,457.896,886.082,458.461,885.513z
					 M448.436,912.584c-0.471,0.473-1.408,1.054-1.328,1.398c0.225,1.002,0.857,1.916,1.328,2.857
					c0.469-0.469,1.408-1.054,1.324-1.402C449.539,914.443,448.904,913.535,448.436,912.584z M440.529,933.269
					c0.564-0.569,1.037-1.045,1.514-1.515c-0.949-0.473-1.854-1.109-2.857-1.33c-0.348-0.078-0.928,0.857-1.398,1.33
					C438.707,932.271,439.639,932.777,440.529,933.269z"/>
				<path fill="none" d="M182.232,871.562c-0.691-32.86,24.521-62.307,63.92-61.958c34.992,0.314,60.496,35.251,59.852,64.333
					c-0.908,40.438-24.25,57.356-65.24,59.869c-15.9,0.973-28.783-5.1-39.744-17.032
					C189.035,903.717,180.299,889.912,182.232,871.562z"/>
				<path fill="none" d="M306.924,1019.039c6.133-43.396,19.389-79.064,32.51-114.582c7.301,0,12.85,0,20.42,0
					c1.879,2.567,4.754,6.525,9.414,12.921c1.432,8.817,4.99,20.812,8.414,32.922c3.574,12.683,7.375,25.445,9.494,38.705
					c1.965,12.244,10.354,23.324,7.533,36.937c-10.193,11.435-25.053,13.811-38.691,18.686c-8.955-4.456-19.613-2.879-28.361-8.429
					C318.906,1030.657,309.26,1026.326,306.924,1019.039z M365.99,1012.065c0.492,0.892,1.002,1.818,1.516,2.745
					c0.475-0.473,1.408-1.058,1.33-1.402c-0.227-0.998-0.855-1.912-1.33-2.857C367.029,1011.023,366.557,1011.496,365.99,1012.065z"
					/>
				<path fill="none" d="M164.303,871.103c-6.682-1.508-9.319-1.478-11.021-2.724c-1.004-0.73-0.521-3.488-1.075-9.035
					C156.525,863.544,158.688,865.643,164.303,871.103z"/>
				<path fill="none" d="M243.828,1010.7c0.971,0.858,2.311,1.545,2.805,2.618c0.824,1.787,1.102,3.817,1.611,5.745
					c-1.859-0.441-4.361-0.317-5.4-1.492c-0.967-1.088-0.477-3.563-0.389-5.416C242.473,1011.658,243.348,1011.188,243.828,1010.7z"
					/>
				<path fill="none" d="M505.938,763.51c-0.641,3.233,2.113,8.158-4.26,8.519C502.312,768.804,499.557,763.876,505.938,763.51z"/>
				<path fill="none" d="M287.928,933.156c-2.355,0-4.713,0-7.07,0c-0.096-0.696-0.186-1.396-0.285-2.096
					c2.375-0.513,4.744-1.035,7.113-1.551C287.773,930.723,287.848,931.938,287.928,933.156z"/>
				<path fill="none" d="M502.123,772.42c-0.986,1.153-1.98,2.319-2.971,3.476c-0.447-0.447-0.9-0.892-1.342-1.337
					c1.156-0.991,2.318-1.983,3.482-2.972C501.566,771.86,501.846,772.137,502.123,772.42z"/>
				<path fill="none" d="M488.277,803.355c-0.49,0.893-0.994,1.822-1.51,2.745c-0.467-0.47-1.406-1.054-1.328-1.402
					c0.227-0.998,0.861-1.909,1.328-2.854C487.24,802.316,487.711,802.793,488.277,803.355z"/>
				<path fill="none" d="M480.99,813.103c0.49-0.887,1-1.819,1.518-2.739c0.473,0.47,1.404,1.051,1.33,1.399
					c-0.23,1.001-0.857,1.915-1.33,2.86C482.029,814.15,481.557,813.678,480.99,813.103z"/>
				<path fill="none" d="M165.811,926.879c0.568-0.571,1.043-1.044,1.514-1.517c0.475,0.945,1.109,1.855,1.33,2.857
					c0.078,0.351-0.855,0.926-1.33,1.401C166.805,928.701,166.295,927.774,165.811,926.879z"/>
				<path fill="none" d="M70.376,1214.601c7.278-9.8,13.922-20.868,22.662-29.922c9.268-9.607,7.819-24.493,18.511-33.124
					c5.975,0,12.147,0,18.413,0c2.217,5.869,4.303,11.376,7.971,21.07c5.192,4.632,12.533,12.526,23.981,17.42
					c13.752,5.882,26.639,14.339,40.104,21.3c13.426,6.942,27.531,12.819,40.145,21.009c10.068,6.522,19.842,13.462,30.111,19.802
					c21.568,13.31,42.303,27.979,63.609,41.745c3.746,2.419,8.711,2.857,12.918,4.676c17.682,7.63,33.977,17.729,49.893,28.486
					c3.832,2.583,7.688,5.403,11.936,7.101c28.504,11.433,53.621,28.65,79.057,45.405c8.768,5.773,18.217,10.664,27.781,15.035
					c17.826,8.146,31.152,22.977,48.537,31.713c10.627,5.348,23.951,6.983,36.58,6.106c12.625-0.883,25.367-0.196,37.775-0.196
					c2.229,4.674,4.213,8.814,6.469,13.544c-11.572,17.003-19.008,37.28-35.811,49.147c-7.361,2.217-13.691,4.123-20.582,6.19
					c-8.5-7.234-16.502-13.95-18.496-26.004c-1.23-7.462-7.428-11.181-14.279-15.213c-21.691-12.769-44.342-23.925-65.012-38.493
					c-8.521-6.001-18.275-10.524-27.934-14.582c-17.238-7.244-32.463-17.729-48.189-27.531c-9.432-5.882-20.221-9.579-29.756-15.318
					c-28.314-17.047-58.408-30.705-86.33-48.766c-23.586-15.269-47.451-31.057-74.152-41.392
					c-24.805-9.606-46.281-25.37-69.107-38.671c-9.472-5.516-20.627-8.513-31.362-11.363c-6.377-1.688-13.568,1.004-19.703-4.21
					c-1.461-1.247-6.168,1.278-9.365,2.12C87.352,1224.146,77.891,1226.938,70.376,1214.601z M580.143,1445.655
					c-2.898-3.259-3.748-4.859-4.348-4.775c-2.043,0.286-3.988,1.181-5.969,1.847c2.57,0.728,5.133,1.461,0-1.99
					c-0.363-6.367-5.289-3.615-5.65-2.938c-17.354-14.464-34.314-22.302-53.6-25.188c15.924,10.059,31.25,21.409,50.734,23.869
					C561.67,1442.851,566.6,1440.103,580.143,1445.655z M494.955,1403.061c-2.896-3.258-3.742-4.862-4.346-4.775
					c-2.039,0.292-3.992,1.182-5.969,1.844c2.568,0.733,5.129,1.464,0-1.983c-3.572-4.475-7.148-8.958-10.201-12.778
					c-6,0-10.674,0-12.057,0.861c-10.105-8.921-15.996-17.971-26.176-23.157c-2.312,11.74,3.699,17.287,22.883,22.296
					C466.414,1391.986,474.219,1397.676,494.955,1403.061z M127.509,1211.261c4.915,3.968,4.915,3.968,11.979,0
					c-4.831,0-8.73,0-9.209-2.12c-13.6-2.043-23.393-8.168-34.554-6.485c-3.146,0.47-5.497,6.184-10.733,12.561
					C101.644,1212.978,114.164,1211.308,127.509,1211.261z M335.18,1304.882c0.273-0.273,0.555-0.55,0.828-0.824
					c-0.99-1.159-1.979-2.322-2.971-3.481c-0.447,0.444-0.891,0.898-1.342,1.343c1.16,0.985,2.322,1.98,3.867,2.521
					c-1.838,10.571,9.396,12.81,12.85,20.041c0.971,2.04,2.359,4.486,4.217,5.385c11.711,5.696,23.393,11.591,35.543,16.224
					c7.131,2.729,14.861,2.44,20.209-6.934c-19.301-9.843-38.566-19.668-58.289-29.723c-0.852,0.743-2.307,2.021-4.018,3.501
					c-1.318-2.86-2.637-5.728-3.918-8.485C339.791,1304.44,337.676,1304.44,335.18,1304.882z M291.672,1300.156
					c0.803-1.972,1.439-2.823,1.244-3.152c-6.592-10.764-15.223-20.229-20.291-31.978c-0.521-1.216-1.754-2.472-2.965-2.969
					c-21.498-8.923-39.398-24.195-60.273-34.095c-6.666-3.158-13.285-5.732-18.975-10.807c-3.766-3.364-9.172-4.885-14.189-7.396
					c-4.4,5.207-8.293,9.815-13.84,16.375c18.562,7.443,35.551,12.219,53.564,15.732
					C232.113,1272.74,264.498,1282.627,291.672,1300.156z M108.26,1184.343c15.011,5.792,28.915,11.161,43.033,16.618
					c1.347-1.26,3.397-3.159,5.855-5.435c-14.636-5.221-26.752-12.999-32.436-27.09c-3.612,0-6.358,0-8.935,0
					C113.676,1172.883,111.724,1177.023,108.26,1184.343z M596.045,1450.247c-0.934,8.174-1.797,15.812-2.793,24.584
					c0.596,0.547,2.5,2.328,6.145,5.721c0-7.058,0-12.337,0-16.37c9.67-4.794,17.672-8.771,25.881-12.847
					c-12.264-8.143-24.918-7.489-42.807-4.175C589.189,1448.684,591.107,1449.125,596.045,1450.247z"/>
				<path fill="none" d="M465.426,1282.123c-6.137,0.273-10.18,0.273-19.312,0.273c7.645-3.762,11.391-5.596,17.984-8.845
					c-6.756-2.074-9.012-3.628-10.26-3.034c-14.832,7.029-29.496,14.416-44.244,21.626c-8.83,4.328-17.74,8.501-26.676,12.775
					c-4.801-2.524-9.285-4.875-13.506-7.098c0.512-2.304,0.434-4.462,1.15-4.775c30.66-13.285,60.576-28.899,92.979-37.325
					c31.98-8.316,61.754-22.363,92.875-32.854c15.107-5.09,31.086-14.112,37.66-30.537c4.705-11.73,13.84-15.599,24.809-20.616
					c2.697,3.659,5.602,7.623,10.123,13.754c0,5.037,0,13.438,0,22.753c4.801,3.551,9.883,7.318,14.893,11.019
					c-2.348,9.408-4.123,16.516-5.787,23.212c-8.416,6.128-17.652,8.003-27.369,6.542c-18.467-2.765-34.342,4.77-50.498,11.733
					c-34.348,14.818-68.865,29.126-104.869,39.632c-10.627,3.105-21.154,7.431-30.773,12.871
					c-8.605,4.866-16.547,4.263-28.572,2.721C416.65,1296.223,444.02,1297.743,465.426,1282.123
					c-1.535,0.709-1.566,1.686-1.607,2.665c16.951-5.03,33.893-10.049,49.732-14.747c-3.699-4.85-7.004-9.178-10.723-14.065
					C489.086,1265.123,476.5,1273.486,465.426,1282.123z M574.082,1223.514c3.227-0.637,8.152,2.114,8.73-3.628
					c4.912-1.642,9.881-3.118,14.713-4.975c4.797-1.847,9.445-4.066,13.754-5.947c1.287-6.098,2.578-12.272,3.902-18.571
					c-5.096-2.409-11.619-1.946-13.385,3.756c-3.42,11.09-12.496,17.02-19.195,25.109c-3.23,0.641-8.156-2.114-8.078,4.642
					c-0.279-0.271-0.553-0.55-0.826-0.83c-1.164,0.989-2.32,1.983-3.486,2.973c0.451,0.444,0.898,0.896,1.348,1.343
					C572.547,1226.222,573.541,1225.06,574.082,1223.514z M583.6,1231.153c-15.842,9.843-33.814,13.425-51.354,14.426
					c0,4.794,0,8.09,0,12.334c20.115-6.657,39.256-12.993,58.967-19.516C588.355,1235.674,586.352,1233.78,583.6,1231.153z
					 M620.348,1218.523c-11.305,3.676-19.994,7.064-23.867,16.74c8.518,0,16.49,0,23.867,0
					C620.348,1229.555,620.348,1224.879,620.348,1218.523z"/>
				<path fill="none" d="M130.415,1465.92c-8.074,0-13.648,0-18.841,0c-3.38-3.383-6.386-6.389-7.965-7.972
					c-2.341-7.375-4.938-12.934-5.752-18.732c-1.383-9.759-5.932-17.296-11.896-25.019c-5.929-7.667-9.321-17.299-13.929-26.247
					c2.879-4.912,5.814-9.911,8.426-14.376c12.007-2.991,22.79-0.793,32.801,3.467c11.945,5.089,22.519,4.479,35.001,0.271
					c24.937-8.398,49.124-18.372,73.146-28.939c19.787-8.699,39.771-16.96,59.58-25.638c7.031-3.091,11.994-0.908,15.74,5.136
					c-21.406,12.182-45.814,18.176-68.307,28.324c-19.064,8.605-40.697,14.097-55.143,31.495c-1.846,2.214-5.49,2.929-9.676,5.043
					c2.961,3.737,5.41,6.827,8.1,10.216c49.869-20.877,99.42-41.63,150.129-62.871c2.033,1.125,5.832,3.202,10.096,5.54
					c-0.967,2.033-1.371,4.856-2.715,5.41c-21.197,8.736-42.129,18.427-63.951,25.252c-13.906,4.346-26.939,10.391-40.451,15.43
					c-2.721,1.017-5.789,1.147-8.477,2.224c-24.531,9.806-48.871,20.01-65.503,42.072c-4.01,5.328-7.443,11.093-11.198,16.611
					C136.577,1457.115,133.45,1461.543,130.415,1465.92z M152.63,1383.135c-13.105,8.771-24.967,6.128-36.461,6.457
					c-8.767-9.731-17.289-1.741-25.83,0.51c-0.842,0.225-1.225,2.192-2.627,4.919c4.207,3.401,8.864,7.166,13.49,10.903
					c18.94,5.395,34.162-5.897,50.324-13.564C152.428,1391.93,152.03,1388.771,152.63,1383.135z M159.193,1405.146
					c-17.554,8.105-30.979,14.302-43.901,20.277c-1.877,3.629-3.662,7.08-5.869,11.357c2.581,4.194,5.422,8.821,9.367,15.235
					C132.324,1436.321,144.319,1422.402,159.193,1405.146z"/>
				<path fill="none" d="M282.941,1346.419c-0.889-0.491-1.822-1.004-2.746-1.514c0.477-0.47,1.055-1.415,1.402-1.328
					c1.002,0.218,1.912,0.858,2.855,1.328C283.98,1345.381,283.5,1345.854,282.941,1346.419z"/>
				<path d="M451.988,1163.176c-2.479-2.475-5.459-5.456-8.877-8.876c-7.229-20.737,9.566-20.455,24.211-21.438
					c4.469,5.118,4.469,5.118,3.998,22.615C465.893,1157.636,459.885,1160.029,451.988,1163.176z"/>
				<path d="M390.605,1143.203c0,6.949,0,13.046,0,18.947c-9.791,7.126-16.564,8.049-21.711,3.124
					c-5.727-5.475-5.369-10.139,2.016-22.077C376.6,1143.203,382.688,1143.203,390.605,1143.203z"/>
				<path d="M410.545,1169.102c-4.242-8.677-10.49-16.322-5.59-25.332c3.984-7.325,11.596-6.032,19.014-4.751
					c2.102,5.92,4.279,12.054,6.779,19.096C423.299,1162.169,416.955,1165.613,410.545,1169.102z"/>
				<path d="M467.375,1116.596c-8.312,0.32-13.713,9.924-21.965,1.959c-9.229-8.893,2.486-14.595,1.105-21.913
					C467.055,1095.988,467.055,1095.988,467.375,1116.596z"/>
				<path d="M298.842,1138.761c4.65,0,9.42,0,14.799,0c0,7.996,0,15.604,0,23.218c-0.523-0.649-1.041-1.296-1.561-1.942
					c-1.418,3.333-2.832,6.672-5.352,12.61c-6.389-9.153-10.412-14.927-14.205-20.361
					C294.855,1147.289,296.799,1143.138,298.842,1138.761z"/>
				<path d="M348.344,1167.753c-6.088,0-10.816,0-16.297,0c0-7.717,0-15.278,0-24.342c2.322-0.221,5.527-0.565,8.736-0.814
					c4.557-0.357,8.344-0.195,7.68,6.355C347.893,1154.521,348.344,1160.191,348.344,1167.753z"/>
				<path d="M346.627,1125.108c-4.729,0-9.408,0-14.037,0c-2.303-8.649-3.543-16.879,6.518-20.688
					c4.885-1.856,9.652,0.603,12.219,5.104C355.061,1116.076,351.982,1121.116,346.627,1125.108z"/>
				<path d="M370.018,1127.677c0-8.184,0-12.872,0-19.678c5.836-1.598,12.061-3.292,19.988-5.463
					c0.426,6.781,0.752,11.945,1.088,17.324C384.484,1122.313,378.434,1124.559,370.018,1127.677z"/>
				<path d="M303.082,1104.256c5.795-0.258,10.627,3.883,11.186,9.582c0.666,6.806-4.303,12.011-11.18,11.712
					c-5.783-0.249-10.119-4.807-10.119-10.648C292.971,1109.071,297.303,1104.511,303.082,1104.256z"/>
				<path d="M275.504,1105.906c0,4.617,0,9.371,0,14.638c-2.35,0.28-4.533,1.169-6.264,0.628c-4.984-1.561-9.791-3.706-16.662-6.407
					c4.514-5.544,8.295-10.177,11.699-14.343C268.348,1102.409,271.873,1104.138,275.504,1105.906z"/>
				<path d="M416.57,1098.905c8.021,8.513,8.021,8.513,8.418,21.77c-5.148,0.236-10.346,0.46-14.861,0.665
					C405.713,1116.782,408.566,1107.145,416.57,1098.905z"/>
				<path d="M275.287,1138.646c1.287,9.222,2.107,17.155-7.344,21.16c-7.668-2.002-10.496-7.365-8.818-13.851
					C260.93,1139.043,266.904,1137.206,275.287,1138.646z"/>
				<path d="M442.412,921.016c-3.887-0.208-5.783-0.314-8.158-0.441c0-8.376,0-16.379,0-24.369c0.531-0.087,1.064-0.181,1.602-0.268
					C437.873,903.636,439.889,911.334,442.412,921.016z"/>
				<path d="M475.395,828.185c0,2.351,0,4.713,0,7.07c-0.703,0.093-1.4,0.187-2.096,0.279c-0.518-2.372-1.039-4.744-1.549-7.113
					C472.957,828.34,474.178,828.259,475.395,828.185z"/>
				<path d="M460.594,877.898c-0.564-0.572-1.037-1.044-1.51-1.517c0.951-0.473,1.859-1.107,2.859-1.328
					c0.35-0.077,0.928,0.861,1.4,1.328C462.416,876.897,461.49,877.407,460.594,877.898z"/>
				<path d="M458.461,885.513c-0.564,0.569-1.035,1.045-1.504,1.515c-0.473-0.945-1.117-1.856-1.33-2.854
					c-0.082-0.352,0.857-0.927,1.33-1.402C457.463,883.697,457.973,884.621,458.461,885.513z"/>
				<path d="M448.436,912.584c0.469,0.945,1.109,1.855,1.324,2.854c0.084,0.352-0.855,0.927-1.324,1.402
					c-0.471-0.945-1.117-1.855-1.328-2.857C447.027,913.638,447.959,913.062,448.436,912.584z"/>
				<path d="M440.529,933.269c-0.891-0.494-1.822-1.004-2.75-1.515c0.479-0.473,1.051-1.411,1.4-1.33
					c1.006,0.224,1.914,0.857,2.859,1.33C441.566,932.227,441.094,932.699,440.529,933.269z"/>
				<path d="M365.99,1012.065c0.566-0.569,1.039-1.045,1.516-1.515c0.475,0.945,1.109,1.854,1.33,2.854
					c0.078,0.348-0.855,0.927-1.33,1.399C366.992,1013.884,366.482,1012.957,365.99,1012.065z"/>
				<path d="M291.672,1300.156c-27.18-17.529-59.559-27.419-75.719-58.292c-18.014-3.517-35.002-8.292-53.562-15.741
					c5.545-6.555,9.432-11.156,13.838-16.367c5.018,2.516,10.418,4.036,14.189,7.391c5.689,5.084,12.309,7.651,18.975,10.816
					c20.875,9.896,38.777,25.168,60.273,34.088c1.205,0.498,2.443,1.754,2.969,2.96c5.064,11.756,13.691,21.217,20.287,31.989
					C293.117,1297.339,292.48,1298.185,291.672,1300.156z"/>
				<path d="M335.562,1304.44c2.113,0,4.232,0,6.594,0c1.281,2.761,2.6,5.628,3.918,8.484c1.703-1.482,3.166-2.748,4.018-3.497
					c19.723,10.061,38.975,19.879,58.289,29.729c-5.348,9.368-13.07,9.657-20.209,6.931c-12.15-4.636-23.832-10.53-35.543-16.227
					c-1.857-0.896-3.246-3.349-4.217-5.379C344.959,1317.256,333.725,1315.012,335.562,1304.44z"/>
				<path d="M108.26,1184.343c3.464-7.325,5.416-11.46,7.519-15.906c2.58,0,5.322,0,8.941,0c5.684,14.1,17.796,21.876,32.431,27.09
					c-2.46,2.275-4.511,4.175-5.854,5.435C137.175,1195.504,123.273,1190.138,108.26,1184.343z"/>
				<path d="M596.045,1450.247c-4.938-1.122-6.846-1.563-13.574-3.091c17.883-3.311,30.543-3.964,42.803,4.176
					c-8.211,4.076-16.215,8.056-25.881,12.85c0,4.026,0,9.309,0,16.37c-3.641-3.396-5.555-5.174-6.146-5.728
					C594.244,1466.06,595.111,1458.421,596.045,1450.247z"/>
				<path d="M564.17,1437.799c-22.352-3.784-37.676-15.129-53.6-25.188C529.859,1415.49,546.822,1423.335,564.17,1437.799z"/>
				<path d="M130.278,1209.141c-16.114,2.17-28.635,3.837-45.287,6.075c5.236-6.377,7.586-12.091,10.733-12.561
					C106.892,1200.97,116.677,1207.092,130.278,1209.141z"/>
				<path d="M462.379,1386.234c-22.479-5.876-28.484-11.423-26.176-23.16C446.387,1368.261,452.275,1377.312,462.379,1386.234z"/>
				<path d="M459.084,1385.367c4.688,0,9.355,0,15.352,0c3.053,3.817,6.629,8.298,10.201,12.778
					C474.219,1397.676,466.414,1391.986,459.084,1385.367z"/>
				<path d="M127.509,1211.261c3.248,0,7.147,0,11.979,0C132.43,1215.229,132.43,1215.229,127.509,1211.261z"/>
				<path d="M494.955,1403.061c-5.186-1.471-7.746-2.201-10.318-2.932c1.98-0.656,3.934-1.552,5.963-1.844
					C491.213,1398.204,492.061,1399.806,494.955,1403.061z"/>
				<path d="M561.307,1436.48c3.23,0.641,8.156-2.111,8.52,4.256C566.6,1440.103,561.67,1442.851,561.307,1436.48z"/>
				<path d="M580.143,1445.655c-5.188-1.474-7.752-2.201-10.32-2.929c1.984-0.659,3.934-1.555,5.963-1.847
					C576.402,1440.796,577.244,1442.396,580.143,1445.655z"/>
				<path d="M335.18,1304.882c-1.162-0.982-2.322-1.978-3.482-2.963c0.449-0.444,0.896-0.898,1.344-1.343
					c0.988,1.159,1.98,2.319,2.973,3.481C335.734,1304.338,335.453,1304.608,335.18,1304.882z"/>
				<path d="M583.6,1231.153c2.752,2.627,4.756,4.526,7.613,7.244c-19.709,6.522-38.852,12.858-58.967,19.516
					c0-4.244,0-7.54,0-12.334C549.779,1244.578,567.758,1240.984,583.6,1231.153z"/>
				<path d="M463.922,1281.85c12.578-8.363,25.164-16.732,38.91-25.874c3.719,4.882,7.02,9.216,10.723,14.065
					c-15.844,4.698-32.783,9.717-49.732,14.747C463.859,1283.809,463.891,1282.832,463.922,1281.85z"/>
				<path d="M582.809,1219.886c6.492-8.724,15.568-14.656,18.988-25.749c1.766-5.696,8.289-6.156,13.385-3.75
					c-1.324,6.305-2.615,12.477-3.902,18.574c-4.312,1.877-8.957,4.101-13.754,5.944
					C592.699,1216.768,587.725,1218.254,582.809,1219.886z"/>
				<path d="M620.348,1218.523c0,6.355,0,11.031,0,16.74c-7.371,0-15.35,0-23.867,0
					C600.354,1225.588,609.047,1222.199,620.348,1218.523z M616.055,1229.287c-0.566-0.568-1.035-1.038-1.504-1.514
					c-0.473,0.948-1.117,1.859-1.332,2.857c-0.08,0.352,0.859,0.933,1.332,1.398
					C615.057,1231.109,615.566,1230.177,616.055,1229.287z"/>
				<path d="M574.082,1223.514c0.367-6.373,5.289-3.622,8.52-4.259C582.234,1225.628,577.309,1222.877,574.082,1223.514z"/>
				<path d="M574.529,1223.899c-0.988,1.153-1.982,2.319-2.971,3.482c-0.445-0.444-0.896-0.898-1.344-1.343
					c1.16-0.992,2.318-1.984,3.488-2.97C573.971,1223.35,574.25,1223.623,574.529,1223.899z"/>
				<path d="M152.63,1383.135c-0.6,5.637-0.202,8.795-1.101,9.225c-16.161,7.667-31.39,18.959-50.327,13.564
					c-4.626-3.737-9.277-7.496-13.487-10.903c1.405-2.733,1.785-4.707,2.624-4.919c8.544-2.251,17.066-10.241,25.837-0.51
					C127.667,1389.253,139.524,1391.898,152.63,1383.135z"/>
				<path d="M159.193,1405.146c-14.874,17.256-26.872,31.175-40.403,46.876c-3.939-6.417-6.787-11.044-9.367-15.241
					c2.207-4.277,3.992-7.729,5.869-11.354C128.214,1419.458,141.64,1413.252,159.193,1405.146z"/>
				<path fill="none" d="M616.055,1229.287c-0.488,0.89-0.994,1.822-1.504,2.746c-0.473-0.47-1.412-1.048-1.332-1.396
					c0.225-1.001,0.859-1.915,1.332-2.86C615.02,1228.249,615.488,1228.722,616.055,1229.287z"/>
			</g>
		</g>
	</g>
</g>
<g id="Layer_3" display="none">
	<g display="inline">
		<g>
			<path d="M-74.965,1094.877c0-16.088,0-32.184,0-48.272c0.731-5.904,1.56-11.803,2.192-17.723
				c7.354-69.028,28.719-133.31,67.371-191.104c70.91-106.023,169.497-169.542,295.712-189.574
				c12.664-2.013,25.438-3.374,38.159-5.033c16.089,0,32.186,0,48.27,0c2.469,0.563,4.919,1.251,7.402,1.674
				c27.666,4.757,55.995,7.082,82.896,14.562c227.092,63.198,360.891,297.08,296.949,526.274
				c-55.87,200.263-244.64,329.423-452.488,310.273c-85.424-7.869-161.992-39.281-228.318-93.842
				c-85.138-70.053-136.339-159.87-153.108-269.027C-71.882,1120.396-73.302,1107.622-74.965,1094.877z M558.636,1084.842
				c-1.869,67.93-15.408,133.479-40.554,194.479c33.405,18.288,65.513,35.856,98.786,54.067
				c66.418-68.166,102.819-151.011,107.793-248.546C669.08,1084.842,614.366,1084.842,558.636,1084.842z M88.312,1333.377
				c33.544-18.341,65.852-36.012,98.822-54.034c-25.437-61.452-38.704-126.81-40.624-194.432c-55.801,0-110.505,0-166.077,0
				C-14.407,1182.429,21.831,1265.34,88.312,1333.377z M724.672,1056.681c-4.499-89.411-35.768-166.609-92.525-231.633
				c-35.278,20.779-69.272,40.79-104.285,61.415c19.2,53.743,29.042,111.369,30.877,170.223
				C614.689,1056.681,669.17,1056.681,724.672,1056.681z M73.006,825.025c-56.833,65.602-88.374,142.813-92.325,231.782
				c55.8,0,110.31,0,165.859,0c1.597-59.312,11.799-116.899,30.728-170.371C142.097,865.721,108.325,845.827,73.006,825.025z
				 M338.459,1250.947c0-56.025,0-110.982,0-165.908c-55.183,0-109.802,0-164.907,0c2.083,65.172,14.657,127.233,39.966,187.136
				C254.771,1259.115,296.212,1252.415,338.459,1250.947z M491.798,1272.149c25.15-60.877,38.097-122.811,39.672-187.319
				c-55.687,0-110.097,0-164.778,0c0,55.458,0,110.394,0,166.158C409.376,1252.367,450.759,1259.307,491.798,1272.149z
				 M203.64,893.258c-19.205,53.412-28.509,107.446-29.98,163.258c55.612,0,110.231,0,164.704,0c0-46.385,0-92.127,0-138.563
				C292.217,916.583,247.898,908.202,203.64,893.258z M366.533,1056.659c55.37,0,109.776,0,165.014,0
				c-1.594-56.109-10.854-110.158-30.036-163.416c-44.111,15.19-88.985,23.152-134.978,24.907
				C366.533,964.966,366.533,1010.51,366.533,1056.659z M338.418,890.815c0-64.523,0-127.759,0-192.916
				c-56.257,47.284-96.211,104.062-124.525,170.308C255.007,882.173,295.866,889.604,338.418,890.815z M366.412,890.863
				c43.134-1.344,84.188-8.632,124.948-22.781c-28.788-66.333-68.464-123.197-124.948-170.429
				C366.412,763.376,366.412,826.465,366.412,890.863z M611.775,803.387c-56.152-53.211-120.827-86.169-196.086-98.637
				c43.222,45.194,76.463,96.7,101.046,154.116C551.09,844.51,582.061,826.295,611.775,803.387z M188.5,858.852
				c24.569-57.67,57.957-108.996,101.038-154.134c-75.579,12.696-140.434,45.653-196.12,98.8
				C123.406,826.372,154.252,844.757,188.5,858.852z M224.79,1297.469c27.84,56.224,64.347,104.979,113.683,146.085
				c0-56.242,0-110.497,0-164.693C316.756,1276.332,248.612,1287.407,224.79,1297.469z M366.835,1278.135
				c0,55.382,0,109.464,0,165.448c49.208-41.367,85.942-89.982,113.724-146.621C443.055,1285.13,405.602,1279.379,366.835,1278.135z
				 M289.295,1436.585c-37.066-38.873-66.94-82.315-90.464-130.315c-31.695,12.486-60.649,27.607-88.218,47.367
				C163.283,1398.036,222.307,1425.729,289.295,1436.585z M415.906,1436.611c67.11-11.026,126.259-38.66,178.767-83.11
				c-28.358-19.62-57.082-35.201-88.486-47.176C482.633,1354.719,452.694,1397.812,415.906,1436.611z"/>
		</g>
	</g>
</g>
<g id="Layer_4" display="none">
	<polygon display="inline" points="354.443,604.066 640.621,604.066 479.037,874.668 640.621,874.668 64.377,1499.58 
		247.373,1069.344 132.516,1069.344 	"/>
</g>
<g id="Layer_5">
	<g id="ahkyzl_1_">
		<g>
			<g>
				<path d="M320.44,639.914c6.155,0,12.311,0,18.466,0c3.016,0.472,6.026,0.991,9.05,1.409
					c53.574,7.423,96.69,56.031,97.158,110.099c0.336,38.973,0.095,77.952,0.111,116.928c0,1.509,0,3.019,0,4.913
					c1.701-0.22,2.951-0.346,4.188-0.548c16.445-2.685,32.751-2.008,48.659,2.975c28.826,9.028,50.739,26.643,64.928,53.522
					c0.91,1.721,1.636,3.105,4.182,3.096c18.702-0.068,36.141,4.849,52.636,13.559c17.72,9.357,32.462,21.83,42.55,39.403
					c10.716,18.669,14.18,39.056,14.247,60.215c0.083,26.282,0.08,52.565,0.001,78.849c-0.075,25.062-2.269,49.963-8.225,74.323
					c-13.491,55.188-26.942,110.393-41.324,165.35c-10.667,40.756-37.629,66.957-77.22,80.19c-8.164,2.729-16.99,3.479-25.511,5.144
					c-106.436,0-212.872,0-319.308,0c-1.118-0.226-2.228-0.561-3.356-0.658c-11.449-0.998-22.651-3.344-32.99-8.327
					c-45.212-21.8-69.934-57.316-70.271-108.12c-0.389-58.601-0.072-117.206-0.152-175.809c-0.004-2.611-0.521-5.368-1.447-7.811
					c-35.297-92.963-70.68-185.893-106.023-278.837c-10.535-27.701-11.027-55.586-0.628-83.376
					c14.642-39.131,57.903-80.143,120.051-73.559c31.104,3.294,56.416,17.32,76.799,40.723
					c10.528,12.087,17.065,26.363,22.523,41.229c1.201,3.271,2.529,6.493,3.799,9.739c0.79-15.516,0.616-30.842,0.862-46.16
					c0.126-7.793,0.175-15.738,1.687-23.33c9.124-45.797,36.665-75.587,80.546-90.399
					C304.089,642.059,312.419,641.44,320.44,639.914z M286.569,1217.986c1.685,0,3.185,0.001,4.685-0.002
					c30.387-0.031,60.782,0.312,91.16-0.229c20.174-0.359,35.289-10.69,44.643-28.096c17.055-31.736-6.173-72.853-42.871-72.752
					c-43.979,0.12-87.959,0.146-131.938-0.048c-16.273-0.072-29.546,5.717-40.488,17.726
					c-17.529,19.236-35.362,38.195-52.933,57.396c-1.378,1.505-2.402,3.975-2.409,6c-0.135,44.619-0.148,89.241-0.04,133.862
					c0.013,5.091,0.299,10.317,1.455,15.247c6.17,26.282,28.985,44.391,56.45,44.426c100.268,0.129,200.537,0.064,300.804,0.004
					c3.948-0.003,7.99-0.307,11.827-1.178c23.857-5.407,39.024-20.133,45.06-43.74c11.696-45.747,23.02-91.591,34.56-137.379
					c4.947-19.629,10.18-39.25,10.993-59.573c0.85-21.251,0.871-42.534,1.231-63.804c0.003-0.139-0.32-0.281-0.683-0.581
					c-0.511,1.043-1.022,2.027-1.481,3.034c-20.741,45.543-41.286,91.178-62.292,136.599
					c-11.025,23.839-37.243,38.599-62.963,36.438c-27.711-2.327-50.338-20.575-57.835-46.661c-0.673-2.342-1.224-4.719-1.902-7.349
					c-0.657,0.613-0.966,0.841-1.2,1.13c-13.229,16.273-30.271,24.187-51.296,24.049c-29.489-0.191-58.98-0.047-88.472-0.047
					c-1.351,0-2.7,0-4.064,0C286.569,1227.396,286.569,1222.939,286.569,1217.986z M271.923,1044.636
					c-8.636,0-16.818-0.169-24.988,0.087c-3.09,0.097-4.418-0.909-5.492-3.752c-19.274-50.985-38.65-101.934-58.023-152.883
					c-10.505-27.626-20.655-55.398-31.67-82.821c-13.094-32.6-54.038-45.367-83.774-26.678
					c-24.637,15.485-33.597,44.237-22.688,72.814c35.725,93.601,71.41,187.217,107.25,280.774c2.66,6.944,4.258,13.808,3.85,21.262
					c-0.34,6.188-0.069,12.41-0.069,18.617c0.313,0.14,0.627,0.278,0.942,0.418c1.05-1.226,2.066-2.484,3.156-3.672
					c12.909-14.078,26.08-27.93,38.687-42.273c14.671-16.691,32.781-24.543,54.975-24.24c27.304,0.372,54.617,0.05,81.927,0.147
					c2.67,0.011,4.03-0.742,5.165-3.253c14.952-33.13,30.05-66.191,45.023-99.312c0.808-1.786,1.184-3.923,1.185-5.897
					c0.058-78.978,0.059-157.957,0.016-236.935c-0.001-3.575-0.234-7.181-0.746-10.716c-5.368-37.092-48.127-62.45-85.737-40.832
					c-19.312,11.101-29.021,28.593-29.008,51.233c0.056,94.107,0.022,188.216,0.022,282.324
					C271.923,1040.704,271.923,1042.36,271.923,1044.636z M619.12,1040.529c-0.234-0.085-0.468-0.17-0.702-0.255
					c-0.331-3.183-0.584-6.374-1.021-9.54c-0.263-1.894-0.725-3.771-1.25-5.612c-5.793-20.283-23.663-34.159-45.571-34.978
					c-17.251-0.646-32.148,4.628-42.52,19.183c-3.923,5.505-7.514,11.384-10.328,17.519c-22.851,49.792-45.61,99.626-68.116,149.574
					c-9.678,21.478-2.981,45.868,15.823,60.217c26.1,19.916,62.657,10.5,76.754-20.197c24.41-53.158,48.534-106.448,72.56-159.782
					C617.007,1051.642,617.699,1045.922,619.12,1040.529z M443.492,1152.519c0.675-1.214,1.006-1.723,1.254-2.269
					c22.918-50.302,45.956-100.551,68.686-150.936c10.101-22.391,1.579-49.038-19.325-62.359
					c-26.356-16.795-60.18-6.421-73.571,22.783c-21.278,46.406-42.383,92.895-63.551,139.354c-0.438,0.96-0.745,1.979-1.229,3.286
					c8.212,0,15.896-0.008,23.582,0.002c8.27,0.011,16.381,1.16,24.047,4.308C423.979,1115.145,437.808,1129.714,443.492,1152.519z"
					/>
				<path fill="none" d="M286.569,1217.986c0,4.953,0,9.409,0,14.474c1.364,0,2.715,0,4.064,0
					c29.491-0.001,58.983-0.146,88.473,0.048c21.023,0.137,38.066-7.775,51.296-24.049c0.234-0.289,0.543-0.517,1.199-1.131
					c0.679,2.631,1.229,5.008,1.903,7.349c7.497,26.086,30.124,44.333,57.834,46.662c25.72,2.161,51.938-12.6,62.963-36.438
					c21.007-45.421,41.552-91.056,62.293-136.6c0.459-1.007,0.97-1.99,1.48-3.033c0.362,0.299,0.686,0.442,0.684,0.581
					c-0.361,21.27-0.381,42.553-1.231,63.804c-0.814,20.323-6.047,39.944-10.994,59.573c-11.539,45.788-22.862,91.632-34.56,137.379
					c-6.035,23.607-21.201,38.332-45.059,43.74c-3.838,0.87-7.879,1.176-11.828,1.178c-100.267,0.062-200.535,0.125-300.803-0.004
					c-27.465-0.036-50.281-18.143-56.45-44.427c-1.157-4.929-1.442-10.155-1.455-15.247c-0.109-44.62-0.095-89.24,0.039-133.861
					c0.007-2.025,1.031-4.495,2.409-6c17.57-19.201,35.404-38.16,52.934-57.397c10.942-12.008,24.214-17.797,40.488-17.725
					c43.979,0.195,87.959,0.169,131.938,0.048c36.696-0.101,59.925,41.016,42.871,72.751c-9.354,17.406-24.47,27.737-44.643,28.098
					c-30.378,0.54-60.773,0.196-91.16,0.228C289.754,1217.986,288.254,1217.986,286.569,1217.986z"/>
				<path fill="none" d="M271.923,1044.636c0-2.275,0-3.931,0-5.588c0-94.108,0.033-188.216-0.022-282.324
					c-0.013-22.641,9.697-40.133,29.008-51.233c37.61-21.618,80.369,3.74,85.737,40.832c0.512,3.535,0.745,7.142,0.746,10.716
					c0.043,78.978,0.042,157.957-0.016,236.936c-0.001,1.975-0.377,4.111-1.185,5.897c-14.974,33.119-30.071,66.183-45.023,99.311
					c-1.135,2.512-2.495,3.265-5.165,3.254c-27.309-0.098-54.622,0.225-81.927-0.148c-22.193-0.304-40.304,7.55-54.975,24.24
					c-12.607,14.345-25.777,28.196-38.687,42.273c-1.09,1.189-2.105,2.447-3.156,3.673c-0.314-0.141-0.628-0.279-0.942-0.419
					c0-6.207-0.271-12.429,0.069-18.617c0.408-7.453-1.189-14.316-3.85-21.261C116.695,1038.62,81.01,945.004,45.285,851.403
					c-10.906-28.577-1.946-57.329,22.689-72.814c29.736-18.689,70.681-5.922,83.774,26.678
					c11.015,27.423,21.165,55.193,31.67,82.821c19.372,50.949,38.749,101.897,58.023,152.883c1.074,2.843,2.402,3.849,5.492,3.752
					C255.104,1044.467,263.287,1044.636,271.923,1044.636z"/>
				<path fill="none" d="M619.12,1040.529c-1.421,5.393-2.113,11.112-4.372,16.127c-24.025,53.334-48.149,106.624-72.56,159.783
					c-14.097,30.696-50.654,40.112-76.754,20.196c-18.805-14.348-25.502-38.738-15.823-60.216
					c22.506-49.948,45.266-99.784,68.116-149.575c2.814-6.134,6.405-12.013,10.328-17.519c10.371-14.555,25.269-19.828,42.52-19.182
					c21.908,0.818,39.777,14.693,45.571,34.977c0.525,1.841,0.987,3.72,1.25,5.612c0.438,3.166,0.69,6.358,1.021,9.54
					C618.652,1040.359,618.886,1040.443,619.12,1040.529z"/>
				<path fill="none" d="M443.492,1152.519c-5.685-22.805-19.513-37.374-40.108-45.83c-7.666-3.147-15.777-4.298-24.047-4.308
					c-7.686-0.01-15.371-0.003-23.582-0.003c0.484-1.306,0.791-2.325,1.229-3.285c21.168-46.459,42.271-92.947,63.551-139.354
					c13.392-29.203,47.215-39.576,73.571-22.781c20.904,13.319,29.426,39.968,19.325,62.357
					c-22.729,50.386-45.767,100.635-68.686,150.936C444.498,1150.795,444.167,1151.304,443.492,1152.519z"/>
			</g>
		</g>
	</g>
</g>
</svg>
