<?xml version="1.0" encoding="utf-8"?>
<!-- Generator: Adobe Illustrator 16.0.5, SVG Export Plug-In . SVG Version: 6.00 Build 0)  -->
<!DOCTYPE svg PUBLIC "-//W3C//DTD SVG 1.1//EN" "http://www.w3.org/Graphics/SVG/1.1/DTD/svg11.dtd">
<svg version="1.1" id="Layer_1" xmlns="http://www.w3.org/2000/svg" xmlns:xlink="http://www.w3.org/1999/xlink" x="0px" y="0px"
	 width="1000px" height="1000px" viewBox="0 0 1000 1000" enable-background="new 0 0 1000 1000" xml:space="preserve">
<g>
	<path d="M732.938,501.658c0,133.967-104.036,242.567-232.37,242.567c-128.303,0-232.354-108.601-232.354-242.567
		c0-133.921,104.051-242.521,232.354-242.521C628.901,259.137,732.938,367.737,732.938,501.658z"/>
	<rect x="472.093" y="31.444" width="69.113" height="178.08"/>
	<polygon points="395.829,227.454 335.957,263.538 250.671,109.308 310.513,73.233 	"/>
	<polygon points="278.498,318.857 243.927,381.348 96.206,292.288 130.747,229.837 	"/>
	<polygon points="220.694,459.263 220.694,531.406 50.077,531.386 50.077,459.263 	"/>
	<polygon points="237.86,611.012 272.447,673.503 124.701,762.522 90.114,700.072 	"/>
	<polygon points="325.453,733.467 385.31,769.552 300.009,923.771 240.116,887.688 	"/>
	<polygon points="459.919,793.84 529.062,793.84 529.062,971.898 459.919,971.919 	"/>
	<polygon points="605.297,775.93 665.189,739.845 750.471,894.004 690.598,930.149 	"/>
	<polygon points="722.627,684.526 757.225,621.994 904.945,711.034 870.43,773.566 	"/>
	<polygon points="780.463,544.161 780.493,471.957 951.055,471.957 951.074,544.1 	"/>
	<polygon points="763.297,392.391 728.76,329.819 876.471,240.82 911.027,303.29 	"/>
	<polygon points="675.754,269.896 615.841,233.77 701.131,79.56 761.035,115.655 	"/>
</g>
</svg>
