<?xml version="1.0" encoding="utf-8"?>
<!-- Generator: Adobe Illustrator 16.0.5, SVG Export Plug-In . SVG Version: 6.00 Build 0)  -->
<!DOCTYPE svg PUBLIC "-//W3C//DTD SVG 1.1//EN" "http://www.w3.org/Graphics/SVG/1.1/DTD/svg11.dtd">
<svg version="1.1" id="Layer_1" xmlns="http://www.w3.org/2000/svg" xmlns:xlink="http://www.w3.org/1999/xlink" x="0px" y="0px"
	 width="595.28px" height="841.89px" viewBox="0 0 595.28 841.89" enable-background="new 0 0 595.28 841.89" xml:space="preserve">
<g>
	<g>
		<path fill-rule="evenodd" clip-rule="evenodd" d="M495.478,16H33.49v27.831h461.988V16z M38.236,179.144h450.914v-26.871H38.236
			V179.144z M39.818,70.701v11.516h337.789V70.701H39.818z M551.645,245.361H44.564v13.435h507.08V245.361z M184.585,286.626H16.086
			v13.435h168.499V286.626z M48.52,378.754v10.556h306.146v-10.556H48.52z M500.225,464.165H40.609v21.112h459.615V464.165z
			 M147.404,526.543v-24.951H42.982v24.951H147.404z M39.818,582.204v28.79H592.78v-28.79H39.818z M459.88,637.865H30.325v18.233
			H459.88V637.865z M24.788,698.324h329.878v-12.477H24.788V698.324z M18.459,781.814h488.094V767.42H18.459V781.814z M4.22,825
			h430.346v-9.597H4.22V825z"/>
	</g>
</g>
</svg>
