<?xml version="1.0" encoding="utf-8"?>
<!-- Generator: Adobe Illustrator 16.0.5, SVG Export Plug-In . SVG Version: 6.00 Build 0)  -->
<!DOCTYPE svg PUBLIC "-//W3C//DTD SVG 1.1//EN" "http://www.w3.org/Graphics/SVG/1.1/DTD/svg11.dtd">
<svg version="1.1" id="Layer_1" xmlns="http://www.w3.org/2000/svg" xmlns:xlink="http://www.w3.org/1999/xlink" x="0px" y="0px"
	 width="422.131px" height="323.754px" viewBox="0 0 422.131 323.754" enable-background="new 0 0 422.131 323.754"
	 xml:space="preserve">
<g>
	<path fill="none" d="M263.384,322.091h-5.843c0.518,0.332,1.041,0.661,1.576,0.986C260.8,324.1,262.008,324.107,263.384,322.091z"
		/>
	<path d="M150.671,87.259c-1.862,0.317-2.819,1.017-3.983,2.245c2.279-1.346,3.818-1.954,5.844-2.382
		C151.863,87.104,151.238,87.146,150.671,87.259z"/>
	<path d="M140.482,94.887c0.203,0.162,1.851-0.615,2.985-1.523c0.573-0.754,1.167-1.509,1.773-2.258
		c0.55-0.614,1.012-1.143,1.446-1.602c-0.013,0.007-0.024,0.014-0.037,0.021C143.895,91.262,142.18,93.007,140.482,94.887z"/>
	<path d="M299.905,320.799c-0.085,0.431-0.175,0.861-0.265,1.292h0.906c0.537-1.442,0.944-2.837,1.333-4.27
		C301.647,317.744,300.536,319.322,299.905,320.799z"/>
	<path d="M83.217,144.637c0.32-3.273,0.747-5.199,1.568-7.374c-0.383,0.566-0.699,1.152-0.934,1.755
		C83.046,140.946,83.004,142.451,83.217,144.637z"/>
	<path d="M83.542,155.199c0.227-0.022,0.594-2.203,0.588-4.06c-0.209-1.224-0.408-2.46-0.594-3.707
		c-0.125-1.067-0.239-1.978-0.318-2.796c-0.002,0.02-0.004,0.037-0.006,0.057C82.898,148.756,83.168,151.92,83.542,155.199z"/>
	<path d="M328.135,227.879c-0.184,0.127,0.302,2.604,0.984,4.572c0.625,1.201,1.244,2.42,1.857,3.658
		c0.496,1.072,0.925,1.984,1.291,2.813c-0.006-0.02-0.01-0.038-0.016-0.058C331.034,234.415,329.648,231.184,328.135,227.879z"/>
	<path d="M333.783,245.174c-0.02-2.413-0.535-4.027-1.516-6.251c0.925,3.618,1.268,5.854,1.365,8.536
		C333.75,246.684,333.805,245.92,333.783,245.174z"/>
	<path d="M422.053,256.705c-4.064,1.801-9.535,4.398-15.48,7.256v5.671C416.61,263.275,422.913,257.816,422.053,256.705z"/>
	<path d="M379.848,276.7c-3.459,1.686-6.586,3.206-6.145,3.149c24.125-10.854,24.977-4.547-11.02,9.284
		c-10.713,4.05-23.24,6.513-35.082,8.004c-2.238-6.259-4.225-12.536-5.861-18.669c-1.349-4.923-0.969-5.164,1.412-6.301
		c11.994-6.953,16.699-16.621,14.886-21.16c-0.577-1.244-1.097-1.272-0.897,0.581c0.078,0.7,0.117,1.421,0.117,2.159
		c-0.518,0.051-2.959-2.806-3.592-4.588c-0.002-0.596-0.013-1.157-0.033-1.701c-1.052,6.936-7.444,14.727-15.133,18.084
		c-3.764-15.881-5.641-31.074-6.754-43.473c-0.529-6.506-0.007-7.805,3.668-5.547c0.764,0.471,1.508,0.943,2.23,1.421
		c0.496-0.424,0.579-3.089,0.08-4.526c-1.936-1.604-4.451-3.789-8.238-6.751c-2.768-2.138-5.435-4.239-9.613-7.192
		c-0.866-0.053-1.881,1.809-1.427,3.07c0.665,0.66,1.329,1.332,1.993,2.016c3.174,3.236,3.438,5.876,3.876,12.963
		c0.646,12.914,2.653,33.223,5.511,47.891c0.682,3.209,0.01,4.268-1.65,4.762c-6.454,1.931-12.6,2.117-17.699,1.68
		c-1.609-2.995-3.634-7.073-6.265-12.197c-2.212-4.328-4.44-8.662-6.568-12.965c2.726-6.103,4.382-14.863,4.088-26.279
		c6.157,2.264,12.04,4.254,17.872,6.023c1.887,0.219,0.648-2.744-1.241-3.957c-3.501-1.25-6.979-2.58-10.437-3.975
		c-4.906-1.968-4.967-3.221-3.379-4.368c9.101-5.79,18.66-22.139,21.227-33.798c13.412,12.288,28.225,24.753,44.242,35.799
		c8.592,5.645,6.223,7.586-2.085,9.809c-1.688,0.422-3.382,0.795-5.083,1.122c-1.244,0.835,1.059,3.827,3.596,4.359
		c8.407-1.107,18.161-3.34,28.059-7.325c11.17-4.707,17.666-8.325,27.946-15.463c1.331-2.11-1.735-4.251-3.931-3.637
		c-3.242,2.188-6.475,4.154-9.701,5.917c-5.793,3.097-11.988,2.688-20.217-1.161c-17.962-8.312-39.172-21.616-56.934-36.851
		c-4.176-3.534-4.137-4.099-3.613-7.261c1.779-17.105-2.363-30.458-6.529-33.22c-1.188-0.692-1.494-0.267-0.092,1.337
		c0.532,0.604,1.057,1.257,1.571,1.963c-0.252,0.498-3.592-0.105-5.183-1.26c-0.42-0.57-0.818-1.1-1.209-1.604
		c4.257,7.554,6.158,20.582,4.254,30.501c-9.016-8.168-17.314-16.799-24.624-24.93c-0.085-11.327-0.958-24.428-3.149-39.623
		c-4.287-29.249-14.381-60.225-16.088-59.868c2.146,11.655,6.928,33.939,9.881,49.237c0.842,4.062,1.603,7.73,1.613,7.299
		c-5.229-27.838-0.527-25.239,5.547,15.029c1.331,9.045,1.882,18.551,1.969,27.672c-3.271-3.643-6.344-7.184-9.19-10.533
		c-4.829-5.766-5.445-7.463-1.841-8.504c0.748-0.217,1.489-0.413,2.221-0.588c-0.02-0.836-1.834-3.459-3.11-4.398
		c-2.187,0.151-5.103,0.251-9.257,0.719c-3.02,0.367-5.958,0.68-10.324,1.496c-0.518,0.705,0.219,3.37,1.35,4.18
		c0.828,0.053,1.664,0.117,2.507,0.191c4.011,0.333,5.996,2.628,11.179,9.027c4.453,5.611,10.241,12.554,16.357,19.533
		c-0.1,3.489-0.252,6.857-0.438,10.051c0.258-3.1,0.465-6.383,0.602-9.863c6.696,7.635,13.773,15.302,19.914,21.307
		c2.614,2.48,2.983,4.08,2.41,5.996c-2.221,7.473-5.484,13.008-8.607,17.033c-2.977-1.463-6.939-3.602-11.965-6.214
		c-0.181-0.095-0.361-0.188-0.542-0.282c-0.782-2.378-1.46-2.975-1.903-2.061c-0.184,0.248-0.365,0.523-0.541,0.785
		c-0.471-0.245-0.939-0.49-1.41-0.736c-0.023-1.188,0.067-3.076,0.312-5.949c0.566-4.933,1.256-11.908,1.73-20.016
		c-0.857,10.266-2.267,18.519-3.463,25.221c-2.297-1.203-4.585-2.414-6.851-3.643c-3.595-10.741-11.363-24.236-24.396-38.766
		c-0.781-0.9-1.538-1.762-2.271-2.592c0.472-0.104,0.836-0.366,0.888-0.799c-0.208-4.99-1.745-17.211-2.168-20.086
		c-2.647,1.43-7.109,3.08-13.146,5.552c-0.166,0.067-0.331,0.135-0.497,0.202c-2.09-1.594-2.88-1.574-2.488-0.312
		c0.072,0.396,0.164,0.818,0.25,1.223c-0.432,0.174-0.861,0.35-1.293,0.523c-0.842-1.117-2.107-3.002-3.977-5.965
		c-3.119-5.203-7.588-12.459-12.963-20.608c6.666,10.546,11.631,19.655,15.637,27.099c-2.108,0.85-4.217,1.685-6.325,2.483
		c-3.195-2.41-6.872-4.705-11.005-6.787c-4.18-6.955-9.014-13.57-13.174-17.914c4.319-2.335,8.688-4.875,13.021-7.66
		c0.625,0.936,1.242,1.863,1.846,2.778c-0.586-0.926-1.184-1.862-1.796-2.811c6.158-3.96,12.246-8.418,18.022-13.519
		c5.084-4.82,6.236-1.617,6.931,7.156c0.12,1.768,0.2,3.514,0.251,5.24c0.469,1.584,2.914,1.084,3.587-0.944
		c0.128-8.27-0.409-18.371-2.212-29.542c-2.188-12.714-4.104-20.583-8.166-33.792c-1.393-2.346-3.299-0.693-3.095,1.64
		c1.234,4.131,2.311,8.137,3.237,12.026c1.613,6.947,0.619,12.38-3.113,17.832c-5.689,8.415-13.374,16.971-22.002,24.111
		c-8.951-12.88-20.344-27.424-35.203-43.324c-22.762-24.255-49.937-45.1-50.629-43.271c9.312,9.283,27.491,26.441,39.787,38.509
		c3.298,3.15,6.275,6,5.979,5.577c-22.296-22.083-17.887-23.692,13.544,9.549c9.303,9.901,18.416,21.763,26.379,33.078
		c-3.576,2.949-7.312,5.656-11.135,8.005c-3.049,1.919-3.457,1.58-5.707-0.591c-12.293-10.786-22.509-14.157-24.992-11.834
		c-0.637,0.713-0.359,1.221,0.966,0.8c0.5-0.164,1.038-0.291,1.61-0.382c0.336,0.496-0.479,3.22-1.499,4.055
		c-0.463,0.077-0.894,0.157-1.306,0.244c5.994,0.162,15.72,5.405,22.75,12.456c-10.178,5.622-20.9,9.325-29.895,11.942
		c-4.749,1.32-6.059,0.974-6.414-2.873c-0.076-0.8-0.137-1.582-0.18-2.344c-0.615-0.43-2.734-0.179-3.563,0.484
		c-0.062,0.949-0.147,2.033-0.233,3.314c-4.088-1.635-8.769-3.435-13.836-5.258c4.988,1.935,9.582,3.891,13.8,5.79
		c-0.091,1.407-0.181,3.044-0.24,4.989c-0.069,2.953-0.169,5.802-0.062,10.227c0.457,0.848,2.487,1.602,3.204,1.004
		c0.131-0.726,0.271-1.454,0.42-2.184c0.691-3.484,2.59-4.065,7.843-5.369c1.444-0.333,3.002-0.717,4.636-1.143
		c5.444,2.676,9.909,4.857,13.503,6.153c10.885,4.612,9.229,1.931,7.427-1.297c-1.529-1.948-0.359-4.821,15.293-0.976
		c2.943,0.698,5.813,1.568,8.568,2.577c1.731,3.206,3.029,6.08,3.999,8.421c-1.323,0.318-2.491,0.561-3.658,0.801
		c-1.231,0.453-2.062,1.189-1.885,1.555c0.595-0.034,1.196-0.071,1.802-0.113c4.667-0.471,4.704,0.825-2.828,7.004
		c-1.812,1.398-3.733,2.725-5.76,3.993c-5.637-3.425-9.362-5.992-13.23-8.919c1.16-0.425,2.209-0.791,3.076-1.062
		c-0.93-0.926-3.656-2.988-9.39-6.408c-2.499-2.012-5.573-3.508-9.071-4.359c-0.832-0.593-1.67-1.182-2.517-1.766
		c-0.11-0.33-0.22-0.66-0.33-0.99c-0.546-1.111-1.335-0.998-1.851-0.302c-1.26-0.669-1.826-0.812-0.846-0.032
		c0.206,0.145,0.408,0.287,0.612,0.43c-0.206,0.441-0.321,1.002-0.278,1.602c0.03,0.102,0.059,0.203,0.089,0.307
		c-5.241-0.301-11.138,0.713-17.319,3.377c-7.158-3.013-14.44-5.131-19.766-5.662c0.758-5.999,1.4-12.236,1.853-18.679
		c0.981,0.344,1.952,0.689,2.907,1.033c-0.953-0.369-1.92-0.738-2.902-1.106c0.641-9.157,0.895-18.729,0.529-28.646
		c-0.553-9.041,2.316-6.981,8.818,0.811c1.298,1.588,2.559,3.186,3.79,4.797c1.366,1.104,2.369-1.503,1.324-4.032
		c-5.694-8.026-13.032-17.222-21.819-26.342c-10.071-10.264-16.618-16.123-28.07-25.221c-2.406-1.032-2.305,2.21-0.565,4.266
		c3.563,2.878,6.948,5.774,10.171,8.687c5.735,5.245,8.977,11.31,10.714,19.777c2.725,13.013,4.446,27.898,4.658,42.251
		c-13.925-4.524-30.358-8.513-49.652-10.779C28.672,85.934-0.874,89.669,0.02,92.025c11.616,0.766,33.62,1.343,48.827,2.173
		c4.018,0.142,7.65,0.273,7.191,0.128c-27.713-1.7-26.4-7.083,14.139-2.665c12.043,1.367,25.347,4.775,37.635,8.663
		c0.08,5.938-0.096,11.785-0.57,17.366c-0.346,4.492-0.807,4.523-3.564,4.407c-14.311,0.392-22.306,6.069-22.057,10.457
		c0.146,1.237,0.653,1.483,1.092-0.077c0.163-0.592,0.37-1.182,0.624-1.768c0.533,0.182,1.981,3.499,1.999,5.188
		c-0.202,0.475-0.383,0.926-0.55,1.366c3.425-5.066,12.452-8.524,21.248-7.903c-1.699,14.25-5.042,27.142-8.185,37.482
		c-1.703,5.404-2.667,6.213-5.546,2.842c-0.6-0.701-1.178-1.396-1.732-2.086c-0.639,0.123-1.635,2.211-1.631,3.568
		c0.628,0.962,1.337,2.074,2.182,3.376c-3.391,1.994-7.224,4.345-11.285,7.011c4.095-2.49,7.989-4.617,11.636-6.473
		c0.931,1.427,2.022,3.069,3.346,4.984c2.021,2.887,3.95,5.702,7.094,9.842c0.845,0.412,2.491-0.633,2.472-1.83
		c-0.434-0.809-0.866-1.629-1.29-2.457c-2.047-3.936-1.405-6.15,0.588-11.976c0.565-1.577,1.158-3.301,1.763-5.131
		c4.873-2.185,8.863-3.987,11.751-5.88c9.228-5.072,6.442-6.197,3.198-7.715c-2.205-0.531-3.56-4.299,7.77-14.26
		c2.111-1.897,4.305-3.566,6.529-5.003c0.469,0.229,0.928,0.46,1.377,0.69c0.573,3.072,1.188,7.185,2.048,12.389
		c0.886,5.422,1.792,10.859,2.523,16.169c-6.776,1.712-11.335,2.048-19.692,2.907c-2.877,0.352-5.761,0.824-8.652,1.42
		c-0.291-0.221-0.582-0.441-0.873-0.66c-1.076-0.588-1.432,0.209-1.231,1.322c-1.162,0.459-1.575,0.816-0.489,0.709
		c0.216-0.043,0.424-0.08,0.639-0.121c0.193,0.601,0.52,1.236,0.961,1.771c3.053,2.493,6.056,5.041,9.017,7.633
		c4.206,3.666,3.835,4.689,1.864,4.922c-11.037,0.709-26.147,9.621-32.695,17.798c-3.764-6.403-7.759-12.933-12.001-19.491
		c0.791-0.531,1.575-1.053,2.35-1.561c-0.792,0.48-1.591,0.976-2.398,1.485c-6.03-9.321-12.563-18.703-19.68-27.875
		c-6.609-8.171-3.588-8.7,5.437-6.91c1.822,0.39,3.636,0.818,5.438,1.287c1.523-0.133,0.26-3.499-2.08-5.011
		c-8.742-2.719-19.208-5.125-30.417-6.193c-12.721-1.041-20.422-0.945-33.093,0.328c-2.048,1.11,0.268,4.125,2.663,4.578
		c3.975-0.352,7.864-0.533,11.676-0.553c6.822,0.02,12.844,3.001,19.708,9.59c10.578,10.078,21.906,22.822,32.03,36.371
		c-10.847,7.807-22.705,18.312-34.942,32.958c-18.641,22.47-32.356,51.792-30.22,53.267c6.951-9.387,19.508-28.016,28.487-40.474
		c2.319-3.366,4.416-6.403,4.062-6.142c-16.494,22.523-19.522,16.226,5.953-14.877c7.606-9.186,17.331-17.52,26.829-24.508
		c4.185,5.613,8.164,11.36,11.792,17.114c2.941,4.601,2.708,5.034,1.105,7.326c-7.633,12.847-8.09,25.245-4.895,29.228
		c0.944,1.057,1.396,0.852,0.55-1.024c-0.322-0.709-0.619-1.452-0.888-2.235c0.421-0.29,3.535,1.623,4.722,3.224
		c0.221,0.632,0.435,1.224,0.651,1.792c-1.644-7.835,0.931-19.014,6.226-26.086c8.996,15.117,16.138,30.367,21.613,42.999
		c2.824,6.657,2.855,8.271-1.085,7.556c-0.819-0.147-1.622-0.309-2.41-0.486c-0.267,0.676,0.637,3.539,1.585,4.834
		c2.227,0.818,5.16,1.988,9.453,3.395c3.128,1.002,6.157,2.013,10.781,3.234c0.754-0.339,0.937-2.775,0.09-3.906
		c-0.807-0.396-1.616-0.803-2.428-1.225c-3.875-1.981-5.062-4.66-8.023-11.973c-5.267-13.398-14.391-34.008-22.173-48.252
		c-1.751-3.092-1.569-4.524-0.34-5.803c4.769-4.996,9.914-8,14.399-9.865c2.459,2.439,5.666,5.84,9.769,10.07
		c3.458,3.577,6.931,7.152,10.309,10.743c-0.107,10.087,2.992,24.151,10.973,41.294c0.469,1.052,0.926,2.062,1.37,3.037
		c-0.505-0.119-0.956-0.067-1.157,0.254c-1.503,4.061-4.164,14.441-4.727,16.909c3.121,0,8.125,0.599,14.975,1.216
		c0.188,0.018,0.377,0.035,0.564,0.052c1.532,2.165,2.325,2.488,2.369,1.317c0.064-0.347,0.117-0.723,0.171-1.081
		c0.487,0.046,0.976,0.091,1.462,0.136c0.455,1.25,1.068,3.293,1.912,6.452c1.321,5.491,3.286,13.205,5.849,22.021
		c-3.026-11.279-4.847-20.677-6.282-28.333c2.389,0.228,4.771,0.467,7.142,0.734c2.352,3.286,5.222,6.688,8.618,10.115
		c1.771,7.324,4.312,14.66,6.961,19.898c-5.097,0.007-10.312,0.156-15.576,0.515c-0.295-0.987-0.582-1.966-0.862-2.93
		c0.259,0.964,0.526,1.942,0.804,2.935c-7.482,0.512-15.066,1.449-22.561,3.033c-6.707,1.654-6.756-1.387-4.438-8.664
		c0.486-1.457,1.004-2.881,1.545-4.275c0.078-1.464-2.525-2.113-3.891-0.786c-2.355,5.191-4.689,11.487-6.57,18.707h111.088
		c0.364-0.849,0.747-1.774,1.159-2.817c-0.163-0.871-1.923-2.34-2.841-2.172c-0.381,0.521-0.77,1.042-1.168,1.557
		c-1.881,2.477-3.969,2.125-9.641,0.911c-1.551-0.354-3.23-0.716-5.002-1.077c-4.497-4.461-8.189-8.111-11.318-10.682
		c-9.244-8.334-8.518-5.488-7.831-2.149c0.853,2.207-1.294,3.992-15.542-5.776c-2.688-1.816-5.246-3.738-7.641-5.723
		c-0.623-3.291-0.928-6.135-1.09-8.412c1.426,0.312,2.671,0.621,3.914,0.93c1.379,0.168,2.457-0.062,2.406-0.428
		c-0.603-0.227-1.213-0.455-1.831-0.682c-4.804-1.627-4.396-2.672,5.214-4.363c2.281-0.336,4.646-0.566,7.097-0.709
		c4.432,5.14,7.257,8.78,10.101,12.767c-1.299-0.159-2.468-0.317-3.424-0.472c0.607,1.133,2.612,3.943,7.143,9.119
		c1.795,2.67,4.338,5.178,7.523,7.352c0.625,0.83,1.258,1.66,1.901,2.488c-0.004,0.311-0.009,0.621-0.011,0.931
		c0.162,1.116,0.982,1.358,1.732,1.028c1.025,1.072,1.542,1.432,0.834,0.389c-0.156-0.202-0.309-0.402-0.463-0.604
		c0.355-0.262,0.663-0.657,0.825-1.152c0.006-0.096,0.013-0.189,0.018-0.285c5.108,2.484,11.32,4.205,18.38,4.734
		c2.075,1.862,4.199,3.645,6.301,5.298h10.969c-2.679-1.716-5.127-3.522-7.348-5.34c5.764-0.459,11.932-1.679,18.404-3.838
		c0.934-0.284,1.832-0.563,2.696-0.84c-2.905,3.384-5.626,6.788-7.864,9.953c-0.016,0.022-0.031,0.042-0.046,0.064h11.699
		c5.462-7.692,11.338-14.274,16.56-19.661c3.547-3.57,4.783-3.801,6.492,0.117c0.355,0.814,0.693,1.614,1.006,2.399
		c0.68,0.177,2.385-1.056,2.846-2.141c-0.295-1.032-0.617-2.222-1.012-3.619c4.061-0.134,8.686-0.362,13.646-0.744
		c-4.934,0.227-9.542,0.251-13.811,0.165c-0.438-1.534-0.959-3.309-1.619-5.399c-1.02-3.163-1.977-6.229-3.684-10.87
		c-0.697-0.689-2.695-0.563-3.085,0.398c0.154,0.829,0.302,1.666,0.441,2.508c0.688,4.01-0.71,5.492-4.688,9.273
		c-1.104,1.013-2.285,2.131-3.514,3.329c-5.596-0.35-10.181-0.625-13.702-0.356c-10.916,0.082-8.531,2.17-5.823,4.766
		c2.01,1.369,2.066,4.948-12.615,8.018c-2.75,0.605-5.504,0.993-8.209,1.183c-0.389-0.384-0.766-0.763-1.133-1.14
		c0.482-2.689,1.281-6.225,2.211-10.733c0.977-4.69,1.939-9.407,3.031-13.944c7.326,1.541,11.976,3.227,20.582,6.123
		c2.98,0.953,6.01,1.812,9.092,2.577c0.213,0.3,0.428,0.601,0.641,0.899c0.87,0.93,1.496,0.447,1.679-0.525
		c1.313,0.133,1.846,0.027,0.729-0.352c-0.228-0.059-0.451-0.117-0.677-0.176c0.014-0.561-0.093-1.207-0.349-1.822
		c-2.182-3.292-4.295-6.609-6.351-9.938c-2.925-4.721-2.206-5.375-0.167-4.715c11.219,4.166,29.301,3.548,38.617-0.15
		c1.549,6.706,3.283,13.611,5.254,20.648c-0.961,0.083-1.913,0.161-2.852,0.233c0.945-0.044,1.903-0.095,2.873-0.153
		c2.187,7.801,4.67,15.765,7.521,23.802h12.867c-3.703-7.931-7.176-16.297-10.191-24.704c13.463-1.562,28.857-4.841,46.049-11.251
		c12.279-4.628,24.001-10.913,32.832-16.504v-5.671C397.693,268.226,387.754,273.068,379.848,276.7z M279.852,193.184
		c3.53,3.465,2.76,5.829,0.284,9.373c-0.56-4.412-1.135-7.93-1.692-10.629C278.959,192.355,279.427,192.771,279.852,193.184z
		 M171.9,113.055c-1.027-0.176-2.016-0.337-2.971-0.488c4.049-1.447,7.923-2.991,11.234-4.551c2.102-1.059,3.311-0.539,4.646,1.012
		c2.6,3.01,4.814,5.996,6.706,8.857C185.627,115.78,179.076,114.107,171.9,113.055z M113.564,145.202
		c-0.691,0.731-1.348,1.437-1.982,2.127c1.229-4.915,2.291-9.771,3.033-14.149c0.424-2.847,1.455-3.401,3.273-3.082
		c3.534,0.613,6.84,1.541,9.879,2.631C123.049,135.848,118.264,139.957,113.564,145.202z M199.562,313.496
		c0.962,0.58,1.89,1.132,2.787,1.66c-4.522-0.583-8.904-1.014-12.731-1.192c-2.453-0.058-3.48-0.988-4.277-2.796
		c-1.554-3.509-2.732-6.834-3.633-9.922C186.843,305.444,192.785,309.582,199.562,313.496z M276.949,218.623
		c0.084,1.156,0.156,2.41,0.211,3.774c0.352,7.46-0.382,14.144-1.934,19.315c-0.293-0.615-0.584-1.23-0.87-1.842
		c-2.445-5.288-3.569-8.224-4.688-11.161c-0.663-1.358-1.462-2.378-1.716-2.284c0.168,0.612,0.344,1.236,0.521,1.862
		c1.498,4.866,0.451,4.601-6.383-4.524c-1.572-2.174-3.112-4.442-4.631-6.805c0.61-2.085,1.178-3.861,1.74-5.459
		c4.129,1.721,8.369,3.463,11.988,4.885C273.143,217.158,275.061,217.902,276.949,218.623z M262.177,243.846
		c-0.646,2.932-1.431,6.668-2.159,9.89c-3.359-3.662-3.949-7.776-5.379-21.94c-0.106-1.012-0.219-2.025-0.33-3.039
		c0.475-1.898,0.976-3.831,1.498-5.799c4.707,6.5,9.725,12.17,15.207,17.044c1.926,1.676,2.659,2.384,3.459,3.931
		c-1.697,4.449-4.093,7.445-6.971,8.346c-5.672,2.788-5.441-1.506-3.824-10.602C263.426,241.473,262.649,242.59,262.177,243.846z
		 M259.059,257.763c-0.029,0.116-0.059,0.229-0.088,0.341c-0.273-0.299-0.547-0.602-0.818-0.91
		C258.457,257.385,258.76,257.575,259.059,257.763z M253.225,210.037c0.504-0.119,1.033-0.244,1.585-0.374
		c0.495,0.208,0.995,0.417,1.499,0.629c-0.552,0.714-1.113,1.417-1.683,2.108C254.157,211.621,253.69,210.834,253.225,210.037z
		 M261.704,207.967c0.302-0.08,0.603-0.162,0.901-0.243c0.063,0.138,0.127,0.271,0.188,0.402
		C262.434,208.08,262.07,208.027,261.704,207.967z M267.928,206.18c0.168-0.773-1.455-2.622-2.432-3.054
		c0.211-0.679,0.43-1.417,0.66-2.235c1.043-2.076,1.529-4.858,1.388-8.223c0.32-0.796,0.636-1.599,0.942-2.417
		c0.623-2.096,0.82-3.661,0.253-2.503c-0.437,1.136-0.874,2.223-1.312,3.268c-0.213-2.199-0.673-4.615-1.397-7.221
		c1.058,0.646,2.118,1.29,3.181,1.932c0.832,0.501,1.604,0.973,2.332,1.424c-0.82,4.584-1.473,8.381-1.66,11.567
		c-1.158,10.011,0.632,8.952,2.832,7.872c0.363-0.328,0.85-0.394,1.371,0.07c-3.545,1.488-6.879,1.911-10.484,1.559
		c0.123-0.244,0.258-0.536,0.406-0.885C265.654,206.872,267.09,206.449,267.928,206.18z M263.445,195.117
		c-1.19,7.609-4.057,3.302-9.507-6.814c-0.278,0.025,0.069,1.771,0.683,3.383c1.689,3.367,3.86,7.629,5.704,11.346
		c-4.408-0.577-7.603-3.998-18.268-16.305c-0.764-0.875-1.532-1.747-2.3-2.619c-1.062-2.232-2.133-4.519-3.217-6.859
		c7.133,2.121,13.856,3.172,20.285,3.061c2.23-0.076,3.129-0.039,4.65,0.744C263.641,186.791,264.406,191.746,263.445,195.117z
		 M231.831,211.881c0.054-0.867,0.106-1.749,0.159-2.654c0.18-4.837,0.277-8.743,0.335-11.896c2.446-0.719,4.692-2.093,6.429-3.59
		c0.337,0.676,0.687,1.377,1.052,2.102c2.933,5.82,5.884,11.221,8.927,16.227c1.246,2.09,1.735,2.963,2.064,4.676
		c-2.373,2.521-4.865,4.881-7.459,7.104C239.188,220.854,235.64,216.992,231.831,211.881z M237.969,228.143
		c-2.471,1.858-4.926,3.577-7.37,5.184c0.077-4.398,0.429-9.364,0.83-15.287c1.624,2.884,3.226,5.759,4.825,8.632
		C236.792,227.193,237.367,227.684,237.969,228.143z M232.442,188.481c0.046-2.634,0.142-3.595,0.524-3.856
		c0.51-0.506,1.347,0.576,2.543,2.743C234.488,187.823,233.469,188.193,232.442,188.481z M243.99,192.806
		c4.204,5.313,5.957,8.288,5.398,10.406C247.591,199.896,245.797,196.429,243.99,192.806z M252.536,236.238
		c0.28,5.805-0.069,8.594-1.839,9.195C251.217,242.445,251.836,239.383,252.536,236.238z M229.063,127.802
		c4.366,0.239,5.589,3.173,6.694,8.723c-3.387-3.735-6.158-6.601-8.348-8.696C227.994,127.787,228.542,127.778,229.063,127.802z
		 M217.986,129.94c0.811-0.247,1.565-0.468,2.282-0.67c2.743,5.1,5.03,9.301,7.147,12.514c6.34,10.591,6.59,8.018,7.053,5.066
		c-0.093-2.122,2.654-2.62,13.477,11.256c5.396,6.832,9.652,13.866,12.399,20.167c-0.591-0.334-1.181-0.668-1.765-1.006
		c-5.037-2.926-7.703-4.758-10.371-6.594c-1.314-0.723-2.465-1.002-2.54-0.689c0.521,0.439,1.051,0.882,1.587,1.327
		c4.22,3.351,3.457,4.009-6.68,1.235c-2.385-0.71-4.816-1.539-7.303-2.477c-1.909-4.322-3.255-7.665-4.404-10.838
		c0.271-0.824,0.543-1.663,0.806-2.486c0.421,0.242,0.813,0.47,1.173,0.684c-0.084-0.449-0.291-1.191-0.668-2.278
		c0.586-1.876,1.085-3.533,1.361-4.52c-0.447-0.888-2.635-1.241-3.474-0.804c-0.357-0.832-0.752-1.73-1.194-2.714
		c-0.871-2.896-2.543-5.981-4.966-9.077c-0.337-0.928-0.682-1.859-1.038-2.793c0.109-0.244,0.223-0.487,0.332-0.731
		c0.221-0.958-0.512-1.504-1.371-1.562c-0.653-1.295-1.043-1.802-0.695-0.668c0.086,0.229,0.17,0.453,0.254,0.68
		c-0.445,0.055-0.886,0.238-1.217,0.562c-0.038,0.074-0.076,0.146-0.114,0.219c-0.985-0.969-2.044-1.932-3.174-2.881
		C215.918,130.56,216.952,130.252,217.986,129.94z M246.336,279.906c0.078,0.307,0.148,0.582,0.213,0.844
		c-5.391-2.921-10.654-6.134-15.816-9.585c1.427-1.978,3.633-4.383,6.848-7.81c1.428-1.543,2.844-3.1,4.244-4.683
		c2.36-2.671,2.245-2.509,2.168,0.424C243.9,266.17,244.641,273.051,246.336,279.906z M224.991,266.271
		c0.077-1.088,0.15-2.176,0.234-3.266c-0.292-1.341-1.775-1.172-2.442,0.609c-0.019-0.023-0.037-0.047-0.057-0.071
		c-0.485-0.116-1.229,0.187-1.847,0.663c-4.373-3.264-8.532-6.533-12.523-9.805c3.063-5.895,8.895-9.564,18.116-15.537
		c-0.402,2.647-0.816,5.274-1.232,7.897c1.205,6.079,6.574,13.167,9.523,15.554C229.782,267.133,227.425,268.609,224.991,266.271z
		 M228.717,275.254c0.125-0.594,0.329-1.186,0.62-1.799c0.266,0.291,0.414,0.525,0.479,0.742
		C230.08,274.828,229.669,275.143,228.717,275.254z M157.088,201.799c-0.795-3.348-0.812-3.695,0.345-7.736
		c0.693-2.395,1.413-4.766,2.157-7.126c0.128-0.401,0.252-0.788,0.375-1.169c0.184,0.998,0.539,2.035,0.984,2.846
		c6.352,5.889,9.809,11.97,12.885,20.576c-0.352,0.666-0.707,1.347-1.069,2.045c-1.837,3.771-3.272,6.836-4.41,9.32
		c-2.681-0.477-5.385-0.346-7.625,0.103c-0.103-0.682-0.21-1.39-0.324-2.123C159.482,212.646,158.4,207.086,157.088,201.799z
		 M159.256,274.258c-0.053,0.039-0.105,0.079-0.158,0.119c-0.002-0.163-0.004-0.326-0.005-0.486
		C159.146,274.012,159.201,274.135,159.256,274.258z M154.094,191.017c-2.505-7.539-5.648-14.497-9.59-20.989
		c-0.18-0.289-0.34-0.549-0.49-0.797c5.639,0.634,11.278,1.637,16.917,2.938c-0.488,2.747-1.479,6.305-2.954,11.406
		c-0.646,2.286-1.278,4.584-1.889,6.901C155.061,194.385,155.102,194.16,154.094,191.017z M155.204,219.16
		c-2.361-6.031-3.085-9.15-1.804-10.598C154.053,211.973,154.648,215.502,155.204,219.16z M170.431,176.541
		c0.024,0.017,0.049,0.033,0.073,0.049c0.455-0.098,0.975-0.76,1.324-1.546c4.903,1.463,9.627,3.028,14.209,4.676
		c-0.443,7.648-4.053,14.2-9.692,24.743c-0.626-2.99-1.235-5.965-1.841-8.937c-3.242-5.894-10.386-10.955-13.759-12.14
		c2.465-7.379,3.925-10.021,6.842-8.656c0.333,1.189,0.667,2.377,0.995,3.57C169.32,179.589,170.516,178.732,170.431,176.541z
		 M179.75,228.804c-2.43-2.315-4.84-4.631-7.244-6.947c-0.648-0.309-1.316-0.565-1.994-0.777c1.416-3.098,2.871-6.041,4.357-8.859
		C176.41,216.918,177.927,222.342,179.75,228.804z M161.277,169.102c-0.331-0.188-0.543-0.368-0.678-0.568
		c-0.454-0.547-0.22-1.068,0.547-1.621C161.256,167.599,161.3,168.318,161.277,169.102z M165.205,227.545
		c-0.948,2.074-1.373,2.8-1.845,2.844c-0.679,0.184-1.142-1.037-1.587-3.271C162.944,227.193,164.084,227.336,165.205,227.545z
		 M161.318,249.175c0.253-1.28,0.528-2.546,0.819-3.799c0.683,0.612,1.366,1.233,2.054,1.866c-0.916,0.85-1.946,1.805-3.039,2.814
		C161.207,249.764,161.262,249.47,161.318,249.175z M163.798,239.021c1.091-3.756,2.343-7.395,3.729-10.936
		c4.613,1.279,9.033,3.752,14.133,7.432c0.271,0.943,0.548,1.903,0.834,2.887c2.516,8.116,4.377,13.75,5.688,17.672
		c-1.52,0.855-3.188,1.795-4.887,2.764c-0.793-0.84-1.639-1.736-2.537-2.678c-4.613-4.83-9.09-9.209-13.5-13.126
		C165.438,241.391,164.703,240.688,163.798,239.021z M177.113,208.094c4.883-8.712,10.049-16.305,15.232-23.834
		c0.111-0.673,0.16-1.389,0.16-2.129c8.193,3.158,15.979,6.551,23.605,10.033c4.809,7.607,9.162,15.028,13.338,22.377
		c-0.617,7.385-1.504,14.332-2.496,21.105c-7.843,4.84-15.582,8.666-23.317,12.435c-0.342,0.489-0.636,1.038-0.891,1.628
		c-7.065-6.024-13.646-12.059-20.037-18.099C180.533,223.498,178.746,215.729,177.113,208.094z M205.665,163.568
		c0.979,0.526,2.024,1.091,3.13,1.679c5.68,3.013,11.075,5.612,16.247,7.75c2.146,0.913,3.024,1.323,4.4,2.675
		c0.446,4.481,0.715,8.911,0.833,13.297c-4.381,0.751-9.033,0.148-14.702-1.424c-0.574-0.876-1.16-1.768-1.763-2.678
		c-5.1-7.456-8.735-12.578-11.28-16.139C203.506,167.129,204.577,165.37,205.665,163.568z M200.687,166.151
		c-2.657-3.719-3.522-4.989-3.488-5.679c-0.091-1.188,1.932-0.354,5.368,1.441C202.039,163.286,201.408,164.682,200.687,166.151z
		 M221.348,143.948c4.061,7.265,1.076,6.946-6.449,3.468c1.363-2.572,2.649-5.111,3.869-7.648
		C219.852,141.148,220.721,142.549,221.348,143.948z M220.417,136.24c0.03-0.066,0.061-0.133,0.091-0.199
		c0.062,0.172,0.123,0.344,0.184,0.516C220.601,136.451,220.51,136.346,220.417,136.24z M225.146,154.244
		c-2.345,2.721-5.586,2.857-14.809,1.42c0.114-0.2,0.23-0.402,0.342-0.598c1.279-2.236,2.486-4.42,3.646-6.58
		C217.568,150.215,221.623,152.341,225.146,154.244z M219.229,163.948c-3.305-1.606-6.712-3.361-10.235-5.253
		C215.018,160.115,218.06,161.436,219.229,163.948z M226.105,167.137c0.467-1.318,0.991-2.799,1.549-4.368
		c0.061,0.334,0.121,0.669,0.182,1.007c0.253,1.474,0.482,2.94,0.693,4.402C227.727,167.841,226.92,167.494,226.105,167.137z
		 M229.846,209.141c-3.024-4.277-6.293-9.334-10.201-15.352c2.908,1.344,5.798,2.699,8.685,4.055
		c0.662,0.032,1.321-0.002,1.974-0.085C230.234,201.689,230.076,205.475,229.846,209.141z M210.455,132.208
		c2.209,1.532,4.18,3.148,5.854,4.813c-0.723,1.317-1.457,2.618-2.207,3.902c-1.986,3.426-2.906,2.809-3.567,0.746
		c-0.611-2.172-1.501-4.564-2.597-7.074C208.756,133.275,209.314,132.682,210.455,132.208z M207.893,130.533
		c-0.529,0.185-1.058,0.369-1.586,0.546c-0.338-0.688-0.688-1.382-1.049-2.077C206.164,129.498,207.041,130.01,207.893,130.533z
		 M202.715,142.021c1.428,5.141,1.892,9.102,1.592,12.645c-0.205-0.035-0.412-0.07-0.623-0.107
		c-1.031-0.171-2.063-0.336-3.096-0.501c-2.143-1.21-4.328-2.465-6.559-3.759C197.272,147.792,200.168,145.047,202.715,142.021z
		 M189.003,154.977c3.699,4.278,7.236,8.686,10.64,13.197c-0.566,1.058-1.135,2.115-1.715,3.17
		c-0.172,1.212,1.418,1.713,2.701,0.506c0.248-0.408,0.516-0.848,0.791-1.301c0.047,0.062,0.094,0.123,0.139,0.186
		c3.964,5.427,7.604,10.721,11.007,15.919c-5.579-1.748-12.136-4.265-20.257-7.247c-0.689-5.008-3.019-10.379-4.594-12.27
		c-1.197,0.266-2.301,1.897-2.545,3.367c0.537,2.391,0.828,4.579,0.896,6.654c-6.04-2.021-10.66-3.485-14.193-4.58
		c-0.882-1.094-2.061-2.558-3.404-4.23c-0.336-1.377-0.682-2.799-1.033-4.234c0.908-0.348,1.879-0.72,2.898-1.121
		c5.238-2.064,10.031-4.28,14.379-6.742C186.533,155.257,187.305,154.883,189.003,154.977z M172.496,137.913
		c2.447,2.251,4.854,4.584,7.33,7.08c1.168,1.189,2.313,2.396,3.449,3.61c-5.261,2.924-11.158,5.553-17.692,8.064
		c-0.446-1.765-0.886-3.472-1.306-5.059c-0.852-3.25-1.705-6.4-2.57-9.475C164.949,140.867,169.043,139.215,172.496,137.913z
		 M162.42,131.674c7.309,3.413,5.438,5.709-1.145,8.938c-1.041-3.65-2.101-7.199-3.195-10.691
		C159.641,130.299,161.098,130.881,162.42,131.674z M156.899,125.17c-0.122-0.021-0.243-0.043-0.366-0.062
		c-0.029-0.088-0.058-0.178-0.087-0.266C156.598,124.951,156.75,125.061,156.899,125.17z M154.805,129.436
		c0.52,1.89,1.02,3.775,1.502,5.658c1.291,5.008,0.352,5.222-1.451,3.823c-3.192-2.665-7.301-5.235-11.747-7.526
		C147.199,129.875,151.195,129.203,154.805,129.436z M141.275,146.072c0.742-4.318,3.508-3.232,8.696-0.674
		c5.413,4.427,8.845,8.395,11.384,12.848c-0.311,0.111-0.622,0.225-0.936,0.336c-0.904-1.06-1.68-1.959-2.195-2.543
		c-0.796-0.076-1.34,2.285-0.834,3.108c0.089,0.138,0.173,0.276,0.262,0.414c-1.946,0.678-3.939,1.352-5.982,2.026
		c-3.705,1.236-6.729,2.164-9.386,2.885c-0.024-0.223-0.048-0.454-0.069-0.709c-0.192-2.134-0.401-4.281-0.619-6.434
		C141.014,151.639,140.902,148.367,141.275,146.072z M113.248,169.954c9.719-1.642,17.661-1.779,26.963-1.095
		c0.317,0.025,0.635,0.057,0.953,0.086c0.594,5.093,0.703,7.869,0.809,10.643c0.193,1.364,0.638,2.52,0.923,2.551
		c0.042-0.557,0.083-1.129,0.119-1.705c0.18-4.512,1.129-3.852,4.798,6.335c1.588,4.663,2.937,9.554,4.113,14.722
		c-0.543-0.122-1.113-0.25-1.708-0.383c-4.578-4.104-9.749-8.715-13.983-12.363C128.173,181.764,120.711,175.641,113.248,169.954z
		 M142.778,199.502c-0.327-0.064-0.652-0.129-0.976-0.191c-0.016-0.136-0.033-0.27-0.049-0.398
		C142.095,199.102,142.437,199.297,142.778,199.502z M127.695,213.984c-4.291-4.939-6.635-7.973-8.028-10.494
		c-2.601-4.777-0.317-6.151,4.331-8.223c6.86-0.545,11.917,0.555,16.983,3.224c-0.206,0.142-0.44,0.315-0.706,0.528
		c-1.795-0.338-3.369-0.617-4.295-0.763c-0.432,0.544,0.549,2.71,1.371,3.474c-0.441,0.449-0.913,0.943-1.424,1.494
		c-3.109,2.145-5.237,6.815-5.732,13.657C129.365,215.916,128.53,214.949,127.695,213.984z M136.646,208.982
		c3.791-5.544,5.166-0.889,7.119,9.494c0.285,0.1,0.537-1.439,0.479-2.986c-0.524-3.403-1.224-7.725-1.783-11.472
		c4.187,2.349,6.19,6.44,12.579,20.805c0.46,1.023,0.925,2.046,1.391,3.069c0.29,2.23,0.572,4.508,0.848,6.834
		c-6.367-4.744-12.693-8.461-19.125-11.127c-2.244-0.895-3.127-1.311-4.37-2.586C133.598,215.521,134.535,211.252,136.646,208.982z
		 M147.768,277.27c-4.262-2.06-4.473-4.918-3.668-9.807c2.086,4.422,3.859,7.888,5.318,10.494
		C148.824,277.739,148.276,277.512,147.768,277.27z M159.516,280.316c-0.89-0.15-1.717-0.299-2.498-0.445
		c-0.98-5.234-1.814-9.558-2.819-13.021c-2.677-11.141-3.807-9.201-5.278-7.053c-0.635,1.729-3.539,0.948-9.545-14.729
		c-3.025-7.748-4.846-15.167-5.418-21.357c0.473,0.52,0.944,1.037,1.41,1.557c4.006,4.486,6.03,7.086,8.055,9.688
		c1.059,1.14,2.107,1.854,2.289,1.638c-0.367-0.572-0.742-1.15-1.124-1.737c-3.047-4.473-2.063-4.669,7.067,1.882
		c2.127,1.587,4.263,3.289,6.414,5.101c0.418,4.257,0.609,7.49,0.665,10.509c-0.552,0.539-1.109,1.09-1.652,1.631
		c-0.337-0.373-0.648-0.723-0.933-1.046c-0.071,0.394-0.121,1.071-0.117,2.101c-1.227,1.24-2.291,2.346-2.903,3.014
		c0.142,0.895,2.192,2.113,3.179,2.126c0.07,0.813,0.154,1.7,0.258,2.671c-0.126,2.676,0.479,5.848,1.827,9.35
		c0.018,0.881,0.041,1.768,0.074,2.663c-0.193,0.147-0.388,0.295-0.581,0.443c-0.547,0.669-0.006,1.419,0.83,1.833
		c0.205,1.309,0.419,1.877,0.461,0.826c-0.008-0.219-0.014-0.434-0.02-0.648c0.461,0.145,0.963,0.188,1.404,0.07
		c0.062-0.042,0.125-0.082,0.188-0.125c0.647,1.193,1.371,2.414,2.17,3.653C161.785,280.707,160.65,280.51,159.516,280.316z
		 M168.576,267.733c-2.238,1.463-4.387,2.932-6.469,4.427c-0.604-1.562-0.989-3.05-1.133-4.431
		C159.427,260.207,162.285,261.74,168.576,267.733z M167.782,281.738c-1.672-2.166-3.077-4.297-4.171-6.34
		c1.17-0.737,2.348-1.457,3.533-2.156c3.148-1.877,3.854-0.992,3.804,0.933c-0.137,1.991-0.071,4.275,0.157,6.741
		C169.839,281.617,169.08,281.85,167.782,281.738z M169.757,284.168c0.589,0.08,1.179,0.16,1.766,0.246
		c0.099,0.691,0.21,1.395,0.33,2.103C171.122,285.733,170.425,284.949,169.757,284.168z M175.396,263.456
		c-2.036,1.229-3.993,2.448-5.884,3.669c-2.631-2.765-5.934-6.192-8.783-9.215c3.263-1.156,6.535,0.123,15.212,5.216
		C175.758,263.236,175.572,263.348,175.396,263.456z M169.936,252.725c2.738,2.695,5.527,5.553,8.385,8.569
		C172.811,257.58,170.236,255.225,169.936,252.725z M178.845,277.246c0.342-4.701,1.237-8.051,2.75-10.742
		c0.194,0.117,0.384,0.23,0.582,0.352c0.969,0.578,1.938,1.152,2.909,1.727c1.715,1.88,3.458,3.814,5.231,5.799
		C186.232,274.986,182.413,275.93,178.845,277.246z M190.656,264.931c-0.318,0.983-2.043-0.547-4.847-3.448
		c0.995-0.865,2.102-1.704,3.323-2.564C190.501,263.015,190.925,264.396,190.656,264.931z M218.971,310.738
		c-0.113-0.152-0.228-0.305-0.34-0.457c0.114,0.069,0.229,0.139,0.344,0.207C218.974,310.572,218.973,310.655,218.971,310.738z
		 M219.088,305.998c-1.424-0.971-2.674-2.058-3.717-3.256c-6.098-5.845-3.45-6.872,4.203-6.619
		C219.357,299.473,219.195,302.75,219.088,305.998z M220.358,286.088c-0.268,2.951-0.499,5.822-0.692,8.639
		c-3.66-0.381-8.297-0.822-12.177-1.265c-1.663-2.839-3.255-5.726-4.864-8.772c-0.753-1.447-1.483-2.897-2.197-4.352
		c6.236-0.072,13.004,0.363,20.365,1.166C220.633,283.099,220.484,284.646,220.358,286.088z M221.504,274.785
		c-1.022-0.111-2.116-0.232-3.268-0.352c-5.917-0.6-11.443-0.891-16.61-0.797c-2.153,0.012-3.049-0.021-4.71-0.826
		c-2.213-4.987-4.219-10.007-6.055-15.053c0.927-0.6,1.855-1.197,2.795-1.79c0.587-0.892-0.822-1.97-2.514-1.56
		c-0.387,0.219-0.803,0.453-1.233,0.695c-0.024-0.068-0.05-0.138-0.073-0.206c-2.082-6.017-3.887-11.788-5.49-17.382
		c4.948,3.78,10.606,8.593,17.662,14.445c-1.029,4.279-0.555,9.551,0.363,11.73c1.281,0.299,2.939-0.525,3.685-1.588
		c0.286-2.133,0.749-3.996,1.392-5.678c5.313,4.195,9.404,7.338,12.543,9.723c0.502,1.248,1.172,2.919,1.937,4.827
		C221.787,272.215,221.645,273.492,221.504,274.785z M222.177,307.786c0.132-1.726,0.28-3.44,0.446-5.146
		c0.433-4.539,1.439-4.305,2.753-2.42c2.262,3.488,5.466,7.294,9.103,11.021C229.892,310.695,225.688,309.519,222.177,307.786z
		 M246.465,285.868c-0.539,1.782-1.068,3.581-1.589,5.387c-1.372,4.777-2.383,7.426-3.54,9.094
		c-2.221,3.117-4.602,1.065-8.887-3.198c-3.862-5.838-5.913-10.463-6.912-15.091c0.348,0.044,0.697,0.088,1.047,0.132
		c0.535,1.23,1,2.278,1.312,2.963c0.766,0.404,2.115-1.242,1.896-2.113c-0.042-0.147-0.077-0.295-0.118-0.441
		c2.166,0.295,4.38,0.611,6.643,0.951c4.107,0.604,7.434,1.16,10.322,1.726C246.586,285.463,246.529,285.656,246.465,285.868z
		 M247.148,234.5c-1.102,5.076-1.931,9.969-2.439,14.734c-0.355,3.007-0.456,3.289-2.992,6.008c-1.51,1.608-3.04,3.188-4.588,4.746
		c-0.265,0.264-0.521,0.519-0.774,0.77c0.159-0.873,0.163-1.852-0.003-2.686c-4.299-7.407-5.652-13.727-5.762-21.891
		c0.578-0.381,1.163-0.769,1.764-1.168c3.12-2.215,5.598-4.039,7.582-5.528c2.502,1.527,5.236,2.583,7.617,3.187
		C247.422,233.258,247.286,233.867,247.148,234.5z M245.463,225.273c1.654-1.244,2.325-1.639,2.809-1.473
		c0.739,0.145,0.781,1.313,0.458,3.284C247.591,226.523,246.505,225.922,245.463,225.273z M277.398,293.359
		c-10.232-2.858-18.176-6.152-27.193-10.686c-0.308-0.156-0.612-0.317-0.918-0.477c1.154-4.307,1.997-6.563,2.844-8.813
		c0.274-1.171,0.229-2.278-0.045-2.426c-0.232,0.427-0.468,0.862-0.703,1.304c-1.724,3.516-2.442,2.582-2.6-7.096
		c0.02-4.387,0.361-8.857,0.961-13.471c0.497,0.329,1.018,0.674,1.562,1.033c3.146,5.227,6.708,11.111,9.669,15.829
		C266.602,277.567,271.926,285.637,277.398,293.359z M275.374,268.607c-7.005-2.506-11.655-5.545-15.778-9.839
		c0.254-0.024,0.547-0.062,0.885-0.118c1.67,1.037,3.139,1.933,4.008,2.445c0.617-0.247,0.385-2.391-0.174-3.35
		c0.594-0.168,1.231-0.359,1.928-0.58c3.829-0.372,7.547-3.177,10.385-8.408c0.494,1.125,0.992,2.251,1.494,3.378
		c2.573,5.769,3.863,9.182,4.386,11.787C283.454,268.84,280.711,268.951,275.374,268.607z"/>
	<path d="M94.14,262.542c0.109-0.22-1.208-2.625-2.506-4.399c-0.969-0.987-1.94-1.996-2.913-3.029
		c-0.813-0.912-1.511-1.684-2.125-2.396c0.013,0.02,0.024,0.039,0.036,0.06C89.292,256.936,91.647,259.729,94.14,262.542z"/>
	<path d="M86.597,252.717c-2.104-3.411-3.211-5.623-4.273-8.418c0.183,0.873,0.417,1.707,0.707,2.486
		C83.929,249.335,84.955,250.811,86.597,252.717z"/>
	<path d="M279.926,118.925c-0.013,0.282,1.982,2.229,3.73,3.517c1.184,0.604,2.377,1.232,3.578,1.881
		c1.023,0.597,1.896,1.096,2.678,1.57c-0.018-0.016-0.033-0.029-0.051-0.045C286.086,122.653,283.066,120.766,279.926,118.925z"/>
	<path d="M289.912,125.893c3.029,2.654,4.777,4.495,6.699,6.972c-0.475-0.842-0.977-1.618-1.508-2.312
		C293.412,128.261,292.002,127.164,289.912,125.893z"/>
</g>
</svg>
