<?xml version="1.0" encoding="utf-8"?>
<!-- Generator: Adobe Illustrator 16.0.5, SVG Export Plug-In . SVG Version: 6.00 Build 0)  -->
<!DOCTYPE svg PUBLIC "-//W3C//DTD SVG 1.1//EN" "http://www.w3.org/Graphics/SVG/1.1/DTD/svg11.dtd">
<svg version="1.1" id="Layer_1" xmlns="http://www.w3.org/2000/svg" xmlns:xlink="http://www.w3.org/1999/xlink" x="0px" y="0px"
	 width="493.877px" height="132.274px" viewBox="0 0 493.877 132.274" style="enable-background:new 0 0 493.877 132.274;"
	 xml:space="preserve">
<g>
	<path class="st0" d="M451.373,55.147c-0.401,0-0.804,0.001-1.207,0.002c-6.741,0.012-13.484,0.018-20.243,0.02
		s-13.535,0-20.343-0.001c-4.539-0.001-9.094-0.002-13.668-0.002c-0.71,0.812-1.442,1.592-2.174,2.36
		c-0.273,0.288-0.548,0.574-0.819,0.86c-1.907,2-3.747,3.961-5.101,6.214c-3.598,5.996-8.103,11.288-12.218,16.86
		c-3.697,5.005-7.537,9.949-11.402,14.845c-3.808,4.825-7.209,10.016-11.063,14.851c-1.67,2.093-3.035,4.431-4.704,6.9
		c0,0,0,0,0.001,0c21.658,0,42.76,0,64.327,0c15.45-20.417,31.021-40.994,46.482-61.425
		C456.922,55.258,454.181,55.149,451.373,55.147z"/>
	<path class="st0" d="M380.716,56.716c-0.987-0.504-1.822-0.934-2.974-1.526c-14.45,0-29.117,0-44.039,0c-4.974,0-9.976,0-15.007,0
		c-7.355,8.524-13.979,17.512-20.73,26.492c-0.922,1.228-1.859,2.451-2.789,3.677c-0.867,1.145-1.726,2.291-2.603,3.432
		c0,5.465,0,11.121,0,16.776c0,0.875,0.309,1.971,0.068,2.673c-0.034,0.101-0.079,0.192-0.138,0.274
		c-0.125,0.175-0.235,0.349-0.333,0.524c-1.46,2.617-0.062,5.308-0.625,7.596c0.723,0.724,1.077,1.077,1.527,1.529
		c6.72,0,13.536,0,20.354,0c6.965,0,13.93,0,21.143,0c0,0,0-0.001,0.001-0.001c15.392-20.495,30.756-40.955,46.143-61.443
		C380.715,56.718,380.715,56.717,380.716,56.716z"/>
	<path class="st0" d="M483.485,58.163c-0.045-0.955-0.089-1.91-0.151-2.865c-3.619,0-7.071,0-9.465,0h-0.001
		c-3.596,2.73-5.375,6.058-7.585,8.968c-0.216,0.284-0.432,0.57-0.657,0.847c-0.213,0.258-0.412,0.523-0.619,0.786
		c-0.731,0.925-1.441,1.866-2.137,2.815c-1.675,2.294-3.294,4.625-5.09,6.832c-2.687,3.302-4.854,7.022-7.508,10.354
		c-2.77,3.478-5.46,6.957-7.831,10.748c-2.125,3.396-4.952,6.35-7.473,9.506c-0.186,0.229-0.371,0.46-0.552,0.693
		c-0.663,0.856-1.311,1.73-1.964,2.598c-2.02,2.677-4.018,5.381-6.056,8.107c-0.001,0-0.001,0.002-0.001,0.002
		c3.383,0.71,26.343,1.015,44.553,0.737c0.136-0.002,0.273-0.004,0.409-0.006c1.977-0.03,3.896-0.068,5.724-0.113
		c1.964-0.048,3.823-0.104,5.54-0.17c0.035-0.001,0.073-0.003,0.109-0.004C481.694,97.822,484.426,77.986,483.485,58.163z"/>
	<path class="st0" d="M292.691,68.174L292.691,68.174c2.647-3.35,4.881-6.177,7.029-8.897c0.535-0.679,1.064-1.349,1.595-2.021
		c0.142-0.179,0.283-0.359,0.425-0.538c-0.792-0.406-1.455-0.749-2.084-1.07c-0.209-0.107-0.413-0.213-0.617-0.318
		c-1.729,0-3.521,0-5.126,0c-0.519,0.517-0.87,0.87-1.224,1.225c0.001,2.588,0.002,5.175,0.002,8.3
		C292.691,65.894,292.691,66.995,292.691,68.174z"/>
	<polygon class="st0" points="19.324,67.868 22.103,67.868 22.103,60.086 24.383,60.086 24.383,57.677 17.058,57.677 17.058,60.086 
		19.324,60.086 	"/>
	<path class="st0" d="M28.603,57.677l-3.52,10.19h2.765l0.527-1.824h3.947l0.514,1.824h2.765l-3.52-10.19H28.603z M28.974,64.063
		L30,60.7c0.043-0.157,0.171-0.613,0.355-1.368c0.186,0.755,0.299,1.211,0.343,1.368l1.04,3.363H28.974z"/>
	<polygon class="st0" points="47.247,67.868 43.155,62.652 46.918,57.677 43.684,57.677 40.462,62.31 40.462,57.677 37.712,57.677 
		37.712,67.868 40.462,67.868 40.462,63.292 43.783,67.868 47.246,67.868 	"/>
	<polygon class="st0" points="55.429,65.587 51.895,65.587 51.895,63.863 55.229,63.863 55.229,61.683 51.895,61.683 51.895,59.916 
		55.429,59.916 55.429,59.915 55.429,57.677 49.187,57.677 49.187,67.868 55.429,67.868 	"/>
	<path class="st0" d="M67.671,68.021c0.347,0.068,0.709,0.104,1.085,0.104c0.912,0,1.753-0.214,2.636-0.642v-3.036
		c-0.741,0.827-1.454,1.226-2.352,1.226c-1.422,0-2.407-0.971-2.631-2.264c-0.032-0.185-0.048-0.376-0.048-0.572
		c0-1.725,1.069-2.949,2.68-2.949c0.897,0,1.61,0.398,2.352,1.226v-3.036c-0.883-0.427-1.724-0.641-2.636-0.641
		c-0.376,0-0.739,0.035-1.085,0.104c-2.429,0.476-4.087,2.547-4.087,5.24C63.583,65.474,65.242,67.545,67.671,68.021z"/>
	<path class="st0" d="M79.903,57.677h-3.478l-3.521,10.19h2.766l0.527-1.824h3.947l0.514,1.824h2.765L79.903,57.677z M76.797,64.063
		l1.025-3.363c0.044-0.157,0.172-0.613,0.356-1.368c0.185,0.755,0.299,1.211,0.342,1.368l1.041,3.363H76.797z"/>
	<path class="st0" d="M88.143,67.867v-3.989l2.337,3.99h3.137l0-0.001l-2.779-4.103h0c1.481-0.313,2.28-1.325,2.28-2.907
		c0,0,0,0,0,0c0-1.055-0.399-1.923-1.141-2.494c-0.869-0.67-1.953-0.684-3.363-0.684h-3.078v10.188v0.002h2.607V67.867z
		 M88.143,59.816h0.555h0.002c1.153,0,1.682,0.342,1.682,1.411c0,0.448-0.139,0.766-0.425,0.97
		c-0.024,0.018-0.056,0.029-0.082,0.045c-0.051,0.03-0.1,0.062-0.159,0.087c-0.153,0.064-0.338,0.104-0.545,0.131
		c-0.036,0.004-0.067,0.012-0.105,0.016c-0.055,0.005-0.119,0.005-0.178,0.008c-0.077,0.003-0.149,0.01-0.232,0.01h-0.001h-0.512
		V59.816z"/>
	<polygon class="st0" points="95.812,57.679 95.812,67.868 102.054,67.868 102.054,65.588 102.054,65.587 98.52,65.587 
		98.52,63.864 98.52,63.863 101.854,63.863 101.854,61.684 101.854,61.683 98.52,61.683 98.52,59.916 102.054,59.916 
		102.054,57.679 102.054,57.677 95.812,57.677 	"/>
	<path class="st0" d="M123.505,57.677h-2.808l-1.196,4.847c-0.085,0.355-0.187,0.854-0.313,1.496c0,0,0-0.002,0-0.002
		c-0.014-0.075-0.085-0.586-0.328-1.494l-1.281-4.847h-0.001h-2.237l-1.283,4.874c-0.128,0.484-0.256,0.998-0.355,1.525
		c0-0.001,0-0.001,0-0.002c-0.086-0.499-0.186-1.011-0.314-1.523l-1.168-4.874h-0.001h-2.807l2.879,10.19h2.579h0.001l1.239-4.347
		c0.114-0.385,0.215-0.84,0.342-1.366c0,0,0-0.001,0-0.002c0.156,0.655,0.271,1.111,0.342,1.368l1.254,4.347h2.578h0.002
		l2.879-10.19H123.505z"/>
	<polygon class="st0" points="132.088,67.868 132.089,67.868 134.867,67.868 134.867,57.677 132.089,57.677 132.088,57.677 
		132.088,61.64 128.383,61.64 128.383,57.677 125.604,57.677 125.604,67.868 128.383,67.868 128.383,63.721 132.088,63.721 	"/>
	<polygon class="st0" points="144.418,65.587 140.884,65.587 140.884,63.863 144.219,63.863 144.219,61.683 140.884,61.683 
		140.884,59.916 144.418,59.916 144.418,59.915 144.418,57.677 138.176,57.677 138.176,67.868 144.418,67.868 	"/>
	<path class="st0" d="M154.695,57.678v5.03h-0.001c0,0.542,0.058,1.211,0.157,2.01c0-0.001-0.001-0.001-0.001-0.002
		c-0.498-1.067-0.826-1.665-0.924-1.793l-3.848-5.245h-0.001h-2.68v10.19h2.68h0.001v-5.031c0-0.542-0.058-1.209-0.157-2.007
		c0,0,0-0.001,0-0.002c0.499,1.069,0.827,1.653,0.927,1.782l3.848,5.259h2.663h0.001h0.001V57.678h-0.002H154.695z"/>
	<path class="st0" d="M167.839,66.913c0.982,0.784,2.223,1.227,3.463,1.227c1.425,0,2.822-0.557,3.862-1.567
		c1.025-0.998,1.582-2.323,1.582-3.777v0c0-1.438-0.542-2.764-1.582-3.775c-1.026-0.998-2.438-1.568-3.862-1.568
		s-2.822,0.57-3.848,1.568c-0.521,0.506-0.919,1.086-1.188,1.722c-0.012,0.027-0.015,0.057-0.026,0.083
		c-0.247,0.613-0.382,1.273-0.382,1.969v0C165.857,64.434,166.556,65.887,167.839,66.913z M171.302,59.801
		c1.554,0,2.665,1.341,2.665,2.993c0,1.667-1.083,2.993-2.665,2.993c-1.625,0-2.665-1.312-2.665-2.993
		C168.637,61.126,169.733,59.801,171.302,59.801z"/>
	<path class="st0" d="M186.888,62.899c0.023-0.047,0.032-0.107,0.053-0.156c0.196-0.46,0.311-0.99,0.311-1.601v0
		c0-1.312-0.527-2.366-1.425-2.936c-0.799-0.513-1.811-0.526-3.094-0.526h-3.106v10.188v0.001h2.607v-0.001v-3.362h1.168
		c0.955,0,1.739-0.043,2.438-0.456C186.296,63.778,186.649,63.389,186.888,62.899z M182.763,62.267L182.763,62.267h-0.527v-2.395
		h0.556h0.001c1.126,0,1.767,0.199,1.767,1.184C184.559,62.04,183.944,62.267,182.763,62.267z"/>
	<polygon class="st0" points="196.047,65.587 192.513,65.587 192.513,63.863 195.848,63.863 195.848,61.683 192.513,61.683 
		192.513,59.916 196.047,59.916 196.047,59.915 196.047,57.677 189.805,57.677 189.805,67.868 196.047,67.868 	"/>
	<path class="st0" d="M207.106,67.867l-2.777-4.103c0,0,0.001,0,0.001,0c0.555-0.118,1.015-0.333,1.372-0.641
		c0.595-0.512,0.906-1.277,0.906-2.266c0-1.056-0.398-1.924-1.14-2.494c-0.869-0.67-1.953-0.684-3.363-0.684h-3.078h-0.001v10.189
		h2.608v-0.001v-3.989l0.001,0.001l2.336,3.989h3.136L207.106,67.867z M202.147,62.495h-0.513v-2.679h0.556
		c1.154,0,1.683,0.342,1.683,1.411C203.873,62.125,203.316,62.495,202.147,62.495z"/>
	<path class="st0" d="M211.629,57.677L211.629,57.677l-3.522,10.19h0.001h2.765l0.526-1.824h0.001h3.947l0.513,1.824h2.766
		l-3.521-10.19H211.629z M211.999,64.063l1.025-3.363c0.043-0.157,0.171-0.613,0.356-1.368c0.185,0.755,0.299,1.211,0.342,1.368
		l1.041,3.363H211.999z"/>
	<polygon class="st0" points="219.34,60.086 221.605,60.086 221.605,67.868 224.385,67.868 224.385,60.086 226.665,60.086 
		226.665,57.677 219.34,57.677 	"/>
	<rect x="229.231" y="57.677" class="st0" width="2.809" height="10.19"/>
	<path class="st0" d="M242.716,57.678v5.03h-0.001c0,0.542,0.057,1.211,0.157,2.01c0-0.001-0.001-0.001-0.001-0.002
		c-0.498-1.067-0.826-1.665-0.925-1.793l-3.848-5.245h-0.001h-2.678v10.19h2.678h0.001v-5.031c0-0.542-0.057-1.209-0.157-2.007
		c0-0.001,0-0.001,0-0.002c0.499,1.069,0.827,1.653,0.928,1.782l3.848,5.259h2.663h0.001h0.001V57.678h-0.002H242.716z"/>
	<path class="st0" d="M253.549,61.982v2.138h2.765c-0.087,0.669-0.501,1.226-1.135,1.56c-0.016,0.008-0.027,0.019-0.043,0.026
		c-0.08,0.04-0.169,0.069-0.256,0.102c-0.057,0.021-0.108,0.049-0.168,0.067c-0.042,0.013-0.09,0.019-0.134,0.029
		c-0.265,0.068-0.55,0.112-0.858,0.112c-1.639,0-2.679-1.169-2.679-3.121c0-1.968,1.054-3.107,2.679-3.107
		c0.898,0,1.61,0.385,2.181,1.168l2.408-1.154c-0.132-0.194-0.271-0.376-0.419-0.547c-0.129-0.149-0.264-0.289-0.404-0.42
		c-0.982-0.917-2.248-1.384-3.766-1.384c-2.744,0-4.854,1.713-5.339,4.213c-0.069,0.357-0.105,0.73-0.105,1.117
		c0,1.438,0.557,2.836,1.525,3.819c1.026,1.04,2.294,1.511,3.919,1.511c3.307,0,5.302-1.995,5.302-5.516
		c0-0.199,0-0.399-0.015-0.612H253.549z"/>
	<path class="st0" d="M21.774,78.617c-0.926-0.242-1.625-0.398-1.625-1.126c0-0.121,0.028-0.235,0.081-0.339
		c0.157-0.308,0.533-0.515,1.045-0.515c0.627,0,1.312,0.271,1.953,0.812l0.001-0.002l0.868-1.993
		c-0.883-0.612-1.881-0.912-3.021-0.912c-1.604,0-2.782,0.793-3.271,1.99c-0.163,0.398-0.25,0.843-0.25,1.317
		c0,1.597,0.898,2.337,2.736,2.821c1.154,0.299,1.71,0.541,1.71,1.354c0,0.149-0.031,0.29-0.09,0.416
		c-0.176,0.382-0.602,0.639-1.18,0.639c-0.812,0-1.609-0.471-2.423-1.396l-1.253,2.063l-0.001,0.002
		c1.097,1.04,2.18,1.496,3.62,1.496c1.497,0,2.648-0.573,3.301-1.522c0.392-0.568,0.604-1.272,0.604-2.068
		C24.583,79.771,23.585,79.102,21.774,78.617z"/>
	<path class="st0" d="M30.784,77.406c-0.085,0.156-0.257,0.413-0.356,0.869c-0.1-0.471-0.271-0.728-0.342-0.869l-1.368-2.623h-3.207
		l3.577,5.544v4.646h2.679v-4.646l3.563-5.544h-3.192L30.784,77.406z"/>
	<path class="st0" d="M40.847,78.617c-0.926-0.242-1.625-0.398-1.625-1.126c0-0.199,0.091-0.37,0.227-0.513
		c0.194-0.204,0.497-0.341,0.899-0.341c0.627,0,1.312,0.271,1.953,0.812l0.001-0.003l0.868-1.992
		c-0.883-0.612-1.881-0.912-3.021-0.912c-1.194,0-2.139,0.45-2.753,1.169c-0.485,0.568-0.768,1.301-0.768,2.139
		c0,1.597,0.897,2.337,2.735,2.821c1.155,0.299,1.711,0.541,1.711,1.354c0,0.299-0.125,0.562-0.345,0.75
		c-0.221,0.189-0.539,0.305-0.925,0.305c-0.812,0-1.61-0.471-2.422-1.395c0-0.001,0-0.001,0-0.001l-1.254,2.065
		c1.097,1.04,2.18,1.496,3.62,1.496c1.198,0,2.175-0.368,2.852-1.001c0.675-0.633,1.052-1.529,1.052-2.59
		C43.654,79.771,42.657,79.102,40.847,78.617z"/>
	<polygon class="st0" points="45.552,77.192 47.817,77.192 47.817,84.973 47.817,84.974 50.597,84.974 50.597,84.973 50.597,77.192 
		52.877,77.192 52.877,74.783 45.552,74.783 	"/>
	<polygon class="st0" points="55.373,74.784 55.373,84.974 61.615,84.974 61.615,82.694 61.615,82.693 58.081,82.693 58.081,80.968 
		61.416,80.968 61.416,78.788 58.081,78.788 58.081,77.021 61.615,77.021 61.615,74.784 61.615,74.783 55.373,74.783 	"/>
	<path class="st0" d="M71.963,74.782L71.963,74.782l0,0.003l-1.552,5.243c-0.114,0.37-0.242,0.826-0.313,1.396
		c0-0.001,0-0.001,0-0.002c-0.086-0.61-0.227-1.053-0.328-1.38l-1.539-5.26h-2.75l0,0.002l-1.567,10.188h2.579h0.001l0.599-4.403
		c0.085-0.612,0.17-1.365,0.227-2.275c0-0.002,0-0.003,0-0.005c0.144,0.897,0.356,1.51,0.471,1.909l1.382,4.774h1.852h0l1.382-4.774
		c0.114-0.398,0.327-1.01,0.47-1.905c0-0.001,0.001-0.002,0.001-0.004c0.057,0.912,0.128,1.667,0.214,2.28l0.599,4.403h2.59h0.004
		l-1.568-10.19H71.963z"/>
	<path class="st0" d="M90.322,74.783h-3.477l-3.521,10.19h0h2.764l0.527-1.824h3.947l0.514,1.824h2.765L90.322,74.783L90.322,74.783
		z M87.217,81.167L87.217,81.167l1.025-3.362c0.043-0.156,0.171-0.612,0.355-1.368c0,0.001,0,0.001,0,0.002
		c0.185,0.755,0.298,1.21,0.341,1.366l1.041,3.362H87.217z"/>
	<polygon class="st0" points="94.558,77.192 96.824,77.192 96.824,84.973 96.824,84.974 99.603,84.974 99.603,84.973 99.603,77.192 
		101.883,77.192 101.883,74.783 94.558,74.783 	"/>
	<polygon class="st0" points="116.466,74.784 116.466,78.746 112.76,78.746 112.76,74.784 112.76,74.783 109.98,74.783 
		109.98,74.784 109.98,84.974 112.76,84.974 112.76,80.827 112.76,80.826 116.466,80.826 116.466,80.827 116.466,84.974 
		119.245,84.974 119.245,74.784 119.245,74.783 116.466,74.783 	"/>
	<polygon class="st0" points="122.625,74.784 122.625,84.973 125.432,84.973 125.433,84.973 125.433,74.783 122.625,74.783 	"/>
	<path class="st0" d="M139.112,79.088h-5.457v2.137v0.001h2.765h0.001c-0.144,1.098-1.154,1.896-2.594,1.896
		c-0.93,0-1.657-0.388-2.121-1.069c-0.354-0.52-0.559-1.207-0.559-2.052c0-1.967,1.056-3.106,2.68-3.106
		c0.83,0,1.495,0.345,2.042,1.014c0.045,0.054,0.094,0.096,0.137,0.154c0,0,0,0.001,0.001,0.001l2.409-1.154
		c-0.099-0.146-0.207-0.278-0.314-0.411c-1.041-1.278-2.48-1.94-4.274-1.94c-3.136,0-5.444,2.236-5.444,5.33
		c0,1.438,0.556,2.835,1.525,3.817c0,0.001,0,0.001,0,0.001c1.025,1.04,2.294,1.511,3.919,1.511c3.307,0,5.302-1.994,5.302-5.516
		c0-0.199,0-0.398-0.014-0.612H139.112z"/>
	<polygon class="st0" points="148.452,74.784 148.452,78.746 144.747,78.746 144.747,74.783 141.967,74.783 141.967,74.784 
		141.967,84.974 144.746,84.974 144.747,84.974 144.747,80.827 144.747,80.826 148.452,80.826 148.452,80.827 148.452,84.974 
		151.23,84.974 151.23,74.784 151.23,74.783 148.452,74.783 	"/>
	<path class="st0" d="M166.499,74.784l-2.025,5.7c-0.042,0.114-0.171,0.57-0.355,1.368c0-0.001,0-0.001,0-0.002
		c-0.186-0.796-0.299-1.252-0.342-1.366l-2.038-5.701h-2.949l0,0.001l4.275,10.189h2.109h0l4.276-10.19L166.499,74.784
		L166.499,74.784z"/>
	<path class="st0" d="M176.163,74.556c-1.426,0-2.822,0.569-3.849,1.566c-1.041,1.012-1.596,2.323-1.596,3.777
		c0,1.639,0.698,3.092,1.981,4.118c0.982,0.783,2.223,1.226,3.463,1.226c1.425,0,2.821-0.556,3.861-1.567
		c0.257-0.249,0.484-0.519,0.68-0.807c0.147-0.216,0.277-0.44,0.39-0.674c0.336-0.701,0.512-1.478,0.512-2.295c0,0,0,0,0-0.001
		c0-1.438-0.542-2.766-1.582-3.776C178.999,75.125,177.588,74.556,176.163,74.556z M178.828,79.901c0,1.666-1.083,2.992-2.665,2.992
		c-1.625,0-2.665-1.312-2.665-2.992c0,0,0,0,0-0.001c0-1.667,1.098-2.992,2.665-2.992C177.717,76.908,178.828,78.248,178.828,79.901
		C178.828,79.901,178.828,79.901,178.828,79.901z"/>
	<polygon class="st0" points="187.268,74.783 184.487,74.783 184.487,74.784 184.487,84.974 190.716,84.974 190.716,82.594 
		190.716,82.593 187.268,82.593 	"/>
	<path class="st0" d="M199.453,74.783v4.889h0.001c0,2.182-0.071,3.235-1.767,3.235c0,0,0,0,0,0c-1.438,0-1.767-0.784-1.767-2.594
		v-5.53h-2.765h-0.001v5.502c0,1.596,0.071,2.793,0.884,3.72c0.727,0.842,1.924,1.239,3.647,1.239h0
		c3.235,0,4.532-1.325,4.532-4.403v-6.058h-2.763H199.453z"/>
	<path class="st0" d="M212.839,74.782L212.839,74.782l0,0.003l-1.552,5.243c-0.114,0.37-0.242,0.826-0.313,1.396
		c0-0.002,0-0.003-0.001-0.005c-0.085-0.608-0.227-1.051-0.327-1.377l-1.539-5.26h-2.75l0,0.002l-1.567,10.188h2.578h0.002
		l0.599-4.403c0.084-0.611,0.17-1.363,0.227-2.271c0-0.003,0-0.006,0-0.009c0.144,0.897,0.356,1.51,0.471,1.909l1.382,4.774h1.851
		h0.001l1.383-4.774c0.113-0.398,0.326-1.009,0.468-1.901c0-0.003,0.001-0.005,0.001-0.008c0.057,0.912,0.128,1.667,0.214,2.28
		l0.599,4.403h2.589h0.005l-1.568-10.19H212.839z"/>
	<polygon class="st0" points="219.796,84.974 219.797,84.974 226.039,84.974 226.039,82.694 226.039,82.693 222.505,82.693 
		222.504,82.693 222.504,80.968 222.505,80.968 225.839,80.968 225.839,78.788 222.505,78.788 222.504,78.788 222.504,77.021 
		222.505,77.021 226.039,77.021 226.039,74.784 226.039,74.783 219.796,74.783 	"/>
	<path class="st0" d="M232.938,78.617c-0.926-0.242-1.625-0.398-1.625-1.126c0-0.121,0.028-0.235,0.081-0.339
		c0.157-0.308,0.533-0.515,1.045-0.515c0.627,0,1.312,0.271,1.953,0.812l0.001-0.002l0.868-1.993
		c-0.883-0.612-1.881-0.912-3.021-0.912c-1.604,0-2.782,0.793-3.271,1.99c-0.163,0.398-0.25,0.843-0.25,1.317
		c0,1.597,0.898,2.337,2.736,2.821c1.154,0.299,1.71,0.541,1.71,1.354c0,0.149-0.031,0.29-0.09,0.416
		c-0.176,0.382-0.602,0.639-1.18,0.639c-0.812,0-1.609-0.471-2.423-1.396l-1.253,2.063l-0.001,0.002
		c1.097,1.04,2.18,1.496,3.62,1.496c1.497,0,2.648-0.573,3.301-1.522c0.392-0.568,0.604-1.272,0.604-2.068
		C235.746,79.771,234.748,79.102,232.938,78.617z"/>
	<path class="st0" d="M267.389,15.832h0.002c0,2.182-0.071,3.235-1.767,3.235c-1.439,0-1.769-0.784-1.769-2.594v-5.53h-2.764h-0.001
		v5.501c0,1.596,0.071,2.793,0.884,3.72c0.728,0.841,1.924,1.24,3.648,1.24c0,0,0,0,0.001,0c3.232,0,4.529-1.326,4.529-4.404v-6.056
		v-0.001h-2.765V15.832z"/>
	<path class="st0" d="M280.704,15.974c0,0.542,0.057,1.211,0.156,2.01c-0.499-1.069-0.826-1.667-0.927-1.796l-3.848-5.245h-2.68
		v10.189h2.68v-5.03c0-0.542-0.059-1.211-0.157-2.011c0.499,1.069,0.827,1.653,0.927,1.782l3.849,5.259h2.665V10.943h-2.665V15.974z
		"/>
	<polygon class="st0" points="286.764,10.943 286.764,21.132 289.57,21.132 289.571,21.132 289.571,10.943 289.57,10.943 	"/>
	<polygon class="st0" points="292.151,10.943 292.151,13.352 292.152,13.352 294.418,13.352 294.418,21.132 294.419,21.132 
		297.196,21.132 297.196,13.352 297.197,13.352 299.478,13.352 299.478,10.943 292.152,10.943 	"/>
	<path class="st0" d="M307.146,16.044c0,2.694,1.659,4.766,4.088,5.241c0.348,0.068,0.71,0.104,1.086,0.104
		c0.912,0,1.753-0.214,2.637-0.642v-3.036c-0.74,0.827-1.453,1.227-2.352,1.227c-1.625,0-2.68-1.27-2.68-2.836
		c0-1.726,1.068-2.95,2.68-2.95c0.897,0,1.61,0.398,2.352,1.226v-3.036c-0.884-0.427-1.725-0.641-2.637-0.641
		C309.313,10.701,307.146,12.966,307.146,16.044z"/>
	<path class="st0" d="M322.685,10.714C322.684,10.714,322.684,10.714,322.685,10.714c-1.426,0-2.822,0.57-3.849,1.568
		c-1.041,1.012-1.598,2.323-1.598,3.776c0,1.639,0.698,3.093,1.981,4.118c0.982,0.784,2.223,1.227,3.463,1.227
		c1.425,0,2.822-0.556,3.862-1.568c1.025-0.998,1.582-2.322,1.582-3.776c0-1.439-0.542-2.766-1.582-3.776
		C325.52,11.285,324.107,10.714,322.685,10.714z M322.684,19.052c-1.625,0-2.665-1.312-2.665-2.992c0-1.667,1.098-2.993,2.665-2.993
		c1.554,0,2.665,1.34,2.665,2.993C325.349,17.727,324.266,19.052,322.684,19.052z"/>
	<path class="st0" d="M338.221,11.913c-1.34-0.94-2.865-0.969-4.761-0.969h-2.451v10.188v0.001h2.836
		c1.696,0,3.106-0.057,4.376-0.954c1.282-0.912,1.966-2.323,1.966-4.134v0C340.187,14.221,339.503,12.81,338.221,11.913z
		 M337.364,16.045c0,1.995-1.011,2.808-3.136,2.808h-0.47v-5.629h0.47c0.262,0,0.508,0.013,0.736,0.038
		C336.567,13.443,337.364,14.275,337.364,16.045L337.364,16.045z"/>
	<polygon class="st0" points="343.067,21.132 343.068,21.132 349.311,21.132 349.311,18.854 349.311,18.853 345.776,18.853 
		345.775,18.853 345.775,17.127 349.11,17.127 349.11,14.949 349.11,14.948 345.776,14.948 345.775,14.948 345.775,13.181 
		345.776,13.181 349.311,13.181 349.311,10.944 349.311,10.943 343.067,10.943 	"/>
	<polygon class="st0" points="357.893,10.944 357.893,21.132 360.601,21.132 360.601,17.128 360.601,17.127 363.936,17.127 
		363.936,14.949 363.936,14.948 360.601,14.948 360.601,13.181 364.135,13.181 364.135,10.944 364.135,10.943 357.893,10.943 	"/>
	<polygon class="st0" points="369.565,18.752 369.565,10.943 366.786,10.943 366.786,21.132 373.015,21.132 373.016,21.132 
		373.016,18.752 373.015,18.752 	"/>
	<polygon class="st0" points="374.186,13.352 376.45,13.352 376.45,21.132 376.451,21.132 379.229,21.132 379.229,13.352 
		379.23,13.352 381.511,13.352 381.511,10.943 374.186,10.943 	"/>
	<path class="st0" d="M389.309,17.03C389.309,17.03,389.31,17.03,389.309,17.03c1.481-0.316,2.28-1.327,2.28-2.908c0,0,0,0,0,0
		c0-0.138-0.025-0.264-0.039-0.395c-0.012-0.12-0.012-0.246-0.035-0.359c-0.036-0.174-0.099-0.333-0.159-0.492
		c-0.022-0.059-0.033-0.125-0.06-0.182c-0.192-0.42-0.478-0.78-0.849-1.065c-0.869-0.67-1.952-0.684-3.362-0.684h-3.078v10.188
		v0.001h2.607v-0.001v-3.988l2.337,3.989h3.137l-0.001-0.002L389.309,17.03z M387.538,15.742c-0.128,0.012-0.264,0.018-0.41,0.018
		h-0.514v-2.679h0.557c1.153,0,1.682,0.342,1.682,1.411C388.853,15.278,388.427,15.659,387.538,15.742z"/>
	<path class="st0" d="M407.098,11.913c-1.34-0.94-2.865-0.969-4.761-0.969h-2.451v10.188v0.001h2.836
		c1.696,0,3.106-0.057,4.376-0.954c1.282-0.912,1.966-2.323,1.966-4.134v0C409.062,14.221,408.38,12.81,407.098,11.913z
		 M406.241,16.045c0,1.122-0.32,1.87-0.979,2.31c-0.22,0.146-0.477,0.259-0.771,0.339c-0.394,0.107-0.854,0.158-1.386,0.158h-0.47
		v-5.629h0.47c0.262,0,0.508,0.013,0.736,0.038C405.444,13.443,406.241,14.275,406.241,16.045L406.241,16.045z"/>
	<path class="st0" d="M417.246,17.03c0.001,0,0.001,0,0.002,0c0.556-0.119,1.015-0.334,1.371-0.642
		c0.596-0.512,0.907-1.277,0.907-2.266c0-1.055-0.398-1.924-1.14-2.494c-0.87-0.67-1.953-0.684-3.364-0.684h-3.077h-0.001v10.189
		h2.608v-0.001v-3.988l0.001,0.001l2.336,3.988h3.136l-0.001-0.002L417.246,17.03z M416.553,15.288
		c-0.208,0.256-0.557,0.399-1.048,0.45c-0.137,0.014-0.281,0.022-0.439,0.022h-0.513v-2.679h0.556c0.577,0,0.998,0.085,1.274,0.305
		c0.276,0.219,0.408,0.572,0.408,1.106C416.791,14.829,416.712,15.091,416.553,15.288z"/>
	<path class="st0" d="M429.435,11.913c-1.34-0.94-2.865-0.969-4.761-0.969h-2.451v10.188v0.001h2.836
		c1.696,0,3.107-0.057,4.376-0.954c1.282-0.912,1.967-2.323,1.967-4.134v0C431.4,14.221,430.717,12.81,429.435,11.913z
		 M428.578,16.045c0,1.122-0.32,1.87-0.979,2.31c-0.22,0.146-0.477,0.259-0.771,0.339c-0.394,0.107-0.854,0.158-1.386,0.158h-0.47
		v-5.629h0.47c0.262,0,0.508,0.013,0.736,0.038C427.781,13.443,428.578,14.275,428.578,16.045L428.578,16.045z"/>
	<polygon class="st0" points="67.522,20.537 64.075,20.537 64.075,12.727 64.074,12.727 61.295,12.727 61.295,22.917 67.522,22.917 
			"/>
	<path class="st0" d="M71.872,21.96c0.982,0.784,2.223,1.227,3.463,1.227c1.425,0,2.822-0.557,3.861-1.567
		c1.026-0.998,1.582-2.323,1.582-3.777v0c0-1.438-0.542-2.764-1.582-3.775c-1.025-0.998-2.437-1.568-3.861-1.568
		s-2.822,0.57-3.849,1.568c-0.521,0.506-0.919,1.086-1.188,1.723c-0.012,0.027-0.015,0.057-0.026,0.084
		c-0.247,0.613-0.381,1.273-0.381,1.968v0C69.891,19.482,70.589,20.936,71.872,21.96z M75.335,14.85c1.554,0,2.665,1.34,2.665,2.992
		c0,1.667-1.083,2.993-2.665,2.993c-1.625,0-2.665-1.312-2.665-2.993C72.67,16.174,73.768,14.85,75.335,14.85z"/>
	<path class="st0" d="M97.1,12.727h-2.807l-1.197,4.846c-0.085,0.356-0.186,0.854-0.312,1.496c0,0,0-0.002,0-0.002
		c-0.015-0.075-0.086-0.586-0.328-1.494l-1.282-4.846h-0.001h-2.237l-1.283,4.874c-0.128,0.483-0.256,0.998-0.355,1.524
		c0-0.001,0-0.001,0-0.002c-0.086-0.499-0.186-1.011-0.314-1.522l-1.168-4.874h-0.001h-2.807l2.879,10.189h2.579h0.001l1.24-4.347
		c0.113-0.384,0.214-0.84,0.341-1.366c0,0,0-0.001,0-0.002c0.157,0.655,0.271,1.111,0.342,1.368l1.254,4.347h2.578h0.002
		l2.879-10.189H97.1z"/>
	<polygon class="st0" points="108.647,18.912 111.982,18.912 111.982,16.732 111.982,16.731 108.647,16.731 108.647,14.963 
		112.182,14.963 112.182,12.727 105.939,12.727 105.939,22.917 108.647,22.917 	"/>
	<path class="st0" d="M118.013,22.916v-3.99l2.337,3.99h3.136l-2.778-4.104c1.481-0.313,2.279-1.325,2.279-2.907
		c0-1.055-0.398-1.924-1.14-2.494c-0.869-0.67-1.953-0.684-3.363-0.684h-3.079v10.188v0.001L118.013,22.916L118.013,22.916z
		 M118.013,14.864h0.555h0.001c1.154,0,1.683,0.342,1.683,1.411c0,0.448-0.14,0.766-0.425,0.97c-0.024,0.018-0.056,0.03-0.083,0.045
		c-0.051,0.03-0.1,0.062-0.159,0.087c-0.149,0.062-0.329,0.102-0.529,0.128c-0.041,0.005-0.077,0.014-0.121,0.019
		c-0.052,0.005-0.113,0.004-0.168,0.007c-0.079,0.004-0.155,0.01-0.241,0.01h-0.001h-0.512V14.864z"/>
	<polygon class="st0" points="126.252,12.727 126.252,22.917 126.253,22.917 132.495,22.917 132.495,20.637 132.495,20.635 
		128.961,20.635 128.96,20.635 128.96,18.912 128.961,18.912 132.295,18.912 132.295,16.732 132.295,16.731 128.961,16.731 
		128.96,16.731 128.96,14.963 128.961,14.963 132.495,14.963 132.495,12.727 126.253,12.727 	"/>
	<path class="st0" d="M146.719,24.114L146.719,24.114l-1.852-2.466c1.068-0.955,1.639-2.294,1.639-3.819
		c0-1.438-0.57-2.779-1.596-3.777c-1.041-1.012-2.396-1.553-3.849-1.553h0c-1.453,0-2.821,0.557-3.847,1.553
		c-1.041,1.013-1.596,2.338-1.596,3.777c0,2.964,2.309,5.33,5.486,5.33c0,0,0,0,0,0c0.855,0,1.596-0.171,2.165-0.47
		c0,0,0.001,0,0.001,0l1.083,1.426H146.719z M143.727,17.915c0,0.153-0.013,0.293-0.03,0.429c-0.003,0.025-0.002,0.054-0.005,0.078
		c-0.014,0.095-0.038,0.178-0.058,0.265c-0.014,0.058-0.022,0.121-0.039,0.175c-0.022,0.073-0.052,0.135-0.078,0.201
		c-0.022,0.057-0.042,0.12-0.066,0.173c-0.055,0.115-0.116,0.221-0.18,0.317l-0.526-0.697h-2.407h-0.001l1.438,1.852l0,0.001
		c-0.242,0.101-0.456,0.157-0.698,0.157c-1.582,0-2.68-1.311-2.68-3.021v0c0-1.709,1.154-3.006,2.665-3.006
		C142.587,14.836,143.726,16.119,143.727,17.915C143.727,17.914,143.727,17.914,143.727,17.915z"/>
	<path class="st0" d="M158.964,18.784v-6.056v-0.001h-2.765v0.001v4.887c0,2.181-0.071,3.235-1.768,3.235
		c-1.438,0-1.767-0.784-1.767-2.595v-5.528v-0.001h-2.766v0.001v5.5c0,0.026,0,0.05,0,0.075c0.002,1.162,0.047,2.112,0.403,2.897
		c0.121,0.268,0.278,0.516,0.481,0.748c0.727,0.841,1.924,1.239,3.647,1.239C157.667,23.187,158.964,21.862,158.964,18.784z"/>
	<polygon class="st0" points="169.027,20.637 169.027,20.635 165.494,20.635 165.494,18.912 168.829,18.912 168.829,16.732 
		168.829,16.731 165.494,16.731 165.494,14.963 169.027,14.963 169.027,12.727 162.786,12.727 162.786,22.917 169.027,22.917 	"/>
	<path class="st0" d="M182.542,22.917V12.727h-0.001h-0.001h-2.664v5.03c0,0.542,0.057,1.211,0.157,2.011
		c0-0.001-0.001-0.001-0.001-0.002c-0.498-1.068-0.826-1.665-0.925-1.793l-3.848-5.245h-0.001h-2.678v10.189h2.678h0.001v-5.031
		c0-0.542-0.057-1.209-0.157-2.007c0-0.001,0-0.001,0-0.002c0.499,1.069,0.827,1.653,0.927,1.782l3.849,5.259h2.663H182.542z"/>
	<path class="st0" d="M193.815,19.496c-0.74,0.827-1.454,1.227-2.352,1.227c-1.244,0-2.153-0.744-2.511-1.796
		c-0.051-0.15-0.091-0.307-0.119-0.469c-0.032-0.185-0.048-0.376-0.048-0.572c0-1.725,1.068-2.949,2.679-2.949
		c0.897,0,1.611,0.398,2.352,1.226v-3.036c-0.883-0.427-1.724-0.641-2.636-0.641c-3.007,0-5.173,2.266-5.173,5.344
		c0,3.079,2.166,5.345,5.173,5.345c0.912,0,1.753-0.214,2.636-0.642V19.496z"/>
	<path class="st0" d="M201.956,12.727l-1.354,2.622c-0.085,0.156-0.256,0.414-0.355,0.869c-0.101-0.47-0.271-0.727-0.343-0.869
		l-1.367-2.622h-3.207l3.576,5.544v4.646h2.68v-4.646l3.562-5.544H201.956z"/>
	<polygon class="st0" points="61.295,40.022 61.296,40.022 67.538,40.022 67.538,37.743 67.538,37.742 64.004,37.742 64.003,37.742 
		64.003,36.017 67.338,36.017 67.338,33.836 67.338,33.835 64.004,33.835 64.003,33.835 64.003,32.07 64.004,32.07 67.538,32.07 
		67.538,29.833 67.538,29.832 61.295,29.832 	"/>
	<path class="st0" d="M78.386,29.832v5.031h-0.001c0,0.542,0.057,1.212,0.157,2.01c0-0.001-0.001-0.001-0.001-0.002
		c-0.498-1.067-0.826-1.666-0.924-1.793l-3.849-5.245h-0.001h-2.678v10.19h2.678h0.001v-5.031c0-0.541-0.057-1.209-0.157-2.006
		c0,0,0-0.001,0-0.002c0.499,1.067,0.827,1.652,0.928,1.781l3.848,5.259h2.663h0.001h0.001v-10.19h-0.002H78.386z"/>
	<polygon class="st0" points="84.942,40.022 84.943,40.022 91.186,40.022 91.186,37.743 91.186,37.742 87.651,37.742 87.65,37.742 
		87.65,36.017 90.985,36.017 90.985,33.836 90.985,33.835 87.651,33.835 87.65,33.835 87.65,32.07 87.651,32.07 91.186,32.07 
		91.186,29.833 91.186,29.832 84.942,29.832 	"/>
	<path class="st0" d="M100.038,35.917c1.481-0.312,2.279-1.325,2.279-2.907v0c0-1.055-0.398-1.924-1.14-2.493
		c-0.869-0.67-1.953-0.686-3.363-0.686h-3.079v0.001v10.189h2.608v-3.989v-0.001l2.337,3.99h3.135h0L100.038,35.917L100.038,35.917z
		 M97.856,34.649h-0.513v-2.68h0.556c1.154,0,1.683,0.343,1.683,1.41C99.582,34.279,99.025,34.649,97.856,34.649z"/>
	<path class="st0" d="M115.886,34.137h-5.457v2.136v0.001h2.764h0.001c-0.143,1.098-1.153,1.896-2.594,1.896
		c-1.024,0-1.814-0.457-2.263-1.276c-0.269-0.491-0.416-1.113-0.416-1.845c0-1.967,1.055-3.106,2.679-3.106
		c0.83,0,1.495,0.344,2.042,1.012c0.045,0.055,0.095,0.097,0.138,0.156c0,0,0,0,0.001,0.001l2.409-1.154
		c-0.124-0.183-0.256-0.353-0.394-0.515c-1.033-1.214-2.446-1.837-4.195-1.837c-3.135,0-5.443,2.236-5.443,5.33
		c0,1.438,0.556,2.835,1.524,3.818l0,0c1.026,1.04,2.294,1.512,3.919,1.512c3.308,0,5.302-1.995,5.302-5.517
		c0-0.199,0-0.397-0.014-0.611H115.886z"/>
	<path class="st0" d="M123.898,29.832l-1.354,2.623c-0.085,0.156-0.255,0.413-0.356,0.867c0,0.001,0,0.001,0,0.002
		c-0.1-0.471-0.271-0.727-0.342-0.869l-1.368-2.623h-3.206h-0.001l3.577,5.544v4.646h2.679v-0.001v-4.646l3.563-5.544H123.898
		L123.898,29.832z"/>
	<polygon class="st0" points="135.432,29.833 135.432,40.022 141.674,40.022 141.674,37.743 141.674,37.742 138.14,37.742 
		138.14,36.018 138.14,36.017 141.475,36.017 141.475,33.836 141.475,33.835 138.14,33.835 138.14,32.07 141.674,32.07 
		141.674,29.833 141.674,29.832 135.432,29.832 	"/>
	<path class="st0" d="M150.64,34.734l3.406-4.902h-3.291h-0.001l-1.227,2.366c-0.084,0.17-0.255,0.426-0.354,0.836
		c0,0.001-0.001,0.003-0.001,0.004c-0.101-0.413-0.256-0.655-0.342-0.841l-1.227-2.366H144.3h-0.003l3.42,4.846l-3.777,5.346h3.15
		l0.001-0.002l1.74-3.021c0.143-0.242,0.256-0.513,0.342-0.841c0.085,0.328,0.214,0.599,0.355,0.841l1.725,3.021l0,0.001h3.148
		l0-0.001L150.64,34.734z"/>
	<path class="st0" d="M163.197,30.359c-0.199-0.128-0.412-0.225-0.639-0.298c-0.661-0.214-1.447-0.228-2.372-0.228
		c-0.029,0-0.053-0.001-0.083-0.001h-3.105h-0.001v10.19h0.001h2.606v-3.363h0.001h1.167c0.955,0,1.739-0.043,2.438-0.456
		c0.912-0.542,1.411-1.554,1.411-2.907C164.624,31.984,164.096,30.929,163.197,30.359z M161.673,34.025
		c-0.284,0.307-0.8,0.396-1.539,0.396h-0.527v-2.394v-0.001h0.557c1.126,0,1.767,0.199,1.767,1.183
		C161.93,33.578,161.843,33.841,161.673,34.025z"/>
	<path class="st0" d="M172.763,29.604c-1.425,0-2.822,0.569-3.848,1.566c-1.041,1.013-1.597,2.323-1.597,3.777
		c0,1.639,0.698,3.092,1.981,4.118c0.983,0.784,2.223,1.226,3.463,1.226c1.425,0,2.822-0.556,3.862-1.566
		c0.256-0.25,0.483-0.52,0.68-0.807c0.589-0.862,0.902-1.88,0.902-2.97v0c0-1.439-0.542-2.765-1.582-3.777
		C175.599,30.173,174.188,29.604,172.763,29.604z M172.763,37.941c-0.203,0-0.397-0.021-0.581-0.06
		c-0.171-0.037-0.332-0.092-0.484-0.16c-0.011-0.005-0.025-0.007-0.036-0.012c-0.307-0.141-0.571-0.345-0.794-0.592
		c-0.014-0.016-0.032-0.027-0.045-0.043c-0.078-0.09-0.141-0.193-0.207-0.294c-0.033-0.05-0.073-0.094-0.102-0.146
		c-0.051-0.09-0.086-0.19-0.128-0.287c-0.032-0.075-0.072-0.144-0.099-0.222c-0.042-0.123-0.067-0.255-0.096-0.386
		c-0.013-0.061-0.034-0.117-0.044-0.179c-0.032-0.197-0.048-0.401-0.048-0.611c0-1.668,1.098-2.993,2.665-2.993
		c0.194,0,0.381,0.021,0.561,0.061c0.515,0.115,0.958,0.39,1.306,0.771c0.015,0.016,0.034,0.028,0.049,0.045
		c0.059,0.067,0.105,0.147,0.158,0.222c0.053,0.074,0.112,0.142,0.158,0.221c0.018,0.03,0.028,0.065,0.044,0.096
		c0.071,0.132,0.139,0.267,0.191,0.413c0.022,0.062,0.033,0.131,0.051,0.196c0.035,0.12,0.074,0.239,0.096,0.365
		c0.033,0.195,0.051,0.397,0.051,0.604C175.428,36.616,174.345,37.941,172.763,37.941z"/>
	<path class="st0" d="M185.578,33.666c-0.927-0.242-1.625-0.397-1.625-1.126c0-0.121,0.028-0.235,0.08-0.337
		c0.156-0.308,0.533-0.516,1.046-0.516c0.627,0,1.311,0.271,1.953,0.812l0.868-1.995c-0.883-0.611-1.881-0.912-3.021-0.912
		c-1.646,0-2.837,0.841-3.301,2.091c-0.139,0.374-0.22,0.78-0.22,1.217c0,1.597,0.898,2.337,2.736,2.821
		c1.155,0.3,1.71,0.541,1.71,1.354c0,0.149-0.031,0.289-0.089,0.415c-0.176,0.382-0.601,0.64-1.179,0.64
		c-0.812,0-1.61-0.471-2.424-1.396l-1.252,2.063l-0.001,0.002c1.098,1.04,2.181,1.496,3.62,1.496c1.498,0,2.65-0.574,3.302-1.524
		c0.391-0.568,0.603-1.271,0.603-2.067C188.386,34.82,187.388,34.15,185.578,33.666z"/>
	<path class="st0" d="M197.892,29.831v4.889h0.001c0,2.182-0.071,3.235-1.766,3.235c0,0,0,0,0,0c-1.439,0-1.768-0.784-1.768-2.594
		v-5.53h-2.764h-0.001v5.502c0,1.597,0.071,2.793,0.883,3.72c0.728,0.842,1.924,1.239,3.648,1.239h0
		c3.234,0,4.532-1.325,4.532-4.402v-6.059h-2.764H197.892z"/>
	<path class="st0" d="M209.782,35.917L209.782,35.917c1.481-0.312,2.279-1.325,2.279-2.907c0,0,0,0,0,0
		c0-1.054-0.398-1.923-1.14-2.493c-0.869-0.67-1.953-0.686-3.363-0.686h-3.079v10.189v0.001h2.608v-0.001v-3.989l2.337,3.99h3.136
		l0-0.001L209.782,35.917z M207.601,34.649h-0.513v-2.68h0.556c1.154,0,1.683,0.343,1.683,1.41
		C209.326,34.278,208.77,34.649,207.601,34.649z"/>
	<polygon class="st0" points="215.328,40.022 221.569,40.022 221.569,37.743 221.569,37.742 218.036,37.742 218.036,36.018 
		218.036,36.017 221.371,36.017 221.371,33.836 221.371,33.835 218.036,33.835 218.036,32.07 221.569,32.07 221.569,29.832 
		215.328,29.832 	"/>
	<polygon class="st0" points="24.3,30.604 25.302,20.254 25.303,20.244 25.303,16.453 25.302,16.453 21.068,16.453 21.068,20.244 
		22.086,30.604 	"/>
	<rect x="21.235" y="32.955" class="st0" width="3.913" height="3.913"/>
	<path class="st0" d="M358.417,36.024c0.574,0,1.019-0.042,1.322-0.184c0.101-0.048,0.186-0.106,0.255-0.178
		c0.092-0.096,0.155-0.216,0.189-0.365c0.02-0.085,0.029-0.18,0.029-0.285c0-0.912-0.628-1.04-1.753-1.04h-0.6v2.052H358.417
		L358.417,36.024z"/>
	<path class="st0" d="M341.909,34.084h-0.556v0.001v2.679h0.513c1.169,0,1.726-0.371,1.726-1.268c0,0,0,0,0,0
		C343.592,34.427,343.063,34.084,341.909,34.084z"/>
	<path class="st0" d="M398.199,37.049c0-2.023-1.04-2.821-3.136-2.821h-0.469h-0.001v5.629h0.001h0.469
		C397.188,39.857,398.199,39.044,398.199,37.049z"/>
	<path class="st0" d="M279.489,40.057c1.582,0,2.666-1.326,2.666-2.993c0-1.653-1.11-2.993-2.666-2.993
		c-1.565,0-2.663,1.325-2.663,2.993C276.826,38.746,277.866,40.057,279.489,40.057z"/>
	<path class="st0" d="M370.161,33.601c-0.186,0.755-0.312,1.211-0.355,1.367l-1.026,3.363h2.766h0.001l-1.042-3.363
		C370.461,34.812,370.348,34.356,370.161,33.601z"/>
	<path class="st0" d="M294.004,38.262c0.052-0.16,0.093-0.333,0.12-0.52c0.032-0.213,0.048-0.444,0.048-0.693
		c0-2.023-1.04-2.821-3.135-2.821h-0.472v5.629h0.472C292.662,39.857,293.637,39.381,294.004,38.262z"/>
	<path class="st0" d="M358.872,37.833h-1.012v2.225h0.969c1.184,0,1.811-0.229,1.811-1.069
		C360.64,38.019,360.069,37.833,358.872,37.833z"/>
	<path class="st0" d="M493.575,10.915c0-3.478,0-6.953,0-10.25c-0.132-0.132-0.254-0.254-0.371-0.371
		c-0.176-0.176-0.342-0.343-0.521-0.522c-0.18-0.181-0.375-0.375-0.606-0.606c-1.358,0-2.994,0-4.629,0c-14.166,0-28.332,0-42.498,0
		c-14.333,0-28.666,0-42.998,0c-14.167,0-28.336-0.186-42.498,0.052c-14.193,0.238-28.431-1.111-42.585,0.948
		c-31.831,0-63.663,0-95.495,0c-2.607,0-5.215-0.013-7.822-0.014c-2.262-0.001-4.524,0.009-6.786,0.048
		c-0.13,0.002-0.261,0-0.392,0.003c-1.378,0.025-2.748,0.499-3.085,0.563c-2.664-0.264-4.374-0.556-6.087-0.577
		c-4.999-0.064-9.999-0.022-14.999-0.022s-10,0-15,0c-4.833,0-9.667,0-14.5,0c-4.999,0-10.019,0.26-14.994-0.073
		c-4.953-0.33-9.697,1.094-14.59,1.091C82.786,1.152,42.454,1.166,1.727,1.166c-0.117,0.235-0.254,0.47-0.392,0.695
		C0.921,2.538,0.504,3.138,0.658,3.456c0.719,1.477-1.147,2.347-0.531,3.896c0.571,1.438,0.432,3.197,0.433,4.815
		C0.58,50.167,0.575,88.166,0.575,126.165c0,1.626,0,3.252,0,5c0.001,0,0.002,0,0.003,0c1.831,0,3.312,0.027,4.789-0.005
		c20.525-0.462,41.049,0.478,61.597-0.807c15.438-0.962,30.986-0.188,46.485-0.188c15.667,0,31.333,0,46.998,0
		c15.5,0,30.999,0,46.499,0c15.499,0,30.999,0,46.498,0c15.666,0,31.336-0.18,46.998,0.051c15.362,0.226,30.761-1.095,46.085,0.949
		c39.165,0,78.331,0.015,117.496-0.031c2.874-0.002,5.844,0.668,8.616-0.916c0.622-0.355,2.003-0.385,2.393,0.033
		c1.414,1.521,3.125,0.914,4.659,0.853c2.039-0.082,4.208-1.225,6.052-0.783c2.393,0.572,4.404-0.51,6.474-0.202
		c0.205-0.352,0.348-0.484,0.351-0.621c0.491-21.191-0.371-42.377,0.801-63.595C494.376,47.624,493.575,29.248,493.575,10.915z
		 M50.668,45.006c0-3.073,0-6.135,0-9.188c0-9.159,0-18.23,0.001-27.261c1.849-1.512,3.931-1.409,6.033-1.407
		c0.002,0,0.005,0,0.008,0c21.158,0.022,42.314,0.015,63.473,0.015c0,0,0,0,0.001,0c0.78-0.126,1.561-0.24,2.34-0.341
		c10.929-1.424,21.918-0.542,32.882-0.585c0.783-0.003,1.566-0.011,2.351-0.024c12.76-0.222,25.527-0.051,38.291-0.049
		c0.063,0,0.128,0,0.191,0c6.328-0.001,12.658,0.008,18.989,0.009s12.661-0.006,18.992-0.038c0,0,0,0,0.001,0
		c1.476-0.008,2.891,0.116,4.256,0.457c1.367,0.341,2.683,0.9,3.959,1.762c0,11.145,0,22.259,0,33.312
		c-0.646,1.085-1.288,2.157-1.994,3.34c0,0,0,0-0.001,0C177.295,45.007,114.195,45.007,50.668,45.006
		C50.668,45.007,50.668,45.007,50.668,45.006z M5.447,25.594c0.043-5.616,0.324-11.17,0.737-16.621
		c1.839-1.556,3.59-1.793,5.295-1.816c0.567-0.007,1.13,0.009,1.689,0.009c9.153,0,18.311,0,27.466,0.002
		c0.031,0,0.057,0.002,0.086,0.004c0.028,0.001,0.06,0.002,0.083,0.004c0.043,0.004,0.072,0.008,0.084,0.011
		c0.001,0,0.007,0.001,0.008,0.001c0.004,0.001,0,0.001-0.017,0c0,0,0,0,0,0s0,0-0.001,0c1.266,0.751,2.345,1.392,3.287,1.95
		c0.187,0.474,0.397,0.759,0.397,1.046c0.02,9.653-0.018,19.309,0.04,28.962v0c0.011,1.835-0.076,3.59-0.948,5.175
		c-0.138,0.251-0.292,0.498-0.472,0.74c-2.549,0-5.1-0.001-7.653-0.001c-9.574-0.001-19.208-0.001-29.13-0.001c0,0,0,0,0-0.001
		c-0.394-3.406-0.642-6.803-0.792-10.187C5.467,31.764,5.423,28.67,5.447,25.594z M487.555,74.677
		c-0.275,8.026-0.777,16.049-0.945,24.076c-0.166,7.984-0.036,15.978-0.036,23.913l-0.001,0.001
		c-0.522,0.522-0.995,0.995-1.499,1.499c-0.002,0-0.004,0-0.006,0c-5.125,0-10.283,0-15.439,0c-0.002,0-0.004,0-0.006,0
		c-5.329,0-10.658,0-15.987,0c-2.584,0-5.171,0.058-7.756,0.078c-2.582,0.021-5.162,0.005-7.733-0.142
		c-0.659-0.037-1.316-0.051-1.972-0.047c-4.579,0.032-9.062,0.965-13.611,1.082c-2.581,0.065-5.163,0.072-7.746,0.063
		c-2.582-0.01-5.165-0.035-7.747-0.035c-0.002,0-0.004,0-0.006,0c-5.162,0-10.324,0-15.487,0c-0.002,0-0.004,0-0.006,0
		c-5.329,0-10.658,0-15.987,0c-0.002,0-0.004,0-0.006,0c-5.161,0-10.322,0-15.485,0c-2,0-4.001,0.017-6.001,0.02
		c-1.998,0.003-3.996-0.007-5.992-0.06c-0.38-0.01-0.764-0.076-1.153-0.16c-0.854-0.186-1.764-0.497-2.872-0.763l-0.001,0.001
		c-0.39,0.345-0.754,0.668-0.929,0.821c-0.002,0-0.003-0.001-0.005-0.001c-4.459-1.186-8.894-1.058-13.298-0.904
		c-0.939,0.033-1.878,0.066-2.814,0.089c-0.114,0.003-0.229,0.004-0.344,0.006c-0.294,0.007-0.589,0.013-0.884,0.017
		c-0.322,0.003-0.644,0.003-0.966,0.002c-0.086,0-0.172,0.001-0.258,0c-0.409-0.003-0.816-0.01-1.225-0.022
		c-3.412-0.105-6.827-0.117-10.243-0.103c-3.415,0.015-6.831,0.056-10.246,0.056c-0.002,0-0.004,0-0.006,0
		c-6.641,0-13.283,0-19.825,0c-0.499-0.985-0.919-1.813-1.364-2.697c0.125-0.477,0.307-0.979,0.473-1.494
		c0.021-0.064,0.043-0.127,0.062-0.191c0.183-0.585,0.33-1.186,0.338-1.786c0.08-8.146,0.042-16.295,0.042-24.166
		c-0.639-0.688-1.024-1.506-1.549-1.606c-2.393-0.464-4.818-0.959-7.242-1.013c-3.165-0.068-6.33-0.079-9.496-0.073
		c-3.165,0.006-6.33,0.028-9.494,0.028c-0.002,0-0.004,0-0.006,0c-10.161,0-20.321,0-30.481,0c-0.002,0-0.004,0-0.006,0
		c-0.165,0-0.329,0-0.494,0c-0.002,0-0.004,0-0.006,0c-0.165,0-0.329,0-0.494,0c-0.002,0-0.004,0-0.006,0c-0.165,0-0.329,0-0.494,0
		c-0.002,0-0.004,0-0.006,0c-0.165,0-0.329,0-0.494,0c-0.002,0-0.004,0-0.006,0c-0.165,0-0.329,0-0.494,0
		c-0.084,0-0.169-0.006-0.254-0.008c-0.083-0.003-0.165-0.001-0.245,0.015c-0.146,0.029-0.295,0.1-0.419,0.188
		c-0.134,0.096-0.239,0.23-0.356,0.349c-0.116,0.118-0.219,0.275-0.359,0.339c-0.001,0.001-0.004-0.001-0.005-0.001
		c-0.082,0.032-0.241-0.062-0.338-0.133c-0.134-0.099-0.239-0.23-0.357-0.35s-0.217-0.274-0.358-0.344
		c-0.07-0.033-0.15-0.045-0.234-0.049c-0.042-0.002-0.084-0.002-0.127-0.003c-0.039,0-0.077,0-0.115-0.002
		c-0.167-0.007-0.333-0.001-0.5-0.001c-0.002,0-0.004,0-0.006,0c-0.165,0-0.329,0-0.494,0c-0.084,0-0.172-0.01-0.257-0.014
		c-0.084-0.004-0.166-0.001-0.239,0.025c-0.143,0.05-0.256,0.19-0.375,0.298c-0.123,0.113-0.234,0.236-0.354,0.353
		c-0.118,0.114-0.224,0.271-0.364,0.325c-0.074,0.029-0.157,0.032-0.243,0.028c-0.083-0.003-0.17-0.014-0.252-0.014
		c-0.002,0-0.004,0-0.006,0c-0.165,0-0.329,0-0.494,0c-0.002,0-0.004,0-0.006,0c-0.165,0-0.329,0-0.494,0c-0.002,0-0.004,0-0.006,0
		c-0.165,0-0.329,0-0.494,0c-0.002,0-0.004,0-0.006,0c-0.165,0-0.329,0-0.494,0c-0.002,0-0.004,0-0.006,0c-0.165,0-0.329,0-0.494,0
		c-0.002,0-0.004,0-0.006,0c-0.165,0-0.329,0-0.494,0c-0.002,0-0.004,0-0.006,0c-0.165,0-0.329,0-0.494,0c-0.002,0-0.004,0-0.006,0
		c-68.302,0-136.603,0-205.034,0c-0.371-0.435-0.801-0.937-1.373-1.604c0-11.735,0-23.711,0-36.041c0,0,0,0,0-0.001
		c0.671-0.525,1.579-1.238,2.998-2.354c12.563,0,25.863,0,39.165,0c0.002,0,0.004,0,0.006,0c2.81,0,5.635,0.147,8.446,0.149
		c1.688,0.002,3.371-0.049,5.042-0.214c10.854-1.074,21.721-1.131,32.588-1.029c6.788,0.064,13.576,0.189,20.362,0.168
		c0.025,0,0.051,0,0.076,0c1.181-0.004,2.361-0.012,3.541-0.026c9.493-0.111,18.987-0.123,28.481-0.107
		c9.498,0.016,18.996,0.059,28.493,0.059c18.825,0,37.648,0,56.47,0c0.002,0,0.004,0,0.006,0c18.992,0,37.98,0,56.971,0
		c0.002,0,0.004,0,0.006,0c4.983-0.962,9.993-1.155,15.01-1.13c4.392,0.021,8.788,0.209,13.177,0.193
		c0.628-0.002,1.257-0.009,1.885-0.021c9.546-0.18,19.1-0.196,28.645-0.001c0.446,0.009,0.894,0.012,1.34,0.022
		c3.451,0.078,6.883,0.537,10.334,0.812c0.593,0.047,1.187,0.086,1.781,0.12c0.741,0.042,1.484,0.071,2.228,0.083
		c0.745,0.011,1.491,0.004,2.239-0.028c1.372-0.058,2.745-0.087,4.118-0.099c2.747-0.024,5.497,0.019,8.246,0.032
		c1.374,0.006,2.748,0.005,4.121-0.016c0.001,0,0.003,0,0.005,0c0.147-0.002,0.298,0.006,0.448,0.014
		c0.046,0.002,0.091,0.001,0.138,0.004c0.398,0.027,0.804,0.076,1.207,0.1c1.011,0.061,2.01-0.031,2.85-1.003
		c0.109-0.126,0.361-0.182,0.639-0.187c0.278-0.004,0.582,0.044,0.793,0.128c2.303,0.912,4.645,1.175,6.999,1.193
		c2.691,0.021,5.399-0.278,8.085-0.293c0.336-0.002,0.672,0,1.008,0.009c6.137,0.149,12.307,0.427,18.447,0.378
		c3.687-0.03,7.363-0.177,11.015-0.542c7.903-0.789,15.737-0.532,23.6-0.727c1.956-0.048,3.913-0.07,5.87-0.078
		c3.913-0.016,7.828,0.026,11.742,0.03c1.957,0.001,3.914-0.006,5.871-0.035c0.002,0,0.003,0,0.005,0
		c2.68-0.039,4.833,1.159,7.438,1.777c0,4.537,0,8.658,0,12.779C487.572,68.015,487.668,71.35,487.555,74.677z M259.465,42.138
		l1.566-10.19h0.004h2.748l1.538,5.259c0.101,0.328,0.242,0.771,0.328,1.382c0-0.003,0.001-0.005,0.002-0.008
		c0.07-0.565,0.198-1.019,0.311-1.387l1.554-5.245h0.003h2.748l1.567,10.19h-2.591h-0.004l-0.599-4.404
		c-0.086-0.611-0.155-1.362-0.213-2.269c0-0.004-0.001-0.007-0.001-0.011c-0.143,0.898-0.356,1.511-0.47,1.91l-1.383,4.774h-1.852
		h-0.003l-1.382-4.774c-0.114-0.397-0.325-1.007-0.468-1.899c0-0.004-0.001-0.007-0.002-0.011c-0.059,0.912-0.144,1.667-0.229,2.28
		l-0.599,4.404h-2.572H259.465z M274.047,37.064c0-1.454,0.556-2.766,1.596-3.776c1.026-0.998,2.422-1.568,3.848-1.568h0.001
		c1.426,0,2.837,0.57,3.862,1.568c1.04,1.012,1.582,2.337,1.582,3.776c0,1.454-0.557,2.778-1.582,3.776
		c-1.041,1.013-2.438,1.568-3.862,1.568h-0.001c-1.239,0-2.479-0.442-3.463-1.226C274.745,40.157,274.047,38.703,274.047,37.064z
		 M287.815,42.138v-10.19h2.451c1.896,0,3.42,0.028,4.76,0.969c1.283,0.897,1.968,2.31,1.968,4.133c0,1.811-0.685,3.222-1.968,4.134
		c-1.269,0.897-2.68,0.955-4.375,0.955H287.815z M305.918,35.953v2.18h-3.335v1.725v0.001h3.534v2.28h-6.242v-10.19h6.242v2.237
		h-3.534v1.768H305.918z M311.877,39.757h3.448v2.381h-6.228h-0.001v-10.19h0.001h2.777v7.81H311.877z M319.445,39.601
		c0.784,0,1.411,0.612,1.411,1.396v0c0,0.797-0.627,1.411-1.411,1.411s-1.396-0.627-1.396-1.411v0
		C318.05,40.228,318.647,39.601,319.445,39.601z M318.05,36.58L318.05,36.58c0-0.77,0.599-1.396,1.396-1.396
		c0.784,0,1.411,0.612,1.411,1.396v0c0,0.798-0.627,1.411-1.411,1.411S318.05,37.363,318.05,36.58z M331.19,34.356h-2.265v-2.408
		v-0.001h7.325v0.001v2.408h-2.28v7.781h-2.779L331.19,34.356L331.19,34.356z M344.049,38.034l2.777,4.104h-3.136l-2.337-3.99v3.99
		h-2.608v-10.19h3.078c1.411,0,2.494,0.014,3.364,0.684c0.74,0.57,1.14,1.439,1.14,2.494c0,1.187-0.449,2.053-1.298,2.543
		C344.746,37.833,344.418,37.955,344.049,38.034L344.049,38.034z M349.095,42.138v-10.19h2.808v10.19H349.095z M360.969,36.65
		c0.36,0.029,0.684,0.109,0.967,0.237c0.002,0,0.004,0.001,0.006,0.002c0.095,0.043,0.179,0.1,0.265,0.153
		c0.042,0.026,0.091,0.047,0.131,0.076c0.048,0.034,0.085,0.079,0.129,0.116c0.068,0.059,0.142,0.115,0.201,0.182
		c0.02,0.021,0.033,0.048,0.051,0.07c0.076,0.092,0.15,0.187,0.211,0.293c0.018,0.031,0.028,0.068,0.045,0.1
		c0.138,0.269,0.229,0.575,0.271,0.918c0.017,0.14,0.031,0.281,0.031,0.432c0,0,0,0,0,0c0,1.083-0.47,1.937-1.325,2.393
		c-0.912,0.485-2.123,0.514-3.791,0.514h-2.879V31.948v-0.001h3.093c1.255,0,2.237,0.014,3.008,0.355
		c0.939,0.413,1.438,1.184,1.438,2.195v0c0,1.167-0.556,1.794-1.853,2.152C360.968,36.65,360.968,36.65,360.969,36.65z
		 M372.13,40.314L372.13,40.314h-3.948l-0.527,1.824h-2.766v-0.001l3.521-10.189h3.478h0.001l3.52,10.19h-2.765v-0.001
		L372.13,40.314z M380.298,39.757h3.448v2.381h-6.228h-0.001v-10.19h0.001h2.778L380.298,39.757L380.298,39.757z M391.844,42.138
		v-10.19h2.451c1.896,0,3.421,0.028,4.761,0.969c1.282,0.897,1.967,2.31,1.967,4.133c0,1.811-0.685,3.222-1.967,4.134
		c-0.158,0.112-0.319,0.211-0.483,0.299c-1.144,0.612-2.409,0.656-3.893,0.656H391.844z M409.676,40.314L409.676,40.314h-3.948
		l-0.527,1.824h-2.766v-0.001l3.521-10.189h3.478h0.001l3.52,10.19h-2.765v-0.001L409.676,40.314z M413.668,34.356v-2.408v-0.001
		h7.324v0.001v2.408h-2.279v7.781h-2.779v-7.781H413.668z M428.933,40.314L428.933,40.314h-3.948l-0.527,1.824h-2.766v-0.001
		l3.521-10.189h3.477h0.001l3.521,10.19h-2.766v-0.001L428.933,40.314z M483.837,24.667c-1.979,0.494-3.858,0.454-5.757,0.463
		c-6.912,0.034-13.825,0.043-20.737,0.043c-6.913,0-13.826-0.007-20.739-0.007c-0.937,0-2.105-0.242-3.041-0.241
		c-0.562,0.001-1.04,0.089-1.332,0.37c-0.408,0.392-0.766,0.547-1.093,0.564c-0.328,0.018-0.627-0.101-0.918-0.257
		c-0.219-0.117-0.434-0.254-0.651-0.37c-0.272-0.144-0.551-0.254-0.854-0.248c-0.103,0.002-0.207,0.017-0.315,0.048
		c-0.73,0.21-1.625,0.99-2.552,0.873c-0.133-0.017-0.267-0.052-0.4-0.11c-0.245-0.105-0.492-0.291-0.736-0.578h-0.003
		c-0.079-0.08-1.012,0.804-1.557,0.82c-1.037,0.029-2.082-0.245-3.56-0.455c-0.001,0-0.001,0-0.002,0
		c0.013-0.007-0.513,0.488-1.077,0.543c-0.66,0.063-1.324,0.074-1.991,0.068c-0.667-0.006-1.336-0.027-2.003-0.027
		c-54.799,0-109.6,0-164.4,0c-0.001,0-0.002,0-0.003,0c0,0-0.001,0-0.001-0.001c-0.12-0.108-0.265-0.202-0.356-0.33
		c-0.088-0.121-0.173-0.279-0.173-0.423c-0.011-5.497-0.008-10.994-0.008-16.894c0.729-0.479,1.702-1.117,2.678-1.756
		c-0.129-0.131-0.257-0.262-0.386-0.392c0.305-0.069,0.607-0.198,0.911-0.198c50.307-0.009,100.609-0.003,150.913-0.03
		c0.709,0,1.432,0.077,2.15,0.096c1.196,0.031,2.383-0.098,3.483-1.011c0.186-0.154,0.463-0.22,0.78-0.234
		c0.526-0.024,1.162,0.095,1.662,0.193c5.725,1.124,8.591,1.306,13.625,0.519c0.933-0.146,1.93-0.32,3.043-0.533
		c0.161-0.031,0.34-0.06,0.513-0.065c0.172-0.006,0.339,0.012,0.478,0.074c1.271,0.566,2.536,0.73,3.802,0.7
		c2.529-0.061,5.057-0.898,7.611-0.853c0.255,0.005,0.511,0.018,0.767,0.042c1.673,0.156,3.354,0.208,5.041,0.212
		c2.811,0.007,5.632-0.118,8.442-0.118c0.001,0,0.001,0,0.002,0c4.33,0,8.66,0,12.989,0c2.166,0,4.333-0.031,6.499-0.04
		c2.165-0.008,4.33,0.005,6.491,0.093c1.426,0.06,2.841,0.405,4.306,0.754c0.613,0.146,1.233,0.291,1.869,0.417
		c0.469,0.936,0.812,1.626,1.314,2.631c0.002,4.61,0.002,9.604,0.002,14.815C487.014,24.096,485.339,24.292,483.837,24.667z"/>
	<path class="st0" d="M407.707,33.601c-0.186,0.755-0.312,1.211-0.355,1.367l-1.026,3.363h2.766h0.001l-1.042-3.363
		C408.007,34.812,407.894,34.356,407.707,33.601z"/>
	<path class="st0" d="M426.966,33.601c0,0.001,0,0.001,0,0.002c-0.187,0.753-0.313,1.209-0.356,1.365l-1.025,3.363h2.764h0.002
		l-1.042-3.363C427.265,34.812,427.151,34.356,426.966,33.601z"/>
</g>
</svg>
