<?xml version="1.0" encoding="utf-8"?>
<!-- Generator: Adobe Illustrator 16.0.5, SVG Export Plug-In . SVG Version: 6.00 Build 0)  -->
<!DOCTYPE svg PUBLIC "-//W3C//DTD SVG 1.1//EN" "http://www.w3.org/Graphics/SVG/1.1/DTD/svg11.dtd">
<svg version="1.1" id="Layer_2_3_" xmlns="http://www.w3.org/2000/svg" xmlns:xlink="http://www.w3.org/1999/xlink" x="0px" y="0px"
	 width="1000px" height="1000px" viewBox="0 0 1000 1000" enable-background="new 0 0 1000 1000" xml:space="preserve">
<path fill="#FFE36A" d="M878.543,496.498c0-212.441-154.506-388.827-357.259-422.968c61.878,74.351,99.116,169.934,99.116,274.208
	c0,120.176-49.461,228.803-129.108,306.688c-64.023,62.609-147.554,105.33-240.623,118.192c-19.368,2.678-39.139,4.094-59.243,4.094
	c-24.445,0-48.401-2.079-71.731-6.003c61.957,74.45,148.633,127.598,247.432,146.838c0.011-0.013,0.033-0.033,0.045-0.046
	c25.655,5,52.13,7.723,79.212,7.928c201.649,1.513,371.842-136.431,419.107-323.631c0.003-0.005,0.007-0.008,0.01-0.012
	c0.04-0.16,0.077-0.319,0.117-0.478c0.373-1.484,0.733-2.974,1.09-4.464c0.277-1.154,0.547-2.311,0.815-3.469
	c0.442-1.923,0.876-3.848,1.295-5.779c0.379-1.753,0.754-3.507,1.111-5.268c0.283-1.394,0.553-2.792,0.822-4.19
	c0.262-1.356,0.517-2.714,0.767-4.074c0.163-0.903,0.348-1.801,0.507-2.706c-0.007,0.006-0.016,0.013-0.024,0.019
	C876.291,547.061,878.543,522.043,878.543,496.498z"/>
</svg>
