<?xml version="1.0" encoding="utf-8"?>
<!-- Generator: Adobe Illustrator 16.0.5, SVG Export Plug-In . SVG Version: 6.00 Build 0)  -->
<!DOCTYPE svg PUBLIC "-//W3C//DTD SVG 1.1//EN" "http://www.w3.org/Graphics/SVG/1.1/DTD/svg11.dtd">
<svg version="1.1" xmlns="http://www.w3.org/2000/svg" xmlns:xlink="http://www.w3.org/1999/xlink" x="0px" y="0px" width="1000px"
	 height="1000px" viewBox="0 0 1000 1000" enable-background="new 0 0 1000 1000" xml:space="preserve">
<g id="Layer_1" display="none">
	<g display="inline">
		<path fill="#E8E800" d="M732.938,501.658c0,133.967-104.035,242.566-232.369,242.566c-128.304,0-232.354-108.601-232.354-242.566
			c0-133.921,104.051-242.521,232.354-242.521C628.901,259.137,732.938,367.737,732.938,501.658z"/>
		<rect x="472.093" y="31.444" fill="#E8E800" width="69.113" height="178.08"/>
		<polygon fill="#E8E800" points="395.829,227.454 335.957,263.538 250.671,109.308 310.513,73.233 		"/>
		<polygon fill="#E8E800" points="278.498,318.857 243.927,381.348 96.206,292.288 130.747,229.837 		"/>
		<polygon fill="#E8E800" points="220.694,459.263 220.694,531.406 50.077,531.386 50.077,459.263 		"/>
		<polygon fill="#E8E800" points="237.86,611.012 272.447,673.503 124.701,762.521 90.114,700.072 		"/>
		<polygon fill="#E8E800" points="325.453,733.467 385.31,769.552 300.009,923.771 240.116,887.688 		"/>
		<polygon fill="#E8E800" points="459.919,793.84 529.062,793.84 529.062,971.898 459.919,971.919 		"/>
		<polygon fill="#E8E800" points="605.297,775.93 665.189,739.845 750.471,894.004 690.598,930.149 		"/>
		<polygon fill="#E8E800" points="722.627,684.526 757.225,621.994 904.945,711.034 870.43,773.566 		"/>
		<polygon fill="#E8E800" points="780.463,544.161 780.493,471.957 951.055,471.957 951.074,544.1 		"/>
		<polygon fill="#E8E800" points="763.297,392.391 728.76,329.819 876.471,240.82 911.027,303.29 		"/>
		<polygon fill="#E8E800" points="675.754,269.896 615.841,233.77 701.131,79.56 761.035,115.655 		"/>
	</g>
</g>
<g id="Layer_2">
	<g>
		<path fill="#FFFFFF" d="M155.445,451.63c34.256-36.616,86.177-58.572,149.254-62.988c20.204-63.166,84.14-109.491,159.804-109.491
			c10.834,0,21.49,0.948,31.914,2.825c3.486-6.651,7.652-12.98,12.14-19.131c-11.407-36.33-45.609-62.916-86.534-62.916
			c-15.377,0-29.626,4.076-42.32,10.655c-3.736-52.386-47.308-93.758-100.642-93.758c-55.8,0-101.017,45.217-101.017,101.018
			c0,24.369,8.618,46.718,22.993,64.167c-4.256-0.59-8.475-1.269-12.909-1.269c-50.204,0-90.897,39.763-90.897,88.823
			C97.23,407.254,121.511,438.828,155.445,451.63z"/>
		<path fill="#FFFFFF" d="M830.309,387.855c6.525-12.426,10.244-25.871,10.244-39.978c0-61.701-68.387-111.727-152.74-111.727
			c-48.989,0-92.488,16.932-120.434,43.143c-20.203,18.951-32.325,42.713-32.325,68.584c0,3.057,0.286,6.061,0.607,9.047
			c-11.21-8.136-24.333-14.214-38.547-18.147c-10.334-2.843-21.169-4.702-32.611-4.702c-33.613,0-63.686,12.98-84.14,33.416
			c-6.794,6.758-12.479,14.356-16.913,22.599c37.742,4.81,72.339,17.379,101.374,36.062c17.558,11.281,33.273,24.548,46.093,39.924
			c17.521-5.649,35.937-8.546,54.764-8.546c89.771,0,164.576,66.349,179.166,153.241c34.936,11.407,64.793,33.988,85.569,63.417
			c18.826-4.81,35.633-11.943,49.274-20.919c47.809-23.993,80.33-71.016,80.33-125.117
			C960.021,456.993,903.72,398.207,830.309,387.855z"/>
		<path fill="#FFFFFF" d="M760.92,680.393c-19.077-14.375-42.695-22.992-68.405-22.992c-0.34,0-0.68,0.054-1.002,0.054
			c0.608-5.114,1.002-10.299,1.002-15.591c0-71.48-56.784-129.409-126.834-129.409c-27.605,0-52.977,9.226-73.787,24.513
			c-0.644,0.482-1.395,0.822-2.021,1.305c-0.34-0.983-0.805-1.913-1.162-2.896c-17.093-44.912-64.615-79.633-124.152-89.717
			c-3.486-0.59-6.99-1.126-10.549-1.556c-8.224-0.965-16.592-1.537-25.155-1.537c-10.12,0-20.222,0.607-30.162,1.681
			c-51.135,5.524-98.085,25.96-120.076,68.602c-12.801,24.799-17.253,56.98-8.903,98.281C96.229,614.437,37.64,673.76,37.64,746.706
			c0,75.057,62.005,135.881,138.491,135.881l516.384,2.61c62.898,0,113.89-50.991,113.89-113.89c0-12.837-2.218-25.12-6.133-36.634
			C792.852,712.825,778.978,694.017,760.92,680.393z"/>
	</g>
</g>
</svg>
