<?xml version="1.0" encoding="utf-8"?>
<!-- Generator: Adobe Illustrator 16.0.5, SVG Export Plug-In . SVG Version: 6.00 Build 0)  -->
<!DOCTYPE svg PUBLIC "-//W3C//DTD SVG 1.1//EN" "http://www.w3.org/Graphics/SVG/1.1/DTD/svg11.dtd">
<svg version="1.1" xmlns="http://www.w3.org/2000/svg" xmlns:xlink="http://www.w3.org/1999/xlink" x="0px" y="0px" width="1000px"
	 height="1000px" viewBox="0 0 1000 1000" enable-background="new 0 0 1000 1000" xml:space="preserve">
<g id="Layer_1" display="none">
	<g id="Layer_1_2_">
		<g id="Layer_2" display="inline">
			<g>
				<path d="M732.938,501.658c0,133.967-104.034,242.565-232.368,242.565c-128.305,0-232.354-108.601-232.354-242.565
					c0-133.921,104.051-242.521,232.354-242.521C628.901,259.137,732.938,367.737,732.938,501.658z"/>
				<rect x="472.093" y="31.444" width="69.113" height="178.08"/>
				<polygon points="395.829,227.454 335.957,263.538 250.671,109.308 310.513,73.233 				"/>
				<polygon points="278.498,318.857 243.927,381.348 96.206,292.288 130.747,229.837 				"/>
				<polygon points="220.694,459.263 220.694,531.406 50.077,531.386 50.077,459.263 				"/>
				<polygon points="237.86,611.012 272.447,673.503 124.701,762.521 90.114,700.072 				"/>
				<polygon points="325.453,733.467 385.31,769.552 300.009,923.771 240.116,887.688 				"/>
				<polygon points="459.919,793.84 529.062,793.84 529.062,971.898 459.919,971.919 				"/>
				<polygon points="605.297,775.93 665.189,739.845 750.471,894.004 690.598,930.149 				"/>
				<polygon points="722.627,684.526 757.225,621.994 904.945,711.034 870.43,773.566 				"/>
				<polygon points="780.463,544.161 780.493,471.957 951.055,471.957 951.074,544.1 				"/>
				<polygon points="763.297,392.391 728.76,329.819 876.471,240.82 911.027,303.29 				"/>
				<polygon points="675.754,269.896 615.841,233.77 701.131,79.56 761.035,115.655 				"/>
			</g>
		</g>
		<g id="Layer_1_1_" display="inline">
			<g>
				<path d="M511.552,233.617l-0.009-158.196l47.958,47.96l16.351-16.35l-59.512-59.51l-16.33-16.33l-16.349,16.35l-59.501,59.501
					l16.349,16.349l47.933-47.97l0.01,158.197c-141.182,6.076-254.202,122.8-254.202,265.457
					c0,146.551,119.203,265.756,265.753,265.754c146.541,0.011,265.754-119.203,265.754-265.754
					C765.754,356.417,652.761,239.684,511.552,233.617z M500,741.727c-133.797-0.009-242.63-108.844-242.642-242.642
					c0-133.808,108.855-242.661,242.651-242.651c133.797,0.01,242.632,108.844,242.644,242.641
					C742.66,632.872,633.807,741.727,500,741.727z"/>
			</g>
		</g>
	</g>
	<g id="Layer_2_1_" display="inline">
		<g>
			<path fill="#E8E800" d="M292.661,444.235c6.643-63.219,48.206-115.94,104.637-137.966
				c-24.209-39.338-66.406-65.472-114.529-65.472c-75.168,0-136.125,63.622-136.125,142.093c0,49.547,24.334,93.123,61.168,118.554
				C228.368,473.588,258.13,452.928,292.661,444.235z"/>
			<rect x="266.087" y="107.396" fill="#E8E800" width="40.489" height="104.333"/>
			<polygon fill="#E8E800" points="221.405,222.231 171.423,131.879 136.364,153.017 186.329,243.369 			"/>
			<polygon fill="#E8E800" points="152.668,275.781 66.109,223.628 45.874,260.218 132.414,312.389 			"/>
			<polygon fill="#E8E800" points="118.803,358.042 18.847,358.042 18.847,400.299 118.803,400.308 			"/>
			<polygon fill="#E8E800" points="128.861,446.941 42.302,499.113 62.565,535.711 149.124,483.559 			"/>
			<path fill="#E8E800" d="M180.176,518.688l-49.992,90.353l35.086,21.133l13.662-24.69c-0.454-4.742-0.731-9.529-0.731-14.384
				c0-23.174,5.315-45.104,14.66-64.764L180.176,518.688z"/>
			<path fill="#E8E800" d="M425.247,298.131c9.978-1.93,20.276-2.947,30.802-2.947c6.083,0,12.104,0.435,18.07,1.101l49.122-29.618
				l-20.245-36.608l-86.544,52.147L425.247,298.131z"/>
			<polygon fill="#E8E800" points="435.364,156.731 400.27,135.589 350.304,225.932 385.4,247.102 			"/>
			<path fill="#FFFFFF" d="M850.749,424.309c25.407-125.725-66.713-168.022-158.628-168.022c-76.89,0-141.419,40.48-160.516,95.409
				c-21.097-16.104-47.185-25.754-75.558-25.754c-69.826,0-126.424,57.764-126.424,129.005c0,5.264,0.397,10.433,1.004,15.54
				c-0.338-0.011-0.666-0.058-1.004-0.058c-62.696,0-113.526,50.83-113.526,113.527c0,62.695,50.831,113.525,113.526,113.525
				l514.738-2.578c76.225,0,138.021-60.646,138.021-135.453C982.386,486.755,923.992,427.608,850.749,424.309z"/>
		</g>
	</g>
</g>
<g id="Layer_2_2_" display="none">
	<g display="inline">
		<path fill="#0047D0" d="M0,0v1000h1000V0H0z M865.948,677.612c-13.852,8.771-29.618,15.673-46.543,20.802
			c3.832,13.203,5.984,27.103,5.984,41.524c0,82.415-67.059,149.474-149.728,149.474l-456.971-2.312
			c-94.431,0-171.257-75.78-171.257-168.945c0-73.076,46.875-135.48,113.222-158.91c0.316-18.538,3.388-34.559,7.884-48.489
			l-12.744-0.078l5.525-18.507c-36.98-22.417-61.139-62.517-61.139-107.95c0-50.358,29.826-93.988,72.98-114.6
			c-0.934-6.522-1.425-13.108-1.425-19.741c0-76.13,61.946-138.076,138.076-138.076c52.4,0,98.673,29.778,121.992,73.661
			c1.52-0.048,3.071-0.079,4.606-0.079c49.487,0,92.5,27.609,114.187,68.009c32.153-22.401,74.278-35.937,121.154-35.937
			c103.105,0,183.873,64.812,183.873,147.559c0,0.633,0,1.282-0.015,1.916c62.831,28.226,105.797,89.27,105.797,157.706
			C961.408,588.564,924.902,646.933,865.948,677.612z"/>
		<path d="M200.359,456.884c-30.047-11.335-51.545-39.292-51.545-72.663c0-43.44,36.047-78.647,80.516-78.647
			c3.911,0,7.662,0.601,11.43,1.124c-12.728-15.451-20.39-35.24-20.39-56.817c0-49.408,40.052-89.444,89.444-89.444
			c47.239,0,85.834,36.632,89.127,83.017c11.24-5.825,23.873-9.435,37.471-9.435c36.237,0,66.505,23.541,76.605,55.708
			c10.005-13.756,22.701-25.978,37.582-36.331c-21.688-40.4-64.7-68.009-114.187-68.009c-1.536,0-3.087,0.031-4.606,0.079
			c-23.319-43.883-69.592-73.661-121.992-73.661c-76.13,0-138.076,61.946-138.076,138.076c0,6.633,0.491,13.219,1.425,19.741
			c-43.155,20.612-72.98,64.241-72.98,114.6c0,45.434,24.158,85.533,61.139,107.95l-5.525,18.507l12.744,0.078
			c6.443-19.931,15.91-35.461,25.266-46.907C195.831,461.38,198.19,459.21,200.359,456.884z"/>
		<path d="M855.611,366.933c0.015-0.633,0.015-1.283,0.015-1.916c0-82.748-80.768-147.559-183.873-147.559
			c-46.876,0-89.001,13.536-121.154,35.937c8.248,15.372,13.298,32.627,14.517,50.896c24.745-23.208,63.245-38.2,106.638-38.2
			c74.688,0,135.241,44.294,135.241,98.927c0,12.491-3.292,24.395-9.055,35.398c64.986,9.166,114.837,61.217,114.837,124.223
			c0,47.905-28.796,89.54-71.144,110.785c-12.063,7.947-26.943,14.263-43.614,18.521c9.452,13.377,16.718,28.369,21.387,44.469
			c16.925-5.129,32.691-12.031,46.543-20.802c58.954-30.68,95.46-89.048,95.46-152.974
			C961.408,456.203,918.442,395.159,855.611,366.933z"/>
		<path d="M474.041,304.164c-66.995,0-123.606,41.018-141.495,96.947c6.997-0.49,14.073-0.886,21.372-0.886
			c3.451,0,6.775,0.364,10.179,0.507l11.098-37.281h0.063c6.712,7.772,14.975,14.168,24.268,18.933
			c18.111-18.094,44.738-29.587,74.515-29.587c10.132,0,19.709,1.646,28.844,4.164c8.834-12.617,14.027-27.862,14.027-44.295
			c0-8.042-1.6-15.641-3.896-22.939c-3.958,5.446-7.662,11.05-10.732,16.939C493.07,305.003,483.604,304.164,474.041,304.164z"/>
		<path d="M513.017,289.726c2.296,7.298,3.896,14.897,3.896,22.939c0,16.433-5.193,31.678-14.027,44.295
			c12.602,3.482,24.222,8.865,34.163,16.068c-0.285-2.644-0.569-5.303-0.569-8.01c0-22.907,10.765-43.946,28.637-60.727
			c-1.219-18.269-6.269-35.524-14.517-50.896C535.718,263.748,523.021,275.97,513.017,289.726z"/>
		<path d="M375.258,363.451h-0.063l-11.098,37.281c6.918,0.285,13.741,0.792,20.469,1.663c3.926-7.299,8.96-14.026,14.96-20.011
			C390.233,377.619,381.97,371.223,375.258,363.451z"/>
		<path d="M776.758,739.938c0,55.692-45.148,100.842-100.842,100.842l-457.225-2.312c-67.724,0-122.625-53.856-122.625-120.313
			c0-64.59,51.877-117.116,116.942-120.044c-7.394-36.57-3.436-65.066,7.884-87.022l-52.353-0.333
			c-4.496,13.931-7.567,29.951-7.884,48.489c-66.347,23.43-113.222,85.834-113.222,158.91c0,93.165,76.827,168.945,171.257,168.945
			l456.971,2.312c82.669,0,149.728-67.059,149.728-149.474c0-14.422-2.152-28.321-5.984-41.524
			c-15.196,4.591-31.344,7.679-48.077,9.086C774.795,717.696,776.758,728.572,776.758,739.938z"/>
		<path d="M200.359,456.884c6.585,2.47,13.424,4.433,20.707,5.161c-0.032,0.079-0.126,0.412-0.126,0.412
			c0.253,0,0.981-0.19,1.456-0.27c2.312,0.207,4.56,0.681,6.934,0.681c22.812,0,43.313-9.372,57.972-24.284
			c14.026-5.509,28.227-11.161,40.432-16.069c0.981-7.33,2.596-14.484,4.812-21.403
			C276.679,405.022,230.707,424.462,200.359,456.884z"/>
		<path d="M327.195,450.346c-0.348-3.831-0.633-7.709-0.633-11.636c0-5.493,0.475-10.875,1.171-16.195
			c-12.206,4.908-26.406,10.56-40.432,16.069c-14.659,14.913-35.16,24.284-57.972,24.284c-2.375,0-4.623-0.475-6.934-0.681
			c-0.475,0.08-1.203,0.27-1.456,0.27c0,0,0.095-0.333,0.126-0.412c-7.282-0.728-14.121-2.691-20.707-5.161
			c-2.169,2.327-4.528,4.496-6.554,6.965c-9.356,11.445-18.822,26.976-25.266,46.907l52.353,0.333
			C240.347,473.332,281.919,455.237,327.195,450.346z"/>
		<path d="M722.268,597.793c-12.948-76.937-79.153-135.685-158.655-135.685c-16.67,0-32.959,2.564-48.506,7.567
			c-11.335-13.614-25.25-25.361-40.796-35.35c-11.983,3.641-24.711,5.62-37.899,5.62c-10.939,0-21.688-1.361-32.057-4.005
			l-2.691,9.071l-16.131,6.586c52.716,8.928,94.794,39.671,109.913,79.438c0.887,0.443,1.932,0.949,2.834,1.408
			c18.442-13.535,40.891-21.703,65.334-21.703c62.025,0,112.304,51.292,112.304,114.583c0,4.686-0.349,9.276-0.887,13.805
			c0.285,0,0.586-0.047,0.887-0.047c22.765,0,43.692,7.629,60.568,20.358c4.369,0.284,8.771,0.458,13.266,0.458
			c17.16,0,33.42-2.169,48.269-5.952C779.607,627.888,753.17,607.895,722.268,597.793z"/>
		<path d="M376.175,450.219c3.167,0.38,6.27,0.855,9.356,1.378l16.131-6.586l2.691-9.071c10.369,2.644,21.118,4.005,32.057,4.005
			c13.188,0,25.916-1.979,37.899-5.62c-25.709-16.543-56.342-27.672-89.745-31.93c-5.952,11.034-9.372,23.318-9.372,36.315
			C375.194,442.62,375.605,446.451,376.175,450.219z"/>
		<path d="M498.278,532.443c-0.902-0.459-1.947-0.965-2.834-1.408c0.333,0.87,0.745,1.693,1.045,2.564
			C497.06,533.172,497.692,532.872,498.278,532.443z"/>
		<path d="M749.75,659.897c-4.495,0-8.896-0.174-13.266-0.458c15.989,12.062,28.273,28.717,34.844,48.061
			c16.733-1.407,32.881-4.495,48.077-9.086c-4.669-16.1-11.935-31.092-21.387-44.469C783.17,657.729,766.91,659.897,749.75,659.897z
			"/>
		<path d="M364.097,400.732c-3.404-0.143-6.728-0.507-10.179-0.507c-7.298,0-14.375,0.396-21.372,0.886
			c-2.216,6.919-3.831,14.074-4.812,21.403c19.567-7.852,33.973-13.725,33.973-13.725L364.097,400.732z"/>
		<path d="M376.175,450.219c-0.57-3.768-0.981-7.599-0.981-11.509c0-12.997,3.419-25.281,9.372-36.315
			c-6.728-0.871-13.551-1.378-20.469-1.663l-2.391,8.058c0,0-14.406,5.874-33.973,13.725c-0.697,5.32-1.171,10.702-1.171,16.195
			c0,3.927,0.285,7.805,0.633,11.636c8.833-0.95,17.763-1.488,26.723-1.488C361.5,448.857,368.925,449.364,376.175,450.219z"/>
	</g>
</g>
<g id="Layer_3" display="none">
	<path display="inline" fill="#FFFFFF" d="M675.029,639.128c0.538-4.528,0.887-9.119,0.887-13.805
		c0-63.291-50.278-114.583-112.304-114.583c-24.443,0-46.892,8.168-65.334,21.703c-0.586,0.429-1.219,0.729-1.789,1.156
		c-0.301-0.871-0.713-1.694-1.045-2.564c-15.118-39.767-57.196-70.51-109.913-79.438c-3.087-0.523-6.19-0.998-9.356-1.378
		c-7.25-0.855-14.675-1.361-22.258-1.361c-8.96,0-17.889,0.539-26.723,1.488c-45.276,4.892-86.848,22.986-106.303,60.743
		c-11.319,21.956-15.277,50.452-7.884,87.022c-65.065,2.928-116.942,55.454-116.942,120.044
		c0,66.457,54.901,120.313,122.625,120.313l457.225,2.312c55.693,0,100.842-45.149,100.842-100.842
		c0-11.366-1.963-22.242-5.43-32.438c-6.57-19.344-18.854-35.998-34.844-48.061c-16.876-12.729-37.804-20.358-60.568-20.358
		C675.615,639.081,675.314,639.128,675.029,639.128z"/>
	<path display="inline" fill="#FFFFFF" d="M536.479,365.018c0,2.707,0.284,5.366,0.569,8.01
		c-9.941-7.203-21.562-12.585-34.163-16.068c-9.134-2.517-18.712-4.164-28.844-4.164c-29.777,0-56.404,11.493-74.515,29.587
		c-6,5.984-11.034,12.712-14.96,20.011c33.403,4.258,64.035,15.387,89.745,31.93c15.546,9.989,29.461,21.736,40.796,35.35
		c15.547-5.002,31.836-7.567,48.506-7.567c79.502,0,145.707,58.749,158.655,135.685c30.902,10.102,57.34,30.095,75.751,56.152
		c16.671-4.259,31.551-10.574,43.614-18.521c42.348-21.245,71.144-62.88,71.144-110.785c0-63.006-49.851-115.058-114.837-124.223
		c5.763-11.003,9.055-22.907,9.055-35.398c0-54.632-60.553-98.927-135.241-98.927c-43.393,0-81.893,14.992-106.638,38.2
		C547.243,321.071,536.479,342.11,536.479,365.018z"/>
	<path display="inline" fill="#FFFFFF" d="M332.546,401.111c17.889-55.93,74.5-96.947,141.495-96.947
		c9.562,0,19.029,0.839,28.243,2.501c3.07-5.889,6.774-11.493,10.732-16.939c-10.1-32.168-40.368-55.708-76.605-55.708
		c-13.598,0-26.231,3.61-37.471,9.435c-3.293-46.384-41.889-83.017-89.127-83.017c-49.392,0-89.444,40.036-89.444,89.444
		c0,21.578,7.662,41.366,20.39,56.817c-3.768-0.523-7.519-1.124-11.43-1.124c-44.469,0-80.516,35.207-80.516,78.647
		c0,33.371,21.499,61.328,51.545,72.663C230.707,424.462,276.679,405.022,332.546,401.111z"/>
</g>
<g id="Layer_4">
	<path fill="#FFFFFF" d="M263.202,115.176c-22.708,27.737-29.323,65.952-19.691,113.586l2.196,10.897l-11.098,0.501
		c-71.911,3.234-128.25,60.991-128.25,131.471c0,72.664,60.331,131.791,134.492,131.791l536.976,2.679
		c60.046,0,108.904-48.854,108.904-108.905c0-32.575-14.423-63.182-39.563-83.98c-19.445-16.073-44.084-24.93-69.341-24.93H767.11
		l0.228-10.589c0.573-4.956,0.966-9.972,0.966-15.089c0-68.955-54.899-125.056-122.374-125.056c-26.434,0-51.7,8.616-73.05,24.912
		l-10.442,7.978l-4.338-12.42c-7.954-22.906-24.311-43.609-47.31-59.856c-30.342-21.462-69.814-33.281-111.128-33.281
		C364.062,64.883,299.012,71.416,263.202,115.176z"/>
	<g id="Layer_3_3_">
		<path fill="#497FAB" d="M268.536,768.342l-4.465-3.18l-0.124-0.136c-0.161-0.156-0.327-0.335-0.487-0.504
			c-0.335-0.351-0.642-0.683-0.957-0.947c-4.118-3.46-7.695-7.294-10.636-11.39c-8.228-11.467-12.312-24.414-12.131-38.489
			c0.113-12.307,3.71-23.894,10.682-34.426c6.089-9.229,14.906-16.652,26.938-22.725c10.487-5.288,21.751-8.884,32.384-12.107
			c2.882-0.867,5.808-1.732,8.639-2.581c12.732-3.791,25.896-7.715,38.291-13.031c2.789-1.199,5.586-1.036,7.677,0.453
			c2.064,1.46,3.167,4.053,3.031,7.082c-0.06,1.276-0.142,2.556-0.225,3.79c-0.164,2.591-0.33,5.026-0.294,7.505
			c0.221,12.326,0.579,24.691,0.934,36.309l0.015,0.58c0.374,11.76,0.754,23.914-0.86,35.907
			c-2.324,17.26-8.856,30.626-19.972,40.872c-8.992,8.281-19.519,13.638-31.291,15.92c-13.393,2.584-26.449,1.049-38.786-4.598
			c-1.973-0.913-3.896-1.929-5.756-2.926c-0.814-0.422-1.655-0.874-2.48-1.298L268.536,768.342z"/>
	</g>
	<g id="Layer_3_1_">
		<path fill="#497FAB" d="M396.949,942.781l-4.466-3.181l-0.125-0.124c-0.156-0.178-0.329-0.336-0.483-0.515
			c-0.337-0.35-0.645-0.682-0.96-0.937c-4.127-3.475-7.693-7.308-10.63-11.412c-8.231-11.456-12.314-24.402-12.145-38.483
			c0.124-12.303,3.724-23.898,10.692-34.42c6.087-9.222,14.896-16.655,26.938-22.726c10.487-5.288,21.74-8.888,32.383-12.105
			c2.884-0.879,5.811-1.746,8.642-2.594c12.719-3.781,25.89-7.692,38.289-13.023c2.791-1.207,5.588-1.044,7.679,0.445
			c2.058,1.48,3.164,4.063,3.029,7.095c-0.066,1.262-0.153,2.55-0.225,3.788c-0.175,2.59-0.332,5.026-0.293,7.493
			c0.211,12.325,0.577,24.703,0.922,36.317l0.023,0.584c0.375,11.758,0.747,23.9-0.855,35.898
			c-2.336,17.255-8.869,30.621-19.976,40.88c-8.993,8.283-19.53,13.635-31.288,15.91c-13.398,2.604-26.448,1.047-38.797-4.6
			c-1.968-0.892-3.886-1.928-5.748-2.914c-0.812-0.431-1.652-0.885-2.479-1.31L396.949,942.781z"/>
	</g>
	<g id="Layer_3_2_">
		<path fill="#497FAB" d="M525.361,739.624l-4.466-3.179l-0.122-0.134c-0.168-0.17-0.327-0.339-0.486-0.506
			c-0.333-0.36-0.643-0.682-0.957-0.947c-4.129-3.463-7.691-7.305-10.634-11.399c-8.229-11.458-12.324-24.407-12.146-38.484
			c0.126-12.302,3.715-23.9,10.697-34.431c6.086-9.22,14.894-16.655,26.935-22.715c10.487-5.29,21.739-8.887,32.384-12.106
			c2.882-0.878,5.799-1.748,8.643-2.593c12.721-3.793,25.891-7.703,38.288-13.032c2.792-1.197,5.588-1.035,7.679,0.452
			c2.06,1.473,3.162,4.066,3.031,7.086c-0.07,1.271-0.156,2.562-0.229,3.798c-0.17,2.582-0.329,5.026-0.291,7.493
			c0.212,12.326,0.581,24.693,0.923,36.307l0.022,0.597c0.378,11.745,0.749,23.899-0.866,35.895
			c-2.326,17.256-8.856,30.624-19.964,40.883c-8.993,8.281-19.529,13.635-31.29,15.91c-13.394,2.594-26.447,1.047-38.797-4.602
			c-1.963-0.9-3.895-1.928-5.743-2.923c-0.814-0.422-1.656-0.875-2.482-1.3L525.361,739.624z"/>
	</g>
</g>
</svg>
