<?xml version="1.0" encoding="utf-8"?>
<!-- Generator: Adobe Illustrator 16.0.5, SVG Export Plug-In . SVG Version: 6.00 Build 0)  -->
<!DOCTYPE svg PUBLIC "-//W3C//DTD SVG 1.1//EN" "http://www.w3.org/Graphics/SVG/1.1/DTD/svg11.dtd">
<svg version="1.1" id="Layer_1" xmlns="http://www.w3.org/2000/svg" xmlns:xlink="http://www.w3.org/1999/xlink" x="0px" y="0px"
	 width="1000px" height="1000px" viewBox="0 0 1000 1000" enable-background="new 0 0 1000 1000" xml:space="preserve">
<path fill="#E8E800" d="M252.555,404.974c19.294-23.577,46.626-40.48,81.238-50.24c13.755-3.879,27.402-6.234,39.865-7.625
	c-23.578-23.509-56.108-38.045-92.032-38.045c-71.985,0-130.348,58.363-130.348,130.348c0,33.409,12.577,63.879,33.247,86.946
	c11.995-6.147,24.896-10.854,38.478-13.877C219.346,469.544,229.24,433.465,252.555,404.974z"/>
<rect x="265.651" y="186.692" fill="#E8E800" width="38.764" height="95.709"/>
<polygon fill="#E8E800" points="222.869,292.034 175.006,209.149 141.433,228.541 189.283,311.424 "/>
<polygon fill="#E8E800" points="157.043,341.158 74.163,293.317 54.79,326.882 137.652,374.74 "/>
<polygon fill="#E8E800" points="124.621,416.618 28.908,416.618 28.908,455.382 124.621,455.39 "/>
<polygon fill="#E8E800" points="134.254,498.169 51.361,546.023 70.765,579.597 153.649,531.759 "/>
<path fill="#E8E800" d="M412.56,345.356c20.968,0.513,41.497,3.818,60.798,9.69l38.526-22.251l-19.395-33.582"/>
<polygon fill="#E8E800" points="427.734,231.947 394.131,212.556 346.289,295.428 379.892,314.848 "/>
<path fill="#FFFFFF" d="M874.479,379.215l-12.454-1.758l5.862-11.146c4.418-8.44,6.651-17.144,6.651-25.869
	c0-41.316-47.412-74.928-105.69-74.928c-58.269,0-105.698,33.612-105.698,74.928c0,1.967,0.212,3.9,0.424,5.833l2.141,19.883
	l-16.191-11.745c-13.915-10.105-30.566-15.444-48.151-15.444c-32.509,0-60.853,17.913-70.904,43.664
	c0.041,0.029,0.082,0.056,0.122,0.085c17.83,12.595,32.396,27.66,43.102,44.438c19.532-9.303,40.786-14.129,62.727-14.129
	c79.359,0,144.429,63.401,148.784,143.004c20.433,3.948,39.818,12.549,56.511,25.176c25.266-1.041,49.073-7.88,66.154-19.134
	c35.051-17.653,56.272-50.573,56.272-86.419C964.14,427.88,925.604,386.427,874.479,379.215z"/>
<path fill="#FFFFFF" d="M274.07,427.093c-21.161,25.86-27.334,61.485-18.354,105.898l2.043,10.16l-10.348,0.468
	c-67.045,3.016-119.568,56.859-119.568,122.578c0,67.742,56.248,122.868,125.392,122.868l500.638,2.507
	c55.983-0.018,101.535-45.553,101.535-101.545c0-30.371-13.447-58.906-36.886-78.301c-18.129-14.986-41.1-23.244-64.649-23.244
	h-9.99l0.212-9.871c0.535-4.622,0.9-9.294,0.9-14.069c0-64.283-51.184-116.589-114.091-116.589
	c-24.646,0-48.203,8.032-68.107,23.226l-9.736,7.438l-4.044-11.579c-7.416-21.357-22.665-40.659-44.107-55.806
	c-28.293-20.011-65.091-31.029-103.609-31.029C368.109,380.203,307.457,386.294,274.07,427.093z"/>
</svg>
