<?xml version="1.0" encoding="utf-8"?>
<!-- Generator: Adobe Illustrator 16.0.5, SVG Export Plug-In . SVG Version: 6.00 Build 0)  -->
<!DOCTYPE svg PUBLIC "-//W3C//DTD SVG 1.1//EN" "http://www.w3.org/Graphics/SVG/1.1/DTD/svg11.dtd">
<svg version="1.1" xmlns="http://www.w3.org/2000/svg" xmlns:xlink="http://www.w3.org/1999/xlink" x="0px" y="0px" width="1000px"
	 height="1000px" viewBox="0 0 1000 1000" enable-background="new 0 0 1000 1000" xml:space="preserve">
<g id="Layer_1" display="none">
	<g id="Layer_2">
		<g display="inline">
			<path d="M732.938,501.658c0,133.967-104.035,242.566-232.369,242.566c-128.304,0-232.354-108.601-232.354-242.566
				c0-133.921,104.051-242.521,232.354-242.521C628.901,259.137,732.938,367.737,732.938,501.658z"/>
			<rect x="472.093" y="31.444" width="69.113" height="178.08"/>
			<polygon points="395.829,227.454 335.957,263.538 250.671,109.308 310.513,73.233 			"/>
			<polygon points="278.498,318.857 243.927,381.348 96.206,292.288 130.747,229.837 			"/>
			<polygon points="220.694,459.263 220.694,531.406 50.077,531.386 50.077,459.263 			"/>
			<polygon points="237.86,611.012 272.447,673.503 124.701,762.521 90.114,700.072 			"/>
			<polygon points="325.453,733.467 385.31,769.552 300.009,923.771 240.116,887.688 			"/>
			<polygon points="459.919,793.84 529.062,793.84 529.062,971.898 459.919,971.919 			"/>
			<polygon points="605.297,775.93 665.189,739.845 750.471,894.004 690.598,930.149 			"/>
			<polygon points="722.627,684.526 757.225,621.994 904.945,711.034 870.43,773.566 			"/>
			<polygon points="780.463,544.161 780.493,471.957 951.055,471.957 951.074,544.1 			"/>
			<polygon points="763.297,392.391 728.76,329.819 876.471,240.82 911.027,303.29 			"/>
			<polygon points="675.754,269.896 615.841,233.77 701.131,79.56 761.035,115.655 			"/>
		</g>
	</g>
	<g id="Layer_1_1_" display="inline">
		<g>
			<path d="M511.552,233.617l-0.009-158.196l47.958,47.96l16.351-16.35l-59.512-59.51l-16.33-16.33l-16.349,16.35l-59.501,59.501
				l16.349,16.349l47.932-47.97l0.01,158.197c-141.181,6.076-254.202,122.8-254.202,265.457
				c0,146.551,119.203,265.756,265.753,265.754c146.541,0.011,265.754-119.203,265.754-265.754
				C765.754,356.417,652.761,239.684,511.552,233.617z M500,741.727c-133.797-0.009-242.63-108.844-242.642-242.642
				c0-133.808,108.855-242.661,242.651-242.651c133.797,0.01,242.632,108.844,242.643,242.641
				C742.66,632.872,633.807,741.727,500,741.727z"/>
		</g>
	</g>
</g>
<g id="Layer_2_1_">
	<g>
		<path fill="#E8E800" d="M292.661,444.235c6.643-63.219,48.206-115.94,104.637-137.966
			c-24.209-39.338-66.406-65.472-114.529-65.472c-75.168,0-136.125,63.622-136.125,142.093c0,49.548,24.334,93.123,61.168,118.554
			C228.368,473.588,258.13,452.928,292.661,444.235z"/>
		<rect x="266.087" y="107.396" fill="#E8E800" width="40.489" height="104.333"/>
		<polygon fill="#E8E800" points="221.405,222.231 171.423,131.879 136.364,153.017 186.329,243.369 		"/>
		<polygon fill="#E8E800" points="152.668,275.781 66.109,223.628 45.874,260.218 132.414,312.389 		"/>
		<polygon fill="#E8E800" points="118.803,358.042 18.847,358.042 18.847,400.299 118.803,400.308 		"/>
		<polygon fill="#E8E800" points="128.861,446.941 42.302,499.113 62.565,535.711 149.124,483.559 		"/>
		<path fill="#E8E800" d="M180.176,518.688l-49.992,90.352l35.086,21.133l13.662-24.691c-0.454-4.742-0.731-9.529-0.731-14.383
			c0-23.174,5.315-45.104,14.66-64.764L180.176,518.688z"/>
		<path fill="#E8E800" d="M425.247,298.131c9.978-1.93,20.276-2.947,30.802-2.947c6.083,0,12.103,0.435,18.07,1.101l49.122-29.618
			l-20.245-36.608l-86.544,52.147L425.247,298.131z"/>
		<polygon fill="#E8E800" points="435.364,156.731 400.27,135.589 350.304,225.932 385.4,247.102 		"/>
		<path fill="#FFFFFF" d="M850.749,424.309c25.407-125.725-66.713-168.023-158.628-168.023c-76.89,0-141.419,40.48-160.516,95.409
			c-21.096-16.104-47.184-25.754-75.557-25.754c-69.826,0-126.424,57.764-126.424,129.005c0,5.264,0.397,10.433,1.004,15.54
			c-0.338-0.01-0.666-0.057-1.004-0.057c-62.696,0-113.526,50.83-113.526,113.527c0,62.695,50.831,113.525,113.526,113.525
			l514.738-2.578c76.225,0,138.022-60.646,138.022-135.453C982.386,486.755,923.992,427.608,850.749,424.309z"/>
	</g>
</g>
</svg>
