<?xml version="1.0" encoding="utf-8"?>
<!-- Generator: Adobe Illustrator 16.0.5, SVG Export Plug-In . SVG Version: 6.00 Build 0)  -->
<!DOCTYPE svg PUBLIC "-//W3C//DTD SVG 1.1//EN" "http://www.w3.org/Graphics/SVG/1.1/DTD/svg11.dtd">
<svg version="1.1" xmlns="http://www.w3.org/2000/svg" xmlns:xlink="http://www.w3.org/1999/xlink" x="0px" y="0px" width="1000px"
	 height="1000px" viewBox="0 0 1000 1000" enable-background="new 0 0 1000 1000" xml:space="preserve">
<g id="Layer_2" display="none">
	<g display="inline">
		<path d="M732.938,501.658c0,133.967-104.036,242.567-232.37,242.567c-128.303,0-232.354-108.601-232.354-242.567
			c0-133.921,104.051-242.521,232.354-242.521C628.901,259.137,732.938,367.737,732.938,501.658z"/>
		<rect x="472.093" y="31.444" width="69.113" height="178.08"/>
		<polygon points="395.829,227.454 335.957,263.538 250.671,109.308 310.513,73.233 		"/>
		<polygon points="278.498,318.857 243.927,381.348 96.206,292.288 130.747,229.837 		"/>
		<polygon points="220.694,459.263 220.694,531.406 50.077,531.386 50.077,459.263 		"/>
		<polygon points="237.86,611.012 272.447,673.503 124.701,762.522 90.114,700.072 		"/>
		<polygon points="325.453,733.467 385.31,769.552 300.009,923.771 240.116,887.688 		"/>
		<polygon points="459.919,793.84 529.062,793.84 529.062,971.898 459.919,971.919 		"/>
		<polygon points="605.297,775.93 665.189,739.845 750.471,894.004 690.598,930.149 		"/>
		<polygon points="722.627,684.526 757.225,621.994 904.945,711.034 870.43,773.566 		"/>
		<polygon points="780.463,544.161 780.493,471.957 951.055,471.957 951.074,544.1 		"/>
		<polygon points="763.297,392.391 728.76,329.819 876.471,240.82 911.027,303.29 		"/>
		<polygon points="675.754,269.896 615.841,233.77 701.131,79.56 761.035,115.655 		"/>
	</g>
</g>
<g id="Layer_1" display="none">
	<g display="inline">
		<path d="M511.552,233.617l-0.009-158.196l47.958,47.96l16.351-16.35L516.34,47.521l-16.33-16.33l-16.349,16.35l-59.501,59.501
			l16.349,16.349l47.931-47.97l0.01,158.197c-141.18,6.076-254.202,122.8-254.202,265.457
			c0,146.551,119.203,265.756,265.753,265.754c146.541,0.011,265.754-119.203,265.754-265.754
			C765.754,356.417,652.761,239.684,511.552,233.617z M500,741.727c-133.797-0.009-242.63-108.844-242.642-242.642
			c0-133.808,108.855-242.661,242.651-242.651c133.797,0.01,242.632,108.844,242.642,242.641
			C742.66,632.872,633.807,741.727,500,741.727z"/>
	</g>
</g>
<g id="Layer_3">
	<path d="M515.021,961.162H484.79l-0.991-0.175c-1.282-0.227-2.556-0.477-3.826-0.727c-2.6-0.512-5.056-0.996-7.321-1.181
		c-29.581-2.352-57.939-8.119-84.264-17.141c-73.682-25.098-133.522-70.168-177.84-133.952
		c-38.911-55.673-59.886-119.223-62.323-188.856c-2.153-60.965,13.622-122.594,48.227-188.405
		c30.119-57.338,69.212-109.567,106.672-158.149c10.119-13.14,20.477-26.431,30.493-39.284
		c45.041-57.8,91.616-117.567,130.238-181.197c8.692-14.351,21.792-22.587,35.937-22.587c13.982,0,27.222,8.07,36.325,22.14
		c3.813,5.907,7.534,11.928,11.133,17.75c7.514,12.157,14.61,23.639,22.711,34.61c40.446,54.671,81.719,109.08,120.524,160.123
		l1.944,2.552c39.318,51.617,79.976,104.991,111.159,164.023c44.862,84.967,58.361,165.948,41.271,247.576
		c-13.85,66.043-43.975,123.82-89.539,171.731c-51.864,54.596-115.453,89.474-188.998,103.658
		c-11.741,2.26-23.647,3.812-35.162,5.313c-5.039,0.657-10.249,1.337-15.331,2.062L515.021,961.162z M486.833,938.162h26.559
		c4.954-0.7,9.952-1.353,14.793-1.983c11.176-1.457,22.732-2.964,33.786-5.092c68.734-13.257,128.18-45.865,176.678-96.919
		c42.581-44.773,70.74-98.807,83.699-160.603c15.945-76.161,3.156-152.09-39.099-232.119
		c-30.295-57.348-70.365-109.954-109.117-160.827l-1.951-2.561c-38.858-51.111-80.183-105.589-120.719-160.38
		c-8.67-11.743-16.351-24.17-23.778-36.188c-3.541-5.728-7.201-11.651-10.886-17.359c-4.776-7.383-10.978-11.623-17.007-11.623
		c-5.996,0-11.773,4.088-16.27,11.512c-39.324,64.785-86.317,125.09-131.763,183.41c-9.997,12.828-20.333,26.093-30.417,39.186
		c-36.848,47.787-75.267,99.099-104.531,154.81c-32.694,62.176-47.609,120.038-45.601,176.897
		c2.28,65.128,21.864,124.515,58.208,176.516c41.472,59.689,97.453,101.85,166.406,125.337
		c24.524,8.405,50.987,13.779,78.675,15.979c3.586,0.293,6.805,0.927,9.917,1.54C485.221,937.853,486.025,938.012,486.833,938.162z"
		/>
</g>
</svg>
