<?xml version="1.0" encoding="utf-8"?>
<!-- Generator: Adobe Illustrator 16.0.5, SVG Export Plug-In . SVG Version: 6.00 Build 0)  -->
<!DOCTYPE svg PUBLIC "-//W3C//DTD SVG 1.1//EN" "http://www.w3.org/Graphics/SVG/1.1/DTD/svg11.dtd">
<svg version="1.1" id="Layer_1" xmlns="http://www.w3.org/2000/svg" xmlns:xlink="http://www.w3.org/1999/xlink" x="0px" y="0px"
	 width="1000px" height="1000px" viewBox="0 0 1000 1000" enable-background="new 0 0 1000 1000" xml:space="preserve">
<g>
	<path d="M920.352,860.516c8.613,7.383,7.383,24.608-1.232,30.762c-56.601-2.461-104.59-3.691-155.038-3.691
		c-55.371,0-114.434,1.23-158.729,3.691c-7.383-7.384-8.613-23.379-2.461-30.762l35.683-3.692
		c28.301-2.46,41.837-7.382,41.837-15.996c0-7.382-2.462-19.687-27.07-54.14c-52.91-75.06-121.816-177.188-175.957-247.324
		c-33.223,41.835-124.277,175.957-173.496,262.089c-9.844,17.227-15.996,30.763-15.996,39.375c0,7.384,11.074,13.536,35.683,15.996
		l33.223,3.692c8.614,7.383,6.152,24.608-1.231,30.762c-44.297-2.461-91.055-3.691-132.89-3.691s-87.363,1.23-126.738,3.691
		c-11.074-4.923-12.305-23.379-3.691-30.762l30.761-3.692c66.445-7.382,109.512-60.293,146.426-109.511
		c14.765-19.688,99.667-127.969,167.343-226.406c8.614-12.305,11.074-20.918,11.074-24.609c0-3.692-4.922-14.766-14.766-28.301
		l-184.57-264.55c-40.605-57.833-63.984-82.442-107.05-92.286l-39.375-8.613c-6.153-7.383-4.922-27.071,2.46-30.76
		c57.833,2.461,98.438,3.691,142.735,3.691c47.988,0,103.358-1.23,139.042-3.693c8.614,3.691,9.845,22.148,2.461,30.762
		l-34.453,2.46c-22.148,1.23-36.914,8.614-36.914,15.996c0,11.074,12.304,31.993,36.914,67.676
		c40.605,59.063,113.203,169.805,157.5,225.176C543.829,374.48,654.571,199.754,676.72,162.84
		c9.844-15.996,17.227-31.993,17.227-40.605c0-6.152-18.457-13.536-40.605-15.996l-31.993-3.691
		c-7.382-8.614-7.382-25.84,2.461-30.76c43.065,2.461,82.44,3.691,130.429,3.691c45.527,0,79.98-1.23,118.127-3.693
		c8.612,6.152,9.844,23.379,2.46,30.762l-29.53,2.46c-36.915,3.691-81.211,40.605-131.66,104.589
		c-47.988,61.524-100.898,135.351-159.96,217.793c-7.384,11.074-12.306,19.687-12.306,23.379c0,3.691,1.23,12.304,15.996,31.992
		l207.949,292.852c41.835,57.832,73.828,77.519,111.973,81.21L920.352,860.516z"/>
</g>
</svg>
